<svg xmlns="http://www.w3.org/2000/svg" xmlns:xlink="http://www.w3.org/1999/xlink" contentStyleType="text/css" data-diagram-type="CLASS" height="414px" preserveAspectRatio="none" style="width:450px;height:414px;background:#FFFFFF;" version="1.1" viewBox="0 0 450 414" width="450px" zoomAndPan="magnify"><defs/><g><!--class PathTrie--><g class="entity" data-entity="PathTrie" data-source-line="1" data-uid="ent0002" id="entity_PathTrie"><rect fill="#F1F1F1" height="113.1875" rx="2.5" ry="2.5" style="stroke:#181818;stroke-width:0.5;" width="325.9814" x="62.03" y="7"/><ellipse cx="186.1736" cy="23" fill="#ADD1B2" rx="11" ry="11" style="stroke:#181818;stroke-width:1;"/><path d="M189.1423,28.6406 Q188.5642,28.9375 187.9236,29.0781 Q187.2829,29.2344 186.5798,29.2344 Q184.0798,29.2344 182.7517,27.5938 Q181.4392,25.9375 181.4392,22.8125 Q181.4392,19.6875 182.7517,18.0313 Q184.0798,16.375 186.5798,16.375 Q187.2829,16.375 187.9236,16.5313 Q188.5798,16.6875 189.1423,16.9844 L189.1423,19.7031 Q188.5173,19.125 187.9236,18.8594 Q187.3298,18.5781 186.7048,18.5781 Q185.3611,18.5781 184.6736,19.6563 Q183.9861,20.7188 183.9861,22.8125 Q183.9861,24.9063 184.6736,25.9844 Q185.3611,27.0469 186.7048,27.0469 Q187.3298,27.0469 187.9236,26.7813 Q188.5173,26.5 189.1423,25.9219 L189.1423,28.6406 Z " fill="#000000"/><ellipse cx="211.6736" cy="22.5" fill="#84BE84" rx="3" ry="3" style="stroke:#038048;stroke-width:1;"/><text fill="#000000" font-family="sans-serif" font-size="14" lengthAdjust="spacing" textLength="58.1943" x="217.6736" y="27.8467">PathTrie</text><line style="stroke:#181818;stroke-width:0.5;" x1="63.03" x2="387.0114" y1="39" y2="39"/><rect fill="none" height="6" style="stroke:#C82930;stroke-width:1;" width="6" x="70.03" y="49.6484"/><text fill="#000000" font-family="sans-serif" font-size="14" lengthAdjust="spacing" textLength="132.2754" x="82.03" y="55.9951">root: PathTrieNode</text><line style="stroke:#181818;stroke-width:0.5;" x1="63.03" x2="387.0114" y1="63.2969" y2="63.2969"/><ellipse cx="73.03" cy="76.9453" fill="#84BE84" rx="3" ry="3" style="stroke:#038048;stroke-width:1;"/><text fill="#000000" font-family="sans-serif" font-size="14" lengthAdjust="spacing" textLength="299.9814" x="82.03" y="80.292">search(String pathPrefix, int limit): String[]</text><ellipse cx="73.03" cy="93.2422" fill="#84BE84" rx="3" ry="3" style="stroke:#038048;stroke-width:1;"/><text fill="#000000" font-family="sans-serif" font-size="14" lengthAdjust="spacing" textLength="115.3359" x="82.03" y="96.5889">add(String path)</text><ellipse cx="73.03" cy="109.5391" fill="#84BE84" rx="3" ry="3" style="stroke:#038048;stroke-width:1;"/><text fill="#000000" font-family="sans-serif" font-size="14" lengthAdjust="spacing" textLength="142.4541" x="82.03" y="112.8857">remove(String path)</text></g><!--class PathTrieNode--><g class="entity" data-entity="PathTrieNode" data-source-line="1" data-uid="ent0003" id="entity_PathTrieNode"><rect fill="#F1F1F1" height="227.2656" rx="2.5" ry="2.5" style="stroke:#181818;stroke-width:0.5;" width="436.0469" x="7" y="180.18"/><ellipse cx="167.9072" cy="196.18" fill="#ADD1B2" rx="11" ry="11" style="stroke:#181818;stroke-width:1;"/><path d="M170.876,201.8206 Q170.2979,202.1175 169.6572,202.2581 Q169.0166,202.4144 168.3135,202.4144 Q165.8135,202.4144 164.4854,200.7737 Q163.1729,199.1175 163.1729,195.9925 Q163.1729,192.8675 164.4854,191.2112 Q165.8135,189.555 168.3135,189.555 Q169.0166,189.555 169.6572,189.7112 Q170.3135,189.8675 170.876,190.1644 L170.876,192.8831 Q170.251,192.305 169.6572,192.0394 Q169.0635,191.7581 168.4385,191.7581 Q167.0947,191.7581 166.4072,192.8362 Q165.7197,193.8987 165.7197,195.9925 Q165.7197,198.0862 166.4072,199.1644 Q167.0947,200.2269 168.4385,200.2269 Q169.0635,200.2269 169.6572,199.9612 Q170.251,199.68 170.876,199.1019 L170.876,201.8206 Z " fill="#000000"/><rect fill="#F24D5C" height="6" style="stroke:#C82930;stroke-width:1;" width="6" x="190.4072" y="192.68"/><text fill="#000000" font-family="sans-serif" font-size="14" lengthAdjust="spacing" textLength="94.7324" x="199.4072" y="201.0267">PathTrieNode</text><line style="stroke:#181818;stroke-width:0.5;" x1="8" x2="442.0469" y1="212.18" y2="212.18"/><rect fill="none" height="6" style="stroke:#C82930;stroke-width:1;" width="6" x="15" y="222.8284"/><text fill="#000000" font-family="sans-serif" font-size="14" lengthAdjust="spacing" textLength="304.7461" x="27" y="229.1751">previousLevelEndings: List&lt;PathTrieNode&gt;</text><rect fill="none" height="6" style="stroke:#C82930;stroke-width:1;" width="6" x="15" y="239.1253"/><text fill="#000000" font-family="sans-serif" font-size="14" lengthAdjust="spacing" textLength="291.4023" x="27" y="245.472">children: Map&lt;Character, PathTrieNode&gt;</text><rect fill="none" height="6" style="stroke:#C82930;stroke-width:1;" width="6" x="15" y="255.4222"/><text fill="#000000" font-family="sans-serif" font-size="14" lengthAdjust="spacing" textLength="150.0967" x="27" y="261.7689">parent: PathTrieNode</text><line style="stroke:#181818;stroke-width:0.5;" x1="8" x2="442.0469" y1="269.0706" y2="269.0706"/><ellipse cx="18" cy="282.7191" fill="#84BE84" rx="3" ry="3" style="stroke:#038048;stroke-width:1;"/><text fill="#000000" font-family="sans-serif" font-size="14" lengthAdjust="spacing" textLength="328.1797" x="27" y="286.0657">child(char nextCharacterInPath): PathTrieNode</text><ellipse cx="18" cy="299.0159" fill="#84BE84" rx="3" ry="3" style="stroke:#038048;stroke-width:1;"/><text fill="#000000" font-family="sans-serif" font-size="14" lengthAdjust="spacing" textLength="161.0205" x="27" y="302.3626">parent(): PathTrieNode</text><ellipse cx="18" cy="315.3128" fill="#84BE84" rx="3" ry="3" style="stroke:#038048;stroke-width:1;"/><text fill="#000000" font-family="sans-serif" font-size="14" lengthAdjust="spacing" textLength="299.9814" x="27" y="318.6595">search(String pathPrefix, int limit): String[]</text><rect fill="#F24D5C" height="6" style="stroke:#C82930;stroke-width:1;" width="6" x="15" y="328.6097"/><text fill="#000000" font-family="sans-serif" font-size="14" lengthAdjust="spacing" textLength="410.0469" x="27" y="334.9564">search(String pathPrefix, int limit, int indexPrefix): String[]</text><ellipse cx="18" cy="347.9066" fill="#84BE84" rx="3" ry="3" style="stroke:#038048;stroke-width:1;"/><text fill="#000000" font-family="sans-serif" font-size="14" lengthAdjust="spacing" textLength="120.7979" x="27" y="351.2532">add((String path)</text><rect fill="#F24D5C" height="6" style="stroke:#C82930;stroke-width:1;" width="6" x="15" y="361.2034"/><text fill="#000000" font-family="sans-serif" font-size="14" lengthAdjust="spacing" textLength="217.5537" x="27" y="367.5501">add(String path, int pathIndex)</text><ellipse cx="18" cy="380.5003" fill="#84BE84" rx="3" ry="3" style="stroke:#038048;stroke-width:1;"/><text fill="#000000" font-family="sans-serif" font-size="14" lengthAdjust="spacing" textLength="142.4541" x="27" y="383.847">remove(String path)</text><rect fill="#F24D5C" height="6" style="stroke:#C82930;stroke-width:1;" width="6" x="15" y="393.7972"/><text fill="#000000" font-family="sans-serif" font-size="14" lengthAdjust="spacing" textLength="244.6719" x="27" y="400.1439">remove(String path, int pathIndex)</text></g><!--reverse link PathTrie to PathTrieNode--><g class="link" data-entity-1="PathTrie" data-entity-2="PathTrieNode" data-source-line="1" data-uid="lnk4" id="link_PathTrie_PathTrieNode"><path codeLine="1" d="M225.02,132.42 C225.02,150.5 225.02,159.25 225.02,179.94" fill="none" id="PathTrie-backto-PathTrieNode" style="stroke:#181818;stroke-width:1;"/><polygon fill="#181818" points="225.02,120.42,221.02,126.42,225.02,132.42,229.02,126.42,225.02,120.42" style="stroke:#181818;stroke-width:1;"/></g><!--SRC=[bPBBJiCm44Nt_efP9hIfe3o4eWeXse9QKeZeOuDOkCcqiKZ6aUE48jH_nr42z8K4NjbpxpqQs-Dp7KsKG3Xo7F3hmuCCaJ4dY7cMRHNXWu5P3gGA2o7ppCC2upw5WfQP2vx8T6VJVrNRWqZ4eK9oOSJJJZVYYWSQLHCEcLDkdDhTxgQK6XN72amU25Vw6pIWqcmVp5Guwx2O8LT1P8srCZSmLXtv2XTYrGH16cAH26s2bVpyKZVuXr2r5HJYgj9sAGtWOMXjCkoQNjOtoXMft0rAcbsd5IQom4FvVMKFiMQiiVsvvSUQg9Hxx_x_DshiNi5clpIyPjT8OPumviUSz7JaGO4g4vBWfDK-Rf-tJkUe-RarfLUIRmI1J58H8sYHeCsiEz-3JEOgG0ZDw2anpxK9ssp82mvFEPK-5nvJf67l_gi0VIg4afIOiM33sUZ7S77ct0WDOrIc3PYDM0yNF8-rIGIod74NffDRvv9vd9OvNnes4kjAmrNlHXj_0W00]--></g></svg>