<svg xmlns="http://www.w3.org/2000/svg" contentStyleType="text/css" data-diagram-type="DESCRIPTION" height="500px" preserveAspectRatio="none" style="width:960px;height:500px;background:#FFFFFF;" version="1.1" viewBox="0 0 960 500" width="960px">
  <defs>
    <marker id="arrow" markerHeight="8" markerWidth="8" orient="auto" refX="7" refY="4">
      <path d="M0,0 L8,4 L0,8 Z" fill="#181818"/>
    </marker>
    <marker id="open-arrow" markerHeight="8" markerWidth="8" orient="auto" refX="7" refY="4">
      <path d="M0,0 L8,4 L0,8" fill="none" stroke="#181818" stroke-width="1"/>
    </marker>
  </defs>
  <g font-family="sans-serif" fill="#000000" stroke="#181818">
    <text x="480" y="28" text-anchor="middle" font-size="14" font-weight="bold" stroke="none">Use Case Diagram</text>

    <g id="actor-user" stroke-width="0.8">
      <ellipse cx="55" cy="198" rx="8" ry="8" fill="#F1F1F1"/>
      <line x1="55" y1="206" x2="55" y2="238"/>
      <line x1="37" y1="218" x2="73" y2="218"/>
      <line x1="55" y1="238" x2="39" y2="260"/>
      <line x1="55" y1="238" x2="71" y2="260"/>
      <text x="55" y="282" text-anchor="middle" font-size="14" stroke="none">User</text>
    </g>

    <g id="uc-search">
      <ellipse cx="792" cy="112" rx="88" ry="36" fill="#F1F1F1" stroke-width="0.5"/>
      <text x="792" y="109" text-anchor="middle" font-size="14" stroke="none">Searching for</text>
      <text x="792" y="127" text-anchor="middle" font-size="14" stroke="none">a file</text>
    </g>

    <g id="uc-relationship">
      <ellipse cx="394" cy="86" rx="118" ry="25" fill="#F1F1F1" stroke-width="0.5"/>
      <text x="394" y="91" text-anchor="middle" font-size="14" stroke="none">Relationship manipulation</text>
    </g>

    <g id="uc-tag">
      <ellipse cx="394" cy="156" rx="96" ry="25" fill="#F1F1F1" stroke-width="0.5"/>
      <text x="394" y="161" text-anchor="middle" font-size="14" stroke="none">Tag manipulation</text>
    </g>

    <g id="uc-file">
      <ellipse cx="394" cy="226" rx="96" ry="25" fill="#F1F1F1" stroke-width="0.5"/>
      <text x="394" y="231" text-anchor="middle" font-size="14" stroke="none">File manipulation</text>
    </g>

    <g id="uc-dsl">
      <ellipse cx="394" cy="310" rx="104" ry="36" fill="#F1F1F1" stroke-width="0.5"/>
      <text x="394" y="307" text-anchor="middle" font-size="14" stroke="none">Complex DSL</text>
      <text x="394" y="325" text-anchor="middle" font-size="14" stroke="none">query construction</text>
    </g>

    <g id="uc-autocomplete">
      <ellipse cx="168" cy="396" rx="96" ry="36" fill="#F1F1F1" stroke-width="0.5"/>
      <text x="168" y="393" text-anchor="middle" font-size="14" stroke="none">Command</text>
      <text x="168" y="411" text-anchor="middle" font-size="14" stroke="none">auto-completion</text>
    </g>

    <g id="uc-remote">
      <ellipse cx="792" cy="238" rx="88" ry="25" fill="#F1F1F1" stroke-width="0.5"/>
      <text x="792" y="243" text-anchor="middle" font-size="14" stroke="none">Remote access</text>
    </g>

    <line x1="78" y1="211" x2="704" y2="112" stroke-width="1" marker-end="url(#arrow)"/>
    <line x1="78" y1="216" x2="276" y2="86" stroke-width="1" marker-end="url(#arrow)"/>
    <line x1="78" y1="222" x2="298" y2="156" stroke-width="1" marker-end="url(#arrow)"/>
    <line x1="78" y1="229" x2="298" y2="226" stroke-width="1" marker-end="url(#arrow)"/>
    <line x1="78" y1="240" x2="300" y2="302" stroke-width="1" marker-end="url(#arrow)"/>
    <line x1="67" y1="263" x2="102" y2="368" stroke-width="1" marker-end="url(#arrow)"/>
    <line x1="78" y1="233" x2="704" y2="238" stroke-width="1" marker-end="url(#arrow)"/>

    <line x1="512" y1="86" x2="704" y2="104" stroke-width="1" stroke-dasharray="7,7" marker-end="url(#open-arrow)"/>
    <text x="596" y="84" text-anchor="middle" font-size="13" stroke="none">&lt;&lt;extend&gt;&gt;</text>
    <line x1="490" y1="154" x2="706" y2="124" stroke-width="1" stroke-dasharray="7,7" marker-end="url(#open-arrow)"/>
    <text x="594" y="154" text-anchor="middle" font-size="13" stroke="none">&lt;&lt;extend&gt;&gt;</text>
    <line x1="488" y1="219" x2="714" y2="134" stroke-width="1" stroke-dasharray="7,7" marker-end="url(#open-arrow)"/>
    <text x="598" y="199" text-anchor="middle" font-size="13" stroke="none">&lt;&lt;extend&gt;&gt;</text>
    <line x1="488" y1="296" x2="724" y2="142" stroke-width="1" stroke-dasharray="7,7" marker-end="url(#open-arrow)"/>
    <text x="612" y="264" text-anchor="middle" font-size="13" stroke="none">&lt;&lt;extend&gt;&gt;</text>
    <line x1="704" y1="222" x2="760" y2="148" stroke-width="1" stroke-dasharray="7,7" marker-end="url(#open-arrow)"/>
    <text x="708" y="184" text-anchor="middle" font-size="13" stroke="none">&lt;&lt;extend&gt;&gt;</text>
    <line x1="264" y1="384" x2="304" y2="336" stroke-width="1" stroke-dasharray="7,7" marker-end="url(#open-arrow)"/>
    <text x="312" y="374" text-anchor="middle" font-size="13" stroke="none">&lt;&lt;extend&gt;&gt;</text>
  </g>
</svg>
