<svg xmlns="http://www.w3.org/2000/svg" xmlns:xlink="http://www.w3.org/1999/xlink" contentStyleType="text/css" data-diagram-type="DESCRIPTION" height="289px" preserveAspectRatio="none" style="width:541px;height:289px;background:#FFFFFF;" version="1.1" viewBox="0 0 541 289" width="541px" zoomAndPan="magnify"><title>Use Case Diagram</title><defs/><g><g class="title" data-source-line="1"><text fill="#000000" font-family="sans-serif" font-size="14" font-weight="bold" lengthAdjust="spacing" textLength="125.9715" x="200.958" y="24.9659">Use Case Diagram</text></g><!--entity User--><g class="entity" data-entity="User" data-source-line="5" data-uid="ent0002" id="entity_User"><ellipse cx="21.3089" cy="116.7879" fill="#F1F1F1" rx="8" ry="8" style="stroke:#181818;stroke-width:0.5;"/><path d="M21.3089,124.7879 L21.3089,151.7879 M8.3089,132.7879 L34.3089,132.7879 M21.3089,151.7879 L8.3089,166.7879 M21.3089,151.7879 L34.3089,166.7879" fill="none" style="stroke:#181818;stroke-width:0.5;"/><text fill="#000000" font-family="sans-serif" font-size="14" lengthAdjust="spacing" textLength="30.6179" x="6" y="183.2539">User</text></g><!--entity UC1--><g class="entity" data-entity="UC1" data-source-line="7" data-uid="ent0003" id="entity_UC1"><ellipse cx="476.9288" cy="152.8311" fill="#F1F1F1" rx="58.9588" ry="27.2032" style="stroke:#181818;stroke-width:0.5;"/><text fill="#000000" font-family="sans-serif" font-size="14" lengthAdjust="spacing" textLength="88.1717" x="432.8429" y="153.4924">Searching for</text><text fill="#000000" font-family="sans-serif" font-size="14" lengthAdjust="spacing" textLength="31.4299" x="461.2138" y="172.5603">a file</text></g><!--entity UC2--><g class="entity" data-entity="UC2" data-source-line="8" data-uid="ent0004" id="entity_UC2"><ellipse cx="199.2987" cy="118.8237" fill="#F1F1F1" rx="101.6787" ry="22.7357" style="stroke:#181818;stroke-width:0.5;"/><text fill="#000000" font-family="sans-serif" font-size="14" lengthAdjust="spacing" textLength="172.8013" x="112.898" y="124.8576">Relationship manipulation</text></g><!--entity UC3--><g class="entity" data-entity="UC3" data-source-line="9" data-uid="ent0005" id="entity_UC3"><ellipse cx="199.2961" cy="194.8231" fill="#F1F1F1" rx="77.9261" ry="17.9852" style="stroke:#181818;stroke-width:0.5;"/><text fill="#000000" font-family="sans-serif" font-size="14" lengthAdjust="spacing" textLength="115.6116" x="141.4903" y="200.8571">Tag manipulation</text></g><!--entity UC4--><g class="entity" data-entity="UC4" data-source-line="10" data-uid="ent0006" id="entity_UC4"><ellipse cx="199.3002" cy="265.83" fill="#F1F1F1" rx="77.2102" ry="17.842" style="stroke:#181818;stroke-width:0.5;"/><text fill="#000000" font-family="sans-serif" font-size="14" lengthAdjust="spacing" textLength="113.7496" x="142.4254" y="271.8639">File manipulation</text></g><!--link User to UC1--><g class="link" data-entity-1="User" data-entity-2="UC1" data-source-line="13" data-uid="lnk7" id="link_User_UC1"><path d="M37.06,127.7479 C50.66,111.0879 72.5,88.5979 97.62,78.8279 C181.85,46.0679 211.84,63.8879 300.98,78.8279 C351.55,87.2979 399.9699,109.9197 434.3299,128.6197" fill="none" id="User-to-UC1" style="stroke:#181818;stroke-width:1;"/><polygon fill="#181818" points="439.6,131.4879,433.607,123.6723,435.2083,129.0978,429.7828,130.699,439.6,131.4879" style="stroke:#181818;stroke-width:1;"/></g><!--link User to UC2--><g class="link" data-entity-1="User" data-entity-2="UC2" data-source-line="14" data-uid="lnk8" id="link_User_UC2"><path d="M37.01,145.4079 C54.77,142.4779 80.1396,138.2923 110.4596,133.3023" fill="none" id="User-to-UC2" style="stroke:#181818;stroke-width:1;"/><polygon fill="#181818" points="116.38,132.3279,106.8499,129.8426,111.4464,133.1399,108.149,137.7364,116.38,132.3279" style="stroke:#181818;stroke-width:1;"/></g><!--link User to UC3--><g class="link" data-entity-1="User" data-entity-2="UC3" data-source-line="15" data-uid="lnk9" id="link_User_UC3"><path d="M37.01,151.7479 C60.97,158.1479 103.7334,169.569 141.3434,179.619" fill="none" id="User-to-UC3" style="stroke:#181818;stroke-width:1;"/><polygon fill="#181818" points="147.14,181.1679,139.4777,174.9801,142.3095,179.8771,137.4124,182.7089,147.14,181.1679" style="stroke:#181818;stroke-width:1;"/></g><!--link User to UC4--><g class="link" data-entity-1="User" data-entity-2="UC4" data-source-line="16" data-uid="lnk10" id="link_User_UC4"><path d="M37.1,169.0279 C50.89,187.3779 72.97,213.4779 97.62,229.8279 C112.24,239.5179 124.0974,245.0424 140.4174,250.5724" fill="none" id="User-to-UC4" style="stroke:#181818;stroke-width:1;"/><polygon fill="#181818" points="146.1,252.4979,138.8598,245.8212,141.3645,250.8933,136.2924,253.398,146.1,252.4979" style="stroke:#181818;stroke-width:1;"/></g><!--link UC2 to UC1--><g class="link" data-entity-1="UC2" data-entity-2="UC1" data-source-line="18" data-uid="lnk11" id="link_UC2_UC1"><path d="M289.03,129.7679 C331.83,135.0479 375.9551,140.4935 413.4951,145.1235" fill="none" id="UC2-to-UC1" style="stroke:#181818;stroke-width:1;stroke-dasharray:7,7;"/><polygon fill="#181818" points="419.45,145.8579,411.0073,140.7863,414.4876,145.2459,410.0281,148.7262,419.45,145.8579" style="stroke:#181818;stroke-width:1;"/><text fill="#000000" font-family="sans-serif" font-size="13" lengthAdjust="spacing" textLength="55.497" x="331.98" y="131.7249">&#171;extend&#187;</text></g><!--link UC3 to UC1--><g class="link" data-entity-1="UC3" data-entity-2="UC1" data-source-line="19" data-uid="lnk12" id="link_UC3_UC1"><path d="M268.16,186.1279 C303.87,181.3779 348.35,175.1679 387.98,168.8279 C399.01,167.0579 404.8946,166.0792 416.1346,164.0592" fill="none" id="UC3-to-UC1" style="stroke:#181818;stroke-width:1;stroke-dasharray:7,7;"/><polygon fill="#181818" points="422.04,162.9979,412.4744,160.6529,417.1188,163.8823,413.8894,168.5268,422.04,162.9979" style="stroke:#181818;stroke-width:1;"/><text fill="#000000" font-family="sans-serif" font-size="13" lengthAdjust="spacing" textLength="55.497" x="331.98" y="164.7249">&#171;extend&#187;</text></g><!--link UC4 to UC1--><g class="link" data-entity-1="UC4" data-entity-2="UC1" data-source-line="20" data-uid="lnk13" id="link_UC4_UC1"><path d="M251.62,252.4479 C289.99,241.6579 343.32,224.9879 387.98,204.8279 C406.57,196.4279 421.1158,188.2579 437.1058,178.3079" fill="none" id="UC4-to-UC1" style="stroke:#181818;stroke-width:1;stroke-dasharray:7,7;"/><polygon fill="#181818" points="442.2,175.1379,432.4453,176.4967,437.9548,177.7796,436.6719,183.289,442.2,175.1379" style="stroke:#181818;stroke-width:1;"/><text fill="#000000" font-family="sans-serif" font-size="13" lengthAdjust="spacing" textLength="55.497" x="331.98" y="200.7249">&#171;extend&#187;</text></g><!--SRC=[TOwn3eCm34HtVuN53bA1gK8iLFs05hOk5fXW2H8KWjJFRq8NgCfYwNplxAl5ZOpDmbYH7pSXPMa26Bbtw0nQKOF3JYotJem6eDOP6m8MO5su3QcckY0j63sPR3k8LjWR-zA4lOmSxR1qmnuyKZYs33BZH5hczRlOezc6rgHEYNmZxlx53m8GwY76SHcg7LHwKDb1vJxeAoR95iCh5WM_7UkkB24KEZ7o_yO7]--></g></svg>