<svg xmlns="http://www.w3.org/2000/svg" xmlns:xlink="http://www.w3.org/1999/xlink" contentStyleType="text/css" data-diagram-type="ACTIVITY" height="509px" preserveAspectRatio="none" style="width:921px;height:509px;background:#FFFFFF;" version="1.1" viewBox="0 0 921 509" width="921px" zoomAndPan="magnify"><defs/><g><ellipse cx="502.5896" cy="20" fill="#222222" rx="10" ry="10" style="stroke:#222222;stroke-width:1;"/><rect fill="#F1F1F1" height="36.3441" rx="12.5" ry="12.5" style="stroke:#181818;stroke-width:0.5;" width="198.0213" x="403.5789" y="50"/><text fill="#000000" font-family="sans-serif" font-size="12" lengthAdjust="spacing" textLength="178.0213" x="413.5789" y="72.8281">The user opens the file browser</text><polygon fill="#F1F1F1" points="423.9071,106.3441,581.272,106.3441,593.272,118.3441,581.272,130.3441,423.9071,130.3441,411.9071,118.3441,423.9071,106.3441" style="stroke:#181818;stroke-width:0.5;"/><text fill="#000000" font-family="sans-serif" font-size="11" lengthAdjust="spacing" textLength="157.3649" x="423.9071" y="122.6121">Does the user want to use GUI</text><text fill="#000000" font-family="sans-serif" font-size="11" lengthAdjust="spacing" textLength="17.6989" x="394.2083" y="115.1211">Yes</text><text fill="#000000" font-family="sans-serif" font-size="11" lengthAdjust="spacing" textLength="15.0149" x="593.272" y="115.1211">No</text><rect fill="#F1F1F1" height="36.3441" rx="12.5" ry="12.5" style="stroke:#181818;stroke-width:0.5;" width="171.4051" x="195.7762" y="140.3441"/><text fill="#000000" font-family="sans-serif" font-size="12" lengthAdjust="spacing" textLength="151.4051" x="205.7762" y="163.1722">The user searches for a file</text><rect fill="#F1F1F1" height="36.3441" rx="12.5" ry="12.5" style="stroke:#181818;stroke-width:0.5;" width="287.17" x="137.8937" y="196.6882"/><text fill="#000000" font-family="sans-serif" font-size="12" lengthAdjust="spacing" textLength="267.17" x="147.8937" y="219.5163">The user selects "Add relationship" in the menu</text><rect fill="#F1F1F1" height="52.6882" rx="12.5" ry="12.5" style="stroke:#181818;stroke-width:0.5;" width="254.5897" x="154.1839" y="253.0323"/><text fill="#000000" font-family="sans-serif" font-size="12" lengthAdjust="spacing" textLength="218.2216" x="164.1839" y="275.8604">The system displays a menu where the</text><text fill="#000000" font-family="sans-serif" font-size="12" lengthAdjust="spacing" textLength="234.5897" x="164.1839" y="292.2045">user can enter info about the relationship</text><polygon fill="#F1F1F1" points="211.9592,325.7206,350.9982,325.7206,362.9982,337.7206,350.9982,349.7206,211.9592,349.7206,199.9592,337.7206,211.9592,325.7206" style="stroke:#181818;stroke-width:0.5;"/><text fill="#000000" font-family="sans-serif" font-size="11" lengthAdjust="spacing" textLength="139.039" x="211.9592" y="341.9885">Does user want to proceed</text><text fill="#000000" font-family="sans-serif" font-size="11" lengthAdjust="spacing" textLength="17.6989" x="182.2603" y="334.4976">Yes</text><text fill="#000000" font-family="sans-serif" font-size="11" lengthAdjust="spacing" textLength="15.0149" x="362.9982" y="334.4976">No</text><rect fill="#F1F1F1" height="36.3441" rx="12.5" ry="12.5" style="stroke:#181818;stroke-width:0.5;" width="282.8979" x="11" y="359.7206"/><text fill="#000000" font-family="sans-serif" font-size="12" lengthAdjust="spacing" textLength="262.8979" x="21" y="382.5487">The user enters the information and submits it</text><rect fill="#F1F1F1" height="36.3441" rx="12.5" ry="12.5" style="stroke:#181818;stroke-width:0.5;" width="193.2212" x="313.8979" y="359.7206"/><text fill="#000000" font-family="sans-serif" font-size="12" lengthAdjust="spacing" textLength="173.2212" x="323.8979" y="382.5487">The user cancels the operation</text><polygon fill="#F1F1F1" points="281.4787,402.0647,293.4787,414.0647,281.4787,426.0647,269.4787,414.0647,281.4787,402.0647" style="stroke:#181818;stroke-width:0.5;"/><rect fill="#F1F1F1" height="36.3441" rx="12.5" ry="12.5" style="stroke:#181818;stroke-width:0.5;" width="373.1625" x="537.1191" y="140.3441"/><text fill="#000000" font-family="sans-serif" font-size="12" lengthAdjust="spacing" textLength="353.1625" x="547.1191" y="163.1722">The user issues the DSL command to create a new relationship</text><polygon fill="#F1F1F1" points="502.5896,432.0647,514.5896,444.0647,502.5896,456.0647,490.5896,444.0647,502.5896,432.0647" style="stroke:#181818;stroke-width:0.5;"/><ellipse cx="502.5896" cy="487.0647" fill="none" rx="11" ry="11" style="stroke:#222222;stroke-width:1;"/><ellipse cx="502.5896" cy="487.0647" fill="#222222" rx="6" ry="6" style="stroke:#222222;stroke-width:1;"/><line style="stroke:#181818;stroke-width:1;" x1="502.5896" x2="502.5896" y1="30" y2="50"/><polygon fill="#181818" points="498.5896,40,502.5896,50,506.5896,40,502.5896,44" style="stroke:#181818;stroke-width:1;"/><line style="stroke:#181818;stroke-width:1;" x1="281.4787" x2="281.4787" y1="176.6882" y2="196.6882"/><polygon fill="#181818" points="277.4787,186.6882,281.4787,196.6882,285.4787,186.6882,281.4787,190.6882" style="stroke:#181818;stroke-width:1;"/><line style="stroke:#181818;stroke-width:1;" x1="281.4787" x2="281.4787" y1="233.0323" y2="253.0323"/><polygon fill="#181818" points="277.4787,243.0323,281.4787,253.0323,285.4787,243.0323,281.4787,247.0323" style="stroke:#181818;stroke-width:1;"/><line style="stroke:#181818;stroke-width:1;" x1="199.9592" x2="152.4489" y1="337.7206" y2="337.7206"/><line style="stroke:#181818;stroke-width:1;" x1="152.4489" x2="152.4489" y1="337.7206" y2="359.7206"/><polygon fill="#181818" points="148.4489,349.7206,152.4489,359.7206,156.4489,349.7206,152.4489,353.7206" style="stroke:#181818;stroke-width:1;"/><line style="stroke:#181818;stroke-width:1;" x1="362.9982" x2="410.5085" y1="337.7206" y2="337.7206"/><line style="stroke:#181818;stroke-width:1;" x1="410.5085" x2="410.5085" y1="337.7206" y2="359.7206"/><polygon fill="#181818" points="406.5085,349.7206,410.5085,359.7206,414.5085,349.7206,410.5085,353.7206" style="stroke:#181818;stroke-width:1;"/><line style="stroke:#181818;stroke-width:1;" x1="152.4489" x2="152.4489" y1="396.0647" y2="414.0647"/><line style="stroke:#181818;stroke-width:1;" x1="152.4489" x2="269.4787" y1="414.0647" y2="414.0647"/><polygon fill="#181818" points="259.4787,410.0647,269.4787,414.0647,259.4787,418.0647,263.4787,414.0647" style="stroke:#181818;stroke-width:1;"/><line style="stroke:#181818;stroke-width:1;" x1="410.5085" x2="410.5085" y1="396.0647" y2="414.0647"/><line style="stroke:#181818;stroke-width:1;" x1="410.5085" x2="293.4787" y1="414.0647" y2="414.0647"/><polygon fill="#181818" points="303.4787,410.0647,293.4787,414.0647,303.4787,418.0647,299.4787,414.0647" style="stroke:#181818;stroke-width:1;"/><line style="stroke:#181818;stroke-width:1;" x1="281.4787" x2="281.4787" y1="305.7206" y2="325.7206"/><polygon fill="#181818" points="277.4787,315.7206,281.4787,325.7206,285.4787,315.7206,281.4787,319.7206" style="stroke:#181818;stroke-width:1;"/><line style="stroke:#181818;stroke-width:1;" x1="411.9071" x2="281.4787" y1="118.3441" y2="118.3441"/><line style="stroke:#181818;stroke-width:1;" x1="281.4787" x2="281.4787" y1="118.3441" y2="140.3441"/><polygon fill="#181818" points="277.4787,130.3441,281.4787,140.3441,285.4787,130.3441,281.4787,134.3441" style="stroke:#181818;stroke-width:1;"/><line style="stroke:#181818;stroke-width:1;" x1="593.272" x2="723.7004" y1="118.3441" y2="118.3441"/><line style="stroke:#181818;stroke-width:1;" x1="723.7004" x2="723.7004" y1="118.3441" y2="140.3441"/><polygon fill="#181818" points="719.7004,130.3441,723.7004,140.3441,727.7004,130.3441,723.7004,134.3441" style="stroke:#181818;stroke-width:1;"/><line style="stroke:#181818;stroke-width:1;" x1="281.4787" x2="281.4787" y1="426.0647" y2="444.0647"/><line style="stroke:#181818;stroke-width:1;" x1="281.4787" x2="490.5896" y1="444.0647" y2="444.0647"/><polygon fill="#181818" points="480.5896,440.0647,490.5896,444.0647,480.5896,448.0647,484.5896,444.0647" style="stroke:#181818;stroke-width:1;"/><line style="stroke:#181818;stroke-width:1;" x1="723.7004" x2="723.7004" y1="176.6882" y2="444.0647"/><line style="stroke:#181818;stroke-width:1;" x1="723.7004" x2="514.5896" y1="444.0647" y2="444.0647"/><polygon fill="#181818" points="524.5896,440.0647,514.5896,444.0647,524.5896,448.0647,520.5896,444.0647" style="stroke:#181818;stroke-width:1;"/><line style="stroke:#181818;stroke-width:1;" x1="502.5896" x2="502.5896" y1="86.3441" y2="106.3441"/><polygon fill="#181818" points="498.5896,96.3441,502.5896,106.3441,506.5896,96.3441,502.5896,100.3441" style="stroke:#181818;stroke-width:1;"/><line style="stroke:#181818;stroke-width:1;" x1="502.5896" x2="502.5896" y1="456.0647" y2="476.0647"/><polygon fill="#181818" points="498.5896,466.0647,502.5896,476.0647,506.5896,466.0647,502.5896,470.0647" style="stroke:#181818;stroke-width:1;"/><!--SRC=[TP2nQiGm38RtF8MuAVSApLGuA8NIfRsXqCMn5MA8fI0fX7lxAiuDkT9kbd_zd_HBBOWrJvyZmg8em3EIWdavv0cX5rxzkslo0Es5SPTgvnh8m7WhuENwUjuKWlOBzNpWAGQ9e_i65WWLsZt84qPJE3sd189JiCoaOvvFaAdEAaZBtQ4tDIoGiivJkAdZDX7M4GLhxpTLQ0m4IEQlJ0D3w7cngXy7728zn9c58sBw9qx5xaVOs58g3m8bqAKlsQDawngS_2ZjEn-jlbNq_-hrAqjrUYkbFFnfoAhB_U2NZpU8NCesntUCWi7GynEklqBjE3MUVm00]--></g></svg>