<?xml version="1.0" encoding="UTF-8" standalone="no"?>
<!DOCTYPE svg PUBLIC "-//W3C//DTD SVG 1.1//EN"
 "http://www.w3.org/Graphics/SVG/1.1/DTD/svg11.dtd">
<!-- Generated by graphviz version 15.0.0 (20260523.1842)
 -->
<!-- Title: GraphleContainers Pages: 1 -->
<svg width="1417pt" height="367pt"
 viewBox="0.00 0.00 1417.00 367.00" xmlns="http://www.w3.org/2000/svg" xmlns:xlink="http://www.w3.org/1999/xlink">
<g id="graph0" class="graph" transform="scale(1 1) rotate(0) translate(18 348.87)">
<title>GraphleContainers</title>
<polygon fill="white" stroke="none" points="-18,18 -18,-348.87 1399.14,-348.87 1399.14,18 -18,18"/>
<g id="clust1" class="cluster">
<title>cluster_graphle</title>
<path fill="white" stroke="#90a4ae" stroke-dasharray="5,2" d="M345.91,-111.29C345.91,-111.29 1028.48,-111.29 1028.48,-111.29 1034.48,-111.29 1040.48,-117.29 1040.48,-123.29 1040.48,-123.29 1040.48,-252.29 1040.48,-252.29 1040.48,-258.29 1034.48,-264.29 1028.48,-264.29 1028.48,-264.29 345.91,-264.29 345.91,-264.29 339.91,-264.29 333.91,-258.29 333.91,-252.29 333.91,-252.29 333.91,-123.29 333.91,-123.29 333.91,-117.29 339.91,-111.29 345.91,-111.29"/>
<text xml:space="preserve" text-anchor="middle" x="687.19" y="-247.94" font-family="Arial" font-size="13.00">Graphle</text>
</g>
<!-- user&#45;&gt;dsl_client -->
<g id="edge2" class="edge">
<title>user&#45;&gt;dsl_client</title>
<path fill="none" stroke="#546e7a" stroke-width="1.2" d="M175.99,-98.19C196.95,-92.65 213.41,-88.29 213.41,-88.29 213.41,-88.29 307.09,-77.11 381.92,-68.18"/>
<polygon fill="#546e7a" stroke="#546e7a" stroke-width="1.2" points="382,-70.81 389.14,-67.31 381.38,-65.6 382,-70.81"/>
<text xml:space="preserve" text-anchor="middle" x="263.66" y="-90.79" font-family="Arial" font-size="10.00">automates commands</text>
</g>
<!-- user&#45;&gt;graphle_ui -->
<g id="edge1" class="edge">
<title>user&#45;&gt;graphle_ui</title>
<path fill="none" stroke="#546e7a" stroke-width="1.2" d="M175.93,-136.04C225.04,-144.34 287.32,-154.87 342.17,-164.15"/>
<polygon fill="#546e7a" stroke="#546e7a" stroke-width="1.2" points="341.64,-166.72 349.47,-165.38 342.51,-161.54 341.64,-166.72"/>
<text xml:space="preserve" text-anchor="middle" x="263.66" y="-160.18" font-family="Arial" font-size="10.00">browses and edits files</text>
</g>
<!-- dsl_client&#45;&gt;graphle_manager -->
<g id="edge4" class="edge">
<title>dsl_client&#45;&gt;graphle_manager</title>
<path fill="none" stroke="#546e7a" stroke-width="1.2" d="M557.48,-80.24C619.09,-97.4 704.48,-121.19 774.87,-140.8"/>
<polygon fill="#546e7a" stroke="#546e7a" stroke-width="1.2" points="774.14,-143.32 782.07,-142.8 775.55,-138.26 774.14,-143.32"/>
<text xml:space="preserve" text-anchor="middle" x="690.19" y="-133.45" font-family="Arial" font-size="10.00">POST /dsl</text>
</g>
<!-- graphle_ui&#45;&gt;graphle_manager -->
<g id="edge3" class="edge">
<title>graphle_ui&#45;&gt;graphle_manager</title>
<path fill="none" stroke="#546e7a" stroke-width="1.2" d="M596.95,-183.44C652.43,-182.14 718.1,-180.6 774.3,-179.29"/>
<polygon fill="#546e7a" stroke="#546e7a" stroke-width="1.2" points="774.34,-181.91 781.78,-179.11 774.22,-176.66 774.34,-181.91"/>
<text xml:space="preserve" text-anchor="middle" x="690.19" y="-208.98" font-family="Arial" font-size="10.00">/graphql GraphQL</text>
<text xml:space="preserve" text-anchor="middle" x="690.19" y="-196.98" font-family="Arial" font-size="10.00">/dsl and /download REST</text>
<text xml:space="preserve" text-anchor="middle" x="690.19" y="-184.98" font-family="Arial" font-size="10.00">/ws WebSocket</text>
</g>
<!-- graphle_manager&#45;&gt;filesystem -->
<g id="edge5" class="edge">
<title>graphle_manager&#45;&gt;filesystem</title>
<path fill="none" stroke="#546e7a" stroke-width="1.2" d="M1017.32,-212.57C1077,-231.72 1149.28,-254.91 1205.4,-272.92"/>
<polygon fill="#546e7a" stroke="#546e7a" stroke-width="1.2" points="1204.59,-275.42 1212.54,-275.21 1206.2,-270.42 1204.59,-275.42"/>
<text xml:space="preserve" text-anchor="middle" x="1118.6" y="-276.04" font-family="Arial" font-size="10.00">java.nio.file</text>
<text xml:space="preserve" text-anchor="middle" x="1118.6" y="-264.04" font-family="Arial" font-size="10.00">read/write/move/delete</text>
</g>
<!-- graphle_manager&#45;&gt;neo4j -->
<g id="edge6" class="edge">
<title>graphle_manager&#45;&gt;neo4j</title>
<path fill="none" stroke="#546e7a" stroke-width="1.2" d="M1022.88,-176.29C1086.62,-176.29 1163.38,-176.29 1219.43,-176.29"/>
<polygon fill="#546e7a" stroke="#546e7a" stroke-width="1.2" points="1219.27,-178.92 1226.77,-176.29 1219.27,-173.67 1219.27,-178.92"/>
<text xml:space="preserve" text-anchor="middle" x="1118.6" y="-178.79" font-family="Arial" font-size="10.00">Bolt via Spring Data Neo4j</text>
</g>
<!-- graphle_manager&#45;&gt;valkey -->
<g id="edge7" class="edge">
<title>graphle_manager&#45;&gt;valkey</title>
<path fill="none" stroke="#546e7a" stroke-width="1.2" d="M1008.21,-140.03C1073.29,-117.32 1155.91,-88.5 1216.08,-67.5"/>
<polygon fill="#546e7a" stroke="#546e7a" stroke-width="1.2" points="1216.86,-70.01 1223.07,-65.06 1215.13,-65.05 1216.86,-70.01"/>
<text xml:space="preserve" text-anchor="middle" x="1118.6" y="-134.56" font-family="Arial" font-size="10.00">Valkey client</text>
<text xml:space="preserve" text-anchor="middle" x="1118.6" y="-122.56" font-family="Arial" font-size="10.00">trie reads/writes</text>
</g>
<!-- user -->
<g id="node1" class="node">
<title>user</title>
<path fill="#fff7dd" stroke="#8a6d3b" stroke-width="1.3" d="M163.41,-156.99C163.41,-156.99 12,-156.99 12,-156.99 6,-156.99 0,-150.99 0,-144.99 0,-144.99 0,-97.59 0,-97.59 0,-91.59 6,-85.59 12,-85.59 12,-85.59 163.41,-85.59 163.41,-85.59 169.41,-85.59 175.41,-91.59 175.41,-97.59 175.41,-97.59 175.41,-144.99 175.41,-144.99 175.41,-150.99 169.41,-156.99 163.41,-156.99"/>
<text xml:space="preserve" text-anchor="middle" x="87.7" y="-138.39" font-family="Arial" font-size="12.00">User</text>
<text xml:space="preserve" text-anchor="middle" x="87.7" y="-124.14" font-family="Arial" font-size="12.00">[Person]</text>
<text xml:space="preserve" text-anchor="middle" x="87.7" y="-109.89" font-family="Arial" font-size="12.00">Uses graphical browsing and</text>
<text xml:space="preserve" text-anchor="middle" x="87.7" y="-95.64" font-family="Arial" font-size="12.00">DSL&#45;based commands.</text>
</g>
<!-- dsl_client -->
<g id="node2" class="node">
<title>dsl_client</title>
<path fill="#fff7dd" stroke="#8a6d3b" stroke-width="1.3" d="M544.94,-92.99C544.94,-92.99 403.28,-92.99 403.28,-92.99 397.28,-92.99 391.28,-86.99 391.28,-80.99 391.28,-80.99 391.28,-33.59 391.28,-33.59 391.28,-27.59 397.28,-21.59 403.28,-21.59 403.28,-21.59 544.94,-21.59 544.94,-21.59 550.94,-21.59 556.94,-27.59 556.94,-33.59 556.94,-33.59 556.94,-80.99 556.94,-80.99 556.94,-86.99 550.94,-92.99 544.94,-92.99"/>
<text xml:space="preserve" text-anchor="middle" x="474.11" y="-74.39" font-family="Arial" font-size="12.00">External DSL client</text>
<text xml:space="preserve" text-anchor="middle" x="474.11" y="-60.14" font-family="Arial" font-size="12.00">[Optional REST client]</text>
<text xml:space="preserve" text-anchor="middle" x="474.11" y="-45.89" font-family="Arial" font-size="12.00">Script or command&#45;line tool</text>
<text xml:space="preserve" text-anchor="middle" x="474.11" y="-31.64" font-family="Arial" font-size="12.00">posting DSL commands.</text>
</g>
<!-- graphle_ui -->
<g id="node3" class="node">
<title>graphle_ui</title>
<path fill="#e8f5e9" stroke="#2e7d32" stroke-width="1.3" d="M584.32,-221.99C584.32,-221.99 363.91,-221.99 363.91,-221.99 357.91,-221.99 351.91,-215.99 351.91,-209.99 351.91,-209.99 351.91,-162.59 351.91,-162.59 351.91,-156.59 357.91,-150.59 363.91,-150.59 363.91,-150.59 584.32,-150.59 584.32,-150.59 590.32,-150.59 596.32,-156.59 596.32,-162.59 596.32,-162.59 596.32,-209.99 596.32,-209.99 596.32,-215.99 590.32,-221.99 584.32,-221.99"/>
<text xml:space="preserve" text-anchor="middle" x="474.11" y="-203.39" font-family="Arial" font-size="12.00">GraphleUI</text>
<text xml:space="preserve" text-anchor="middle" x="474.11" y="-189.14" font-family="Arial" font-size="12.00">[Container: Kotlin, Compose Multiplatform]</text>
<text xml:space="preserve" text-anchor="middle" x="474.11" y="-174.89" font-family="Arial" font-size="12.00">Desktop GUI, command line input,</text>
<text xml:space="preserve" text-anchor="middle" x="474.11" y="-160.64" font-family="Arial" font-size="12.00">dialogs, and local display state.</text>
</g>
<!-- graphle_manager -->
<g id="node4" class="node">
<title>graphle_manager</title>
<path fill="#e3f2fd" stroke="#1e5f8f" stroke-width="1.3" d="M1010.48,-211.99C1010.48,-211.99 796.07,-211.99 796.07,-211.99 790.07,-211.99 784.07,-205.99 784.07,-199.99 784.07,-199.99 784.07,-152.59 784.07,-152.59 784.07,-146.59 790.07,-140.59 796.07,-140.59 796.07,-140.59 1010.48,-140.59 1010.48,-140.59 1016.48,-140.59 1022.48,-146.59 1022.48,-152.59 1022.48,-152.59 1022.48,-199.99 1022.48,-199.99 1022.48,-205.99 1016.48,-211.99 1010.48,-211.99"/>
<text xml:space="preserve" text-anchor="middle" x="903.27" y="-193.39" font-family="Arial" font-size="12.00">GraphleManager</text>
<text xml:space="preserve" text-anchor="middle" x="903.27" y="-179.14" font-family="Arial" font-size="12.00">[Container: Kotlin, Spring Boot]</text>
<text xml:space="preserve" text-anchor="middle" x="903.27" y="-164.89" font-family="Arial" font-size="12.00">Backend API, DSL interpreter,</text>
<text xml:space="preserve" text-anchor="middle" x="903.27" y="-150.64" font-family="Arial" font-size="12.00">filesystem coordination, and data access.</text>
</g>
<!-- filesystem -->
<g id="node5" class="node">
<title>filesystem</title>
<path fill="#eeeeee" stroke="#737373" stroke-width="1.3" d="M1369.14,-330.87C1369.14,-330.87 1226.73,-330.87 1226.73,-330.87 1220.73,-330.87 1214.73,-324.87 1214.73,-318.87 1214.73,-318.87 1214.73,-285.72 1214.73,-285.72 1214.73,-279.72 1220.73,-273.72 1226.73,-273.72 1226.73,-273.72 1369.14,-273.72 1369.14,-273.72 1375.14,-273.72 1381.14,-279.72 1381.14,-285.72 1381.14,-285.72 1381.14,-318.87 1381.14,-318.87 1381.14,-324.87 1375.14,-330.87 1369.14,-330.87"/>
<text xml:space="preserve" text-anchor="middle" x="1297.93" y="-312.27" font-family="Arial" font-size="12.00">Operating filesystem</text>
<text xml:space="preserve" text-anchor="middle" x="1297.93" y="-298.02" font-family="Arial" font-size="12.00">[Existing system]</text>
<text xml:space="preserve" text-anchor="middle" x="1297.93" y="-283.77" font-family="Arial" font-size="12.00">File contents and hierarchy.</text>
</g>
<!-- neo4j -->
<g id="node6" class="node">
<title>neo4j</title>
<path fill="#f3e8ff" stroke="#6a3ea1" stroke-width="1.3" d="M1366.89,-208.44C1366.89,-212.38 1335.98,-215.58 1297.93,-215.58 1259.89,-215.58 1228.98,-212.38 1228.98,-208.44 1228.98,-208.44 1228.98,-144.14 1228.98,-144.14 1228.98,-140.2 1259.89,-137 1297.93,-137 1335.98,-137 1366.89,-140.2 1366.89,-144.14 1366.89,-144.14 1366.89,-208.44 1366.89,-208.44"/>
<path fill="none" stroke="#6a3ea1" stroke-width="1.3" d="M1366.89,-208.44C1366.89,-204.5 1335.98,-201.29 1297.93,-201.29 1259.89,-201.29 1228.98,-204.5 1228.98,-208.44"/>
<text xml:space="preserve" text-anchor="middle" x="1297.93" y="-186.27" font-family="Arial" font-size="12.00">Neo4j</text>
<text xml:space="preserve" text-anchor="middle" x="1297.93" y="-172.02" font-family="Arial" font-size="12.00">[Database]</text>
<text xml:space="preserve" text-anchor="middle" x="1297.93" y="-157.77" font-family="Arial" font-size="12.00">Graph metadata store.</text>
</g>
<!-- valkey -->
<g id="node7" class="node">
<title>valkey</title>
<path fill="#f3e8ff" stroke="#6a3ea1" stroke-width="1.3" d="M1370.64,-71.44C1370.64,-75.38 1338.05,-78.58 1297.93,-78.58 1257.82,-78.58 1225.23,-75.38 1225.23,-71.44 1225.23,-71.44 1225.23,-7.14 1225.23,-7.14 1225.23,-3.2 1257.82,0 1297.93,0 1338.05,0 1370.64,-3.2 1370.64,-7.14 1370.64,-7.14 1370.64,-71.44 1370.64,-71.44"/>
<path fill="none" stroke="#6a3ea1" stroke-width="1.3" d="M1370.64,-71.44C1370.64,-67.5 1338.05,-64.29 1297.93,-64.29 1257.82,-64.29 1225.23,-67.5 1225.23,-71.44"/>
<text xml:space="preserve" text-anchor="middle" x="1297.93" y="-49.27" font-family="Arial" font-size="12.00">Valkey</text>
<text xml:space="preserve" text-anchor="middle" x="1297.93" y="-35.02" font-family="Arial" font-size="12.00">[Database]</text>
<text xml:space="preserve" text-anchor="middle" x="1297.93" y="-20.77" font-family="Arial" font-size="12.00">Autocomplete trie store.</text>
</g>
</g>
</svg>
