<?xml version="1.0" encoding="UTF-8" standalone="no"?>
<!DOCTYPE svg PUBLIC "-//W3C//DTD SVG 1.1//EN"
 "http://www.w3.org/Graphics/SVG/1.1/DTD/svg11.dtd">
<!-- Generated by graphviz version 15.0.0 (20260523.1842)
 -->
<!-- Title: GraphleManagerComponents Pages: 1 -->
<svg width="1817pt" height="921pt"
 viewBox="0.00 0.00 1817.00 921.00" xmlns="http://www.w3.org/2000/svg" xmlns:xlink="http://www.w3.org/1999/xlink">
<g id="graph0" class="graph" transform="scale(1 1) rotate(0) translate(18 903.26)">
<title>GraphleManagerComponents</title>
<polygon fill="white" stroke="none" points="-18,18 -18,-903.26 1798.71,-903.26 1798.71,18 -18,18"/>
<g id="clust1" class="cluster">
<title>cluster_api</title>
<path fill="white" stroke="#90a4ae" stroke-dasharray="5,2" d="M259.53,-8C259.53,-8 413.56,-8 413.56,-8 419.56,-8 425.56,-14 425.56,-20 425.56,-20 425.56,-310 425.56,-310 425.56,-316 419.56,-322 413.56,-322 413.56,-322 259.53,-322 259.53,-322 253.53,-322 247.53,-316 247.53,-310 247.53,-310 247.53,-20 247.53,-20 247.53,-14 253.53,-8 259.53,-8"/>
<text xml:space="preserve" text-anchor="middle" x="336.55" y="-306.6" font-family="Arial" font-size="12.00">API adapters</text>
</g>
<g id="clust2" class="cluster">
<title>cluster_domain</title>
<path fill="white" stroke="#90a4ae" stroke-dasharray="5,2" d="M554.06,-187C554.06,-187 1240.9,-187 1240.9,-187 1246.9,-187 1252.9,-193 1252.9,-199 1252.9,-199 1252.9,-475 1252.9,-475 1252.9,-481 1246.9,-487 1240.9,-487 1240.9,-487 554.06,-487 554.06,-487 548.06,-487 542.06,-481 542.06,-475 542.06,-475 542.06,-199 542.06,-199 542.06,-193 548.06,-187 554.06,-187"/>
<text xml:space="preserve" text-anchor="middle" x="897.48" y="-471.6" font-family="Arial" font-size="12.00">Application modules</text>
</g>
<g id="clust3" class="cluster">
<title>cluster_persistence</title>
<path fill="white" stroke="#90a4ae" stroke-dasharray="5,2" d="M1363.4,-372C1363.4,-372 1546.68,-372 1546.68,-372 1552.68,-372 1558.68,-378 1558.68,-384 1558.68,-384 1558.68,-575 1558.68,-575 1558.68,-581 1552.68,-587 1546.68,-587 1546.68,-587 1363.4,-587 1363.4,-587 1357.4,-587 1351.4,-581 1351.4,-575 1351.4,-575 1351.4,-384 1351.4,-384 1351.4,-378 1357.4,-372 1363.4,-372"/>
<text xml:space="preserve" text-anchor="middle" x="1455.04" y="-571.6" font-family="Arial" font-size="12.00">Persistence adapters</text>
</g>
<!-- clients&#45;&gt;graphql_api -->
<g id="edge1" class="edge">
<title>clients&#45;&gt;graphql_api</title>
<path fill="none" stroke="#546e7a" stroke-width="1.1" d="M132.36,-154C173.46,-154 226.39,-154 267.92,-154"/>
<polygon fill="#546e7a" stroke="#546e7a" stroke-width="1.1" points="267.67,-156.45 274.67,-154 267.67,-151.55 267.67,-156.45"/>
<text xml:space="preserve" text-anchor="middle" x="196.78" y="-155.95" font-family="Arial" font-size="9.00">/graphql</text>
</g>
<!-- clients&#45;&gt;rest_api -->
<g id="edge2" class="edge">
<title>clients&#45;&gt;rest_api</title>
<path fill="none" stroke="#546e7a" stroke-width="1.1" d="M117.21,-173.81C158.25,-190.01 216.83,-213.14 262.98,-231.35"/>
<polygon fill="#546e7a" stroke="#546e7a" stroke-width="1.1" points="261.9,-233.56 269.31,-233.85 263.7,-229 261.9,-233.56"/>
<text xml:space="preserve" text-anchor="middle" x="196.78" y="-218.44" font-family="Arial" font-size="9.00">/dsl, /download</text>
</g>
<!-- clients&#45;&gt;websocket_api -->
<g id="edge3" class="edge">
<title>clients&#45;&gt;websocket_api</title>
<path fill="none" stroke="#546e7a" stroke-width="1.1" d="M117.21,-134.19C157.53,-118.27 214.78,-95.67 260.54,-77.61"/>
<polygon fill="#546e7a" stroke="#546e7a" stroke-width="1.1" points="261.21,-79.98 266.82,-75.13 259.41,-75.42 261.21,-79.98"/>
<text xml:space="preserve" text-anchor="middle" x="196.78" y="-115.56" font-family="Arial" font-size="9.00">/ws</text>
</g>
<!-- graphql_api&#45;&gt;file_module -->
<g id="edge4" class="edge">
<title>graphql_api&#45;&gt;file_module</title>
<path fill="none" stroke="#546e7a" stroke-width="1.1" d="M389.76,-120.78C408.71,-108.72 425.56,-98 425.56,-98 425.56,-98 445.56,-74 445.56,-74 445.56,-74 542.06,-40.5 542.06,-40.5 542.06,-40.5 695.59,-40.5 695.59,-40.5 695.59,-40.5 824.84,-74 824.84,-74 824.84,-74 867.72,-148.44 893.66,-193.47"/>
<polygon fill="#546e7a" stroke="#546e7a" stroke-width="1.1" points="891.38,-194.41 897,-199.26 895.63,-191.97 891.38,-194.41"/>
<text xml:space="preserve" text-anchor="middle" x="625.83" y="-42.45" font-family="Arial" font-size="9.00">file queries/mutations</text>
</g>
<!-- graphql_api&#45;&gt;tag_module -->
<g id="edge5" class="edge">
<title>graphql_api&#45;&gt;tag_module</title>
<path fill="none" stroke="#546e7a" stroke-width="1.1" d="M396.7,-151.54C457.1,-149.03 542.06,-145.5 542.06,-145.5 542.06,-145.5 695.59,-145.5 695.59,-145.5 695.59,-145.5 824.84,-179 824.84,-179 824.84,-179 858.84,-277 858.84,-277 858.84,-277 867.29,-284.65 877.52,-293.9"/>
<polygon fill="#546e7a" stroke="#546e7a" stroke-width="1.1" points="875.62,-295.49 882.46,-298.38 878.91,-291.86 875.62,-295.49"/>
<text xml:space="preserve" text-anchor="middle" x="625.83" y="-147.45" font-family="Arial" font-size="9.00">tag queries/mutations</text>
</g>
<!-- graphql_api&#45;&gt;connection_module -->
<g id="edge6" class="edge">
<title>graphql_api&#45;&gt;connection_module</title>
<path fill="none" stroke="#546e7a" stroke-width="1.1" d="M396.61,-169.86C421.83,-176.63 445.56,-183 445.56,-183 445.56,-183 824.84,-245 824.84,-245 824.84,-245 858.84,-376 858.84,-376 858.84,-376 867.29,-383.65 877.52,-392.9"/>
<polygon fill="#546e7a" stroke="#546e7a" stroke-width="1.1" points="875.62,-394.49 882.46,-397.38 878.91,-390.86 875.62,-394.49"/>
<text xml:space="preserve" text-anchor="middle" x="625.83" y="-225.13" font-family="Arial" font-size="9.00">relationship mutations</text>
</g>
<!-- rest_api&#45;&gt;dsl_module -->
<g id="edge7" class="edge">
<title>rest_api&#45;&gt;dsl_module</title>
<path fill="none" stroke="#546e7a" stroke-width="1.1" d="M402.37,-273.09C446.46,-281.99 504.9,-293.79 550.82,-303.06"/>
<polygon fill="#546e7a" stroke="#546e7a" stroke-width="1.1" points="550.26,-305.44 557.61,-304.43 551.23,-300.64 550.26,-305.44"/>
<text xml:space="preserve" text-anchor="middle" x="483.81" y="-297.85" font-family="Arial" font-size="9.00">interpret command</text>
</g>
<!-- rest_api&#45;&gt;filesystem -->
<g id="edge8" class="edge">
<title>rest_api&#45;&gt;filesystem</title>
<path fill="none" stroke="#546e7a" stroke-width="1.1" d="M355.93,-286.59C433.44,-398.69 729.59,-827 729.59,-827 729.59,-827 858.84,-853 858.84,-853 858.84,-853 1003.12,-879 1003.12,-879 1003.12,-879 1083.37,-879 1083.37,-879 1083.37,-879 1095.81,-877.28 1111.63,-875.08"/>
<polygon fill="#546e7a" stroke="#546e7a" stroke-width="1.1" points="1111.91,-877.52 1118.51,-874.13 1111.24,-872.66 1111.91,-877.52"/>
<text xml:space="preserve" text-anchor="middle" x="777.22" y="-848.03" font-family="Arial" font-size="9.00">stream file</text>
</g>
<!-- websocket_api&#45;&gt;autocomplete_module -->
<g id="edge9" class="edge">
<title>websocket_api&#45;&gt;autocomplete_module</title>
<path fill="none" stroke="#546e7a" stroke-width="1.1" d="M411.98,-40.42C430.69,-38.51 445.56,-37 445.56,-37 445.56,-37 542.06,-30 542.06,-30 542.06,-30 729.59,-28.5 729.59,-28.5 729.59,-28.5 824.84,-28.5 824.84,-28.5 824.84,-28.5 1011,-137.09 1112.67,-196.4"/>
<polygon fill="#546e7a" stroke="#546e7a" stroke-width="1.1" points="1111.42,-198.5 1118.7,-199.92 1113.89,-194.27 1111.42,-198.5"/>
<text xml:space="preserve" text-anchor="middle" x="777.22" y="-30.45" font-family="Arial" font-size="9.00">complete prefix</text>
</g>
<!-- file_module&#45;&gt;autocomplete_module -->
<g id="edge16" class="edge">
<title>file_module&#45;&gt;autocomplete_module</title>
<path fill="none" stroke="#546e7a" stroke-width="1.1" d="M950.88,-227.96C991.25,-229.04 1057.74,-230.81 1108.22,-232.16"/>
<polygon fill="#546e7a" stroke="#546e7a" stroke-width="1.1" points="1108.08,-234.61 1115.15,-232.34 1108.22,-229.71 1108.08,-234.61"/>
<text xml:space="preserve" text-anchor="middle" x="1043.25" y="-233.28" font-family="Arial" font-size="9.00">insert visited paths</text>
</g>
<!-- file_module&#45;&gt;repositories -->
<g id="edge14" class="edge">
<title>file_module&#45;&gt;repositories</title>
<path fill="none" stroke="#546e7a" stroke-width="1.1" d="M950.82,-246.04C1037.79,-292.24 1252.9,-406.5 1252.9,-406.5 1252.9,-406.5 1351.4,-462 1351.4,-462 1351.4,-462 1366.98,-470.5 1386.01,-480.88"/>
<polygon fill="#546e7a" stroke="#546e7a" stroke-width="1.1" points="1384.37,-482.78 1391.69,-483.98 1386.71,-478.48 1384.37,-482.78"/>
<text xml:space="preserve" text-anchor="middle" x="1178.14" y="-408.45" font-family="Arial" font-size="9.00">file graph updates</text>
</g>
<!-- file_module&#45;&gt;filesystem -->
<g id="edge15" class="edge">
<title>file_module&#45;&gt;filesystem</title>
<path fill="none" stroke="#546e7a" stroke-width="1.1" d="M944.27,-253.51C957.02,-265.05 969.12,-276 969.12,-276 969.12,-276 1003.12,-763 1003.12,-763 1003.12,-763 1083.37,-810 1083.37,-810 1083.37,-810 1111.3,-826.68 1136.67,-841.83"/>
<polygon fill="#546e7a" stroke="#546e7a" stroke-width="1.1" points="1135.38,-843.92 1142.65,-845.4 1137.89,-839.71 1135.38,-843.92"/>
<text xml:space="preserve" text-anchor="middle" x="1043.25" y="-822.45" font-family="Arial" font-size="9.00">read hierarchy</text>
<text xml:space="preserve" text-anchor="middle" x="1043.25" y="-811.95" font-family="Arial" font-size="9.00">write files</text>
</g>
<!-- tag_module&#45;&gt;repositories -->
<g id="edge17" class="edge">
<title>tag_module&#45;&gt;repositories</title>
<path fill="none" stroke="#546e7a" stroke-width="1.1" d="M948.3,-352.46C973.26,-372.29 1003.12,-396 1003.12,-396 1003.12,-396 1258.15,-465 1384.62,-499.22"/>
<polygon fill="#546e7a" stroke="#546e7a" stroke-width="1.1" points="1383.75,-501.52 1391.15,-500.98 1385.03,-496.79 1383.75,-501.52"/>
<text xml:space="preserve" text-anchor="middle" x="1178.14" y="-465.04" font-family="Arial" font-size="9.00">tag graph updates</text>
</g>
<!-- connection_module&#45;&gt;repositories -->
<g id="edge18" class="edge">
<title>connection_module&#45;&gt;repositories</title>
<path fill="none" stroke="#546e7a" stroke-width="1.1" d="M945.81,-451.58C971.22,-473.5 1003.12,-501 1003.12,-501 1003.12,-501 1257.64,-510.6 1384.24,-515.37"/>
<polygon fill="#546e7a" stroke="#546e7a" stroke-width="1.1" points="1384.01,-517.81 1391.09,-515.63 1384.19,-512.91 1384.01,-517.81"/>
<text xml:space="preserve" text-anchor="middle" x="1178.14" y="-512.3" font-family="Arial" font-size="9.00">relationship graph updates</text>
</g>
<!-- dsl_module&#45;&gt;file_module -->
<g id="edge10" class="edge">
<title>dsl_module&#45;&gt;file_module</title>
<path fill="none" stroke="#546e7a" stroke-width="1.1" d="M692.12,-297.24C746.27,-280.02 821.78,-256 869,-240.99"/>
<polygon fill="#546e7a" stroke="#546e7a" stroke-width="1.1" points="869.67,-243.34 875.6,-238.89 868.18,-238.67 869.67,-243.34"/>
<text xml:space="preserve" text-anchor="middle" x="777.22" y="-285.28" font-family="Arial" font-size="9.00">file commands</text>
</g>
<!-- dsl_module&#45;&gt;tag_module -->
<g id="edge11" class="edge">
<title>dsl_module&#45;&gt;tag_module</title>
<path fill="none" stroke="#546e7a" stroke-width="1.1" d="M692.12,-319.83C746.16,-321.34 821.47,-323.44 868.7,-324.76"/>
<polygon fill="#546e7a" stroke="#546e7a" stroke-width="1.1" points="868.45,-327.21 875.52,-324.95 868.59,-322.31 868.45,-327.21"/>
<text xml:space="preserve" text-anchor="middle" x="777.22" y="-325.36" font-family="Arial" font-size="9.00">tag commands</text>
</g>
<!-- dsl_module&#45;&gt;connection_module -->
<g id="edge12" class="edge">
<title>dsl_module&#45;&gt;connection_module</title>
<path fill="none" stroke="#546e7a" stroke-width="1.1" d="M692.12,-342.41C739.68,-360.2 803.71,-384.14 850.58,-401.67"/>
<polygon fill="#546e7a" stroke="#546e7a" stroke-width="1.1" points="849.56,-403.9 856.98,-404.06 851.28,-399.31 849.56,-403.9"/>
<text xml:space="preserve" text-anchor="middle" x="777.22" y="-392.34" font-family="Arial" font-size="9.00">relationship commands</text>
</g>
<!-- dsl_module&#45;&gt;repositories -->
<g id="edge13" class="edge">
<title>dsl_module&#45;&gt;repositories</title>
<path fill="none" stroke="#546e7a" stroke-width="1.1" d="M677.91,-364.72C703.7,-388.32 729.59,-412 729.59,-412 729.59,-412 858.84,-475 858.84,-475 858.84,-475 1003.12,-537 1003.12,-537 1003.12,-537 1272.9,-547 1272.9,-547 1272.9,-547 1331.4,-547 1331.4,-547 1331.4,-547 1356.8,-540.99 1384.48,-534.45"/>
<polygon fill="#546e7a" stroke="#546e7a" stroke-width="1.1" points="1384.85,-536.88 1391.1,-532.88 1383.72,-532.11 1384.85,-536.88"/>
<text xml:space="preserve" text-anchor="middle" x="1043.25" y="-541.82" font-family="Arial" font-size="9.00">find via Cypher</text>
</g>
<!-- autocomplete_module&#45;&gt;valkey_adapter -->
<g id="edge21" class="edge">
<title>autocomplete_module&#45;&gt;valkey_adapter</title>
<path fill="none" stroke="#546e7a" stroke-width="1.1" d="M1239.31,-266.21C1281.87,-288.99 1331.4,-315.5 1331.4,-315.5 1331.4,-315.5 1378.21,-352.33 1413.99,-380.49"/>
<polygon fill="#546e7a" stroke="#546e7a" stroke-width="1.1" points="1412.2,-382.2 1419.22,-384.6 1415.23,-378.35 1412.2,-382.2"/>
<text xml:space="preserve" text-anchor="middle" x="1302.15" y="-317.45" font-family="Arial" font-size="9.00">trie operations</text>
</g>
<!-- sweeper_module&#45;&gt;repositories -->
<g id="edge19" class="edge">
<title>sweeper_module&#45;&gt;repositories</title>
<path fill="none" stroke="#546e7a" stroke-width="1.1" d="M634.72,-450.74C658.78,-510.92 729.59,-688 729.59,-688 729.59,-688 1331.4,-688 1331.4,-688 1331.4,-688 1388.88,-608.33 1425.14,-558.07"/>
<polygon fill="#546e7a" stroke="#546e7a" stroke-width="1.1" points="1427.02,-559.64 1429.13,-552.53 1423.05,-556.78 1427.02,-559.64"/>
<text xml:space="preserve" text-anchor="middle" x="1043.25" y="-689.95" font-family="Arial" font-size="9.00">remove stale nodes</text>
</g>
<!-- sweeper_module&#45;&gt;filesystem -->
<g id="edge20" class="edge">
<title>sweeper_module&#45;&gt;filesystem</title>
<path fill="none" stroke="#546e7a" stroke-width="1.1" d="M632.57,-450.68C654.21,-524.81 729.59,-783 729.59,-783 729.59,-783 1003.12,-838 1003.12,-838 1003.12,-838 1062.35,-847.53 1111.7,-855.47"/>
<polygon fill="#546e7a" stroke="#546e7a" stroke-width="1.1" points="1111.21,-857.87 1118.51,-856.57 1111.99,-853.04 1111.21,-857.87"/>
<text xml:space="preserve" text-anchor="middle" x="913.98" y="-833.01" font-family="Arial" font-size="9.00">check existence</text>
</g>
<!-- repositories&#45;&gt;neo4j -->
<g id="edge22" class="edge">
<title>repositories&#45;&gt;neo4j</title>
<path fill="none" stroke="#546e7a" stroke-width="1.1" d="M1517.28,-518C1572.73,-518 1652.99,-518 1701.88,-518"/>
<polygon fill="#546e7a" stroke="#546e7a" stroke-width="1.1" points="1701.67,-520.45 1708.67,-518 1701.67,-515.55 1701.67,-520.45"/>
<text xml:space="preserve" text-anchor="middle" x="1627.81" y="-519.95" font-family="Arial" font-size="9.00">Cypher / repository calls</text>
</g>
<!-- valkey_adapter&#45;&gt;valkey -->
<g id="edge23" class="edge">
<title>valkey_adapter&#45;&gt;valkey</title>
<path fill="none" stroke="#546e7a" stroke-width="1.1" d="M1545.04,-412C1597.18,-412 1660.68,-412 1701.89,-412"/>
<polygon fill="#546e7a" stroke="#546e7a" stroke-width="1.1" points="1701.67,-414.45 1708.67,-412 1701.67,-409.55 1701.67,-414.45"/>
<text xml:space="preserve" text-anchor="middle" x="1627.81" y="-413.95" font-family="Arial" font-size="9.00">Valkey commands</text>
</g>
<!-- clients -->
<g id="node1" class="node">
<title>clients</title>
<path fill="#fff7dd" stroke="#8a6d3b" stroke-width="1.2" d="M120.03,-173.26C120.03,-173.26 12,-173.26 12,-173.26 6,-173.26 0,-167.26 0,-161.26 0,-161.26 0,-146.74 0,-146.74 0,-140.74 6,-134.74 12,-134.74 12,-134.74 120.03,-134.74 120.03,-134.74 126.03,-134.74 132.03,-140.74 132.03,-146.74 132.03,-146.74 132.03,-161.26 132.03,-161.26 132.03,-167.26 126.03,-173.26 120.03,-173.26"/>
<text xml:space="preserve" text-anchor="middle" x="66.02" y="-157.05" font-family="Arial" font-size="11.00">GraphleUI or DSL client</text>
<text xml:space="preserve" text-anchor="middle" x="66.02" y="-143.55" font-family="Arial" font-size="11.00">[External client]</text>
</g>
<!-- graphql_api -->
<g id="node2" class="node">
<title>graphql_api</title>
<path fill="#e3f2fd" stroke="#1e5f8f" stroke-width="1.2" d="M384.19,-186.76C384.19,-186.76 288.91,-186.76 288.91,-186.76 282.91,-186.76 276.91,-180.76 276.91,-174.76 276.91,-174.76 276.91,-133.24 276.91,-133.24 276.91,-127.24 282.91,-121.24 288.91,-121.24 288.91,-121.24 384.19,-121.24 384.19,-121.24 390.19,-121.24 396.19,-127.24 396.19,-133.24 396.19,-133.24 396.19,-174.76 396.19,-174.76 396.19,-180.76 390.19,-186.76 384.19,-186.76"/>
<text xml:space="preserve" text-anchor="middle" x="336.55" y="-170.55" font-family="Arial" font-size="11.00">GraphQL controllers</text>
<text xml:space="preserve" text-anchor="middle" x="336.55" y="-157.05" font-family="Arial" font-size="11.00">FileController</text>
<text xml:space="preserve" text-anchor="middle" x="336.55" y="-143.55" font-family="Arial" font-size="11.00">TagController</text>
<text xml:space="preserve" text-anchor="middle" x="336.55" y="-130.05" font-family="Arial" font-size="11.00">ConnectionController</text>
</g>
<!-- rest_api -->
<g id="node3" class="node">
<title>rest_api</title>
<path fill="#e3f2fd" stroke="#1e5f8f" stroke-width="1.2" d="M389.81,-286.01C389.81,-286.01 283.28,-286.01 283.28,-286.01 277.28,-286.01 271.28,-280.01 271.28,-274.01 271.28,-274.01 271.28,-245.99 271.28,-245.99 271.28,-239.99 277.28,-233.99 283.28,-233.99 283.28,-233.99 389.81,-233.99 389.81,-233.99 395.81,-233.99 401.81,-239.99 401.81,-245.99 401.81,-245.99 401.81,-274.01 401.81,-274.01 401.81,-280.01 395.81,-286.01 389.81,-286.01"/>
<text xml:space="preserve" text-anchor="middle" x="336.55" y="-269.8" font-family="Arial" font-size="11.00">REST controllers</text>
<text xml:space="preserve" text-anchor="middle" x="336.55" y="-256.3" font-family="Arial" font-size="11.00">DSLController</text>
<text xml:space="preserve" text-anchor="middle" x="336.55" y="-242.8" font-family="Arial" font-size="11.00">FileDownloadController</text>
</g>
<!-- websocket_api -->
<g id="node4" class="node">
<title>websocket_api</title>
<path fill="#e3f2fd" stroke="#1e5f8f" stroke-width="1.2" d="M399.56,-74.01C399.56,-74.01 273.53,-74.01 273.53,-74.01 267.53,-74.01 261.53,-68.01 261.53,-62.01 261.53,-62.01 261.53,-33.99 261.53,-33.99 261.53,-27.99 267.53,-21.99 273.53,-21.99 273.53,-21.99 399.56,-21.99 399.56,-21.99 405.56,-21.99 411.56,-27.99 411.56,-33.99 411.56,-33.99 411.56,-62.01 411.56,-62.01 411.56,-68.01 405.56,-74.01 399.56,-74.01"/>
<text xml:space="preserve" text-anchor="middle" x="336.55" y="-57.8" font-family="Arial" font-size="11.00">WebSocket adapter</text>
<text xml:space="preserve" text-anchor="middle" x="336.55" y="-44.3" font-family="Arial" font-size="11.00">DSLAutoCompleterHandler</text>
<text xml:space="preserve" text-anchor="middle" x="336.55" y="-30.8" font-family="Arial" font-size="11.00">SessionRegistry</text>
</g>
<!-- file_module -->
<g id="node5" class="node">
<title>file_module</title>
<path fill="#e8f5e9" stroke="#2e7d32" stroke-width="1.2" d="M938.37,-253.01C938.37,-253.01 889.59,-253.01 889.59,-253.01 883.59,-253.01 877.59,-247.01 877.59,-241.01 877.59,-241.01 877.59,-212.99 877.59,-212.99 877.59,-206.99 883.59,-200.99 889.59,-200.99 889.59,-200.99 938.37,-200.99 938.37,-200.99 944.37,-200.99 950.37,-206.99 950.37,-212.99 950.37,-212.99 950.37,-241.01 950.37,-241.01 950.37,-247.01 944.37,-253.01 938.37,-253.01"/>
<text xml:space="preserve" text-anchor="middle" x="913.98" y="-236.8" font-family="Arial" font-size="11.00">File module</text>
<text xml:space="preserve" text-anchor="middle" x="913.98" y="-223.3" font-family="Arial" font-size="11.00">FileService</text>
<text xml:space="preserve" text-anchor="middle" x="913.98" y="-209.8" font-family="Arial" font-size="11.00">file model</text>
</g>
<!-- tag_module -->
<g id="node6" class="node">
<title>tag_module</title>
<path fill="#e8f5e9" stroke="#2e7d32" stroke-width="1.2" d="M938.37,-352.01C938.37,-352.01 889.59,-352.01 889.59,-352.01 883.59,-352.01 877.59,-346.01 877.59,-340.01 877.59,-340.01 877.59,-311.99 877.59,-311.99 877.59,-305.99 883.59,-299.99 889.59,-299.99 889.59,-299.99 938.37,-299.99 938.37,-299.99 944.37,-299.99 950.37,-305.99 950.37,-311.99 950.37,-311.99 950.37,-340.01 950.37,-340.01 950.37,-346.01 944.37,-352.01 938.37,-352.01"/>
<text xml:space="preserve" text-anchor="middle" x="913.98" y="-335.8" font-family="Arial" font-size="11.00">Tag module</text>
<text xml:space="preserve" text-anchor="middle" x="913.98" y="-322.3" font-family="Arial" font-size="11.00">TagService</text>
<text xml:space="preserve" text-anchor="middle" x="913.98" y="-308.8" font-family="Arial" font-size="11.00">tag model</text>
</g>
<!-- connection_module -->
<g id="node7" class="node">
<title>connection_module</title>
<path fill="#e8f5e9" stroke="#2e7d32" stroke-width="1.2" d="M957.12,-451.01C957.12,-451.01 870.84,-451.01 870.84,-451.01 864.84,-451.01 858.84,-445.01 858.84,-439.01 858.84,-439.01 858.84,-410.99 858.84,-410.99 858.84,-404.99 864.84,-398.99 870.84,-398.99 870.84,-398.99 957.12,-398.99 957.12,-398.99 963.12,-398.99 969.12,-404.99 969.12,-410.99 969.12,-410.99 969.12,-439.01 969.12,-439.01 969.12,-445.01 963.12,-451.01 957.12,-451.01"/>
<text xml:space="preserve" text-anchor="middle" x="913.98" y="-434.8" font-family="Arial" font-size="11.00">Connection module</text>
<text xml:space="preserve" text-anchor="middle" x="913.98" y="-421.3" font-family="Arial" font-size="11.00">ConnectionService</text>
<text xml:space="preserve" text-anchor="middle" x="913.98" y="-407.8" font-family="Arial" font-size="11.00">connection model</text>
</g>
<!-- dsl_module -->
<g id="node8" class="node">
<title>dsl_module</title>
<path fill="#e8f5e9" stroke="#2e7d32" stroke-width="1.2" d="M679.84,-364.26C679.84,-364.26 571.81,-364.26 571.81,-364.26 565.81,-364.26 559.81,-358.26 559.81,-352.26 559.81,-352.26 559.81,-283.74 559.81,-283.74 559.81,-277.74 565.81,-271.74 571.81,-271.74 571.81,-271.74 679.84,-271.74 679.84,-271.74 685.84,-271.74 691.84,-277.74 691.84,-283.74 691.84,-283.74 691.84,-352.26 691.84,-352.26 691.84,-358.26 685.84,-364.26 679.84,-364.26"/>
<text xml:space="preserve" text-anchor="middle" x="625.83" y="-348.05" font-family="Arial" font-size="11.00">DSL module</text>
<text xml:space="preserve" text-anchor="middle" x="625.83" y="-334.55" font-family="Arial" font-size="11.00">DSLInterpreter</text>
<text xml:space="preserve" text-anchor="middle" x="625.83" y="-321.05" font-family="Arial" font-size="11.00">DSLScopeParser</text>
<text xml:space="preserve" text-anchor="middle" x="625.83" y="-307.55" font-family="Arial" font-size="11.00">DSLTokenInterpreter</text>
<text xml:space="preserve" text-anchor="middle" x="625.83" y="-294.05" font-family="Arial" font-size="11.00">DSLCommandExecutor</text>
<text xml:space="preserve" text-anchor="middle" x="625.83" y="-280.55" font-family="Arial" font-size="11.00">CypherQueryBuilder</text>
</g>
<!-- autocomplete_module -->
<g id="node9" class="node">
<title>autocomplete_module</title>
<path fill="#e8f5e9" stroke="#2e7d32" stroke-width="1.2" d="M1226.9,-266.76C1226.9,-266.76 1129.37,-266.76 1129.37,-266.76 1123.37,-266.76 1117.37,-260.76 1117.37,-254.76 1117.37,-254.76 1117.37,-213.24 1117.37,-213.24 1117.37,-207.24 1123.37,-201.24 1129.37,-201.24 1129.37,-201.24 1226.9,-201.24 1226.9,-201.24 1232.9,-201.24 1238.9,-207.24 1238.9,-213.24 1238.9,-213.24 1238.9,-254.76 1238.9,-254.76 1238.9,-260.76 1232.9,-266.76 1226.9,-266.76"/>
<text xml:space="preserve" text-anchor="middle" x="1178.14" y="-250.55" font-family="Arial" font-size="11.00">Autocomplete module</text>
<text xml:space="preserve" text-anchor="middle" x="1178.14" y="-237.05" font-family="Arial" font-size="11.00">DSLAutoCompleter</text>
<text xml:space="preserve" text-anchor="middle" x="1178.14" y="-223.55" font-family="Arial" font-size="11.00">FilenameCompleter</text>
<text xml:space="preserve" text-anchor="middle" x="1178.14" y="-210.05" font-family="Arial" font-size="11.00">ConcurrentCache</text>
</g>
<!-- sweeper_module -->
<g id="node10" class="node">
<title>sweeper_module</title>
<path fill="#e8f5e9" stroke="#2e7d32" stroke-width="1.2" d="M683.59,-450.26C683.59,-450.26 568.06,-450.26 568.06,-450.26 562.06,-450.26 556.06,-444.26 556.06,-438.26 556.06,-438.26 556.06,-423.74 556.06,-423.74 556.06,-417.74 562.06,-411.74 568.06,-411.74 568.06,-411.74 683.59,-411.74 683.59,-411.74 689.59,-411.74 695.59,-417.74 695.59,-423.74 695.59,-423.74 695.59,-438.26 695.59,-438.26 695.59,-444.26 689.59,-450.26 683.59,-450.26"/>
<text xml:space="preserve" text-anchor="middle" x="625.83" y="-434.05" font-family="Arial" font-size="11.00">Background maintenance</text>
<text xml:space="preserve" text-anchor="middle" x="625.83" y="-420.55" font-family="Arial" font-size="11.00">Neo4JSweeper</text>
</g>
<!-- repositories -->
<g id="node11" class="node">
<title>repositories</title>
<path fill="#fffde7" stroke="#8a7b1f" stroke-width="1.2" d="M1504.93,-550.76C1504.93,-550.76 1405.15,-550.76 1405.15,-550.76 1399.15,-550.76 1393.15,-544.76 1393.15,-538.76 1393.15,-538.76 1393.15,-497.24 1393.15,-497.24 1393.15,-491.24 1399.15,-485.24 1405.15,-485.24 1405.15,-485.24 1504.93,-485.24 1504.93,-485.24 1510.93,-485.24 1516.93,-491.24 1516.93,-497.24 1516.93,-497.24 1516.93,-538.76 1516.93,-538.76 1516.93,-544.76 1510.93,-550.76 1504.93,-550.76"/>
<text xml:space="preserve" text-anchor="middle" x="1455.04" y="-534.55" font-family="Arial" font-size="11.00">Neo4j repositories</text>
<text xml:space="preserve" text-anchor="middle" x="1455.04" y="-521.05" font-family="Arial" font-size="11.00">FileRepository</text>
<text xml:space="preserve" text-anchor="middle" x="1455.04" y="-507.55" font-family="Arial" font-size="11.00">TagRepository</text>
<text xml:space="preserve" text-anchor="middle" x="1455.04" y="-494.05" font-family="Arial" font-size="11.00">ConnectionRepository</text>
</g>
<!-- valkey_adapter -->
<g id="node12" class="node">
<title>valkey_adapter</title>
<path fill="#fffde7" stroke="#8a7b1f" stroke-width="1.2" d="M1532.68,-438.01C1532.68,-438.01 1377.4,-438.01 1377.4,-438.01 1371.4,-438.01 1365.4,-432.01 1365.4,-426.01 1365.4,-426.01 1365.4,-397.99 1365.4,-397.99 1365.4,-391.99 1371.4,-385.99 1377.4,-385.99 1377.4,-385.99 1532.68,-385.99 1532.68,-385.99 1538.68,-385.99 1544.68,-391.99 1544.68,-397.99 1544.68,-397.99 1544.68,-426.01 1544.68,-426.01 1544.68,-432.01 1538.68,-438.01 1532.68,-438.01"/>
<text xml:space="preserve" text-anchor="middle" x="1455.04" y="-421.8" font-family="Arial" font-size="11.00">Valkey autocomplete adapter</text>
<text xml:space="preserve" text-anchor="middle" x="1455.04" y="-408.3" font-family="Arial" font-size="11.00">ValkeyFilenameCompleterService</text>
<text xml:space="preserve" text-anchor="middle" x="1455.04" y="-394.8" font-family="Arial" font-size="11.00">JedisStorage</text>
</g>
<!-- filesystem -->
<g id="node13" class="node">
<title>filesystem</title>
<path fill="#eeeeee" stroke="#737373" stroke-width="1.2" d="M1223.53,-885.26C1223.53,-885.26 1132.75,-885.26 1132.75,-885.26 1126.75,-885.26 1120.75,-879.26 1120.75,-873.26 1120.75,-873.26 1120.75,-858.74 1120.75,-858.74 1120.75,-852.74 1126.75,-846.74 1132.75,-846.74 1132.75,-846.74 1223.53,-846.74 1223.53,-846.74 1229.53,-846.74 1235.53,-852.74 1235.53,-858.74 1235.53,-858.74 1235.53,-873.26 1235.53,-873.26 1235.53,-879.26 1229.53,-885.26 1223.53,-885.26"/>
<text xml:space="preserve" text-anchor="middle" x="1178.14" y="-869.05" font-family="Arial" font-size="11.00">Operating filesystem</text>
<text xml:space="preserve" text-anchor="middle" x="1178.14" y="-855.55" font-family="Arial" font-size="11.00">[External system]</text>
</g>
<!-- neo4j -->
<g id="node14" class="node">
<title>neo4j</title>
<path fill="#f3e8ff" stroke="#6a3ea1" stroke-width="1.2" d="M1780.71,-539.67C1780.71,-542.32 1765.07,-544.48 1745.82,-544.48 1726.57,-544.48 1710.93,-542.32 1710.93,-539.67 1710.93,-539.67 1710.93,-496.33 1710.93,-496.33 1710.93,-493.68 1726.57,-491.52 1745.82,-491.52 1765.07,-491.52 1780.71,-493.68 1780.71,-496.33 1780.71,-496.33 1780.71,-539.67 1780.71,-539.67"/>
<path fill="none" stroke="#6a3ea1" stroke-width="1.2" d="M1780.71,-539.67C1780.71,-537.01 1765.07,-534.85 1745.82,-534.85 1726.57,-534.85 1710.93,-537.01 1710.93,-539.67"/>
<text xml:space="preserve" text-anchor="middle" x="1745.82" y="-521.05" font-family="Arial" font-size="11.00">Neo4j</text>
<text xml:space="preserve" text-anchor="middle" x="1745.82" y="-507.55" font-family="Arial" font-size="11.00">[Database]</text>
</g>
<!-- valkey -->
<g id="node15" class="node">
<title>valkey</title>
<path fill="#f3e8ff" stroke="#6a3ea1" stroke-width="1.2" d="M1780.71,-433.67C1780.71,-436.32 1765.07,-438.48 1745.82,-438.48 1726.57,-438.48 1710.93,-436.32 1710.93,-433.67 1710.93,-433.67 1710.93,-390.33 1710.93,-390.33 1710.93,-387.68 1726.57,-385.52 1745.82,-385.52 1765.07,-385.52 1780.71,-387.68 1780.71,-390.33 1780.71,-390.33 1780.71,-433.67 1780.71,-433.67"/>
<path fill="none" stroke="#6a3ea1" stroke-width="1.2" d="M1780.71,-433.67C1780.71,-431.01 1765.07,-428.85 1745.82,-428.85 1726.57,-428.85 1710.93,-431.01 1710.93,-433.67"/>
<text xml:space="preserve" text-anchor="middle" x="1745.82" y="-415.05" font-family="Arial" font-size="11.00">Valkey</text>
<text xml:space="preserve" text-anchor="middle" x="1745.82" y="-401.55" font-family="Arial" font-size="11.00">[Database]</text>
</g>
</g>
</svg>
