<svg xmlns="http://www.w3.org/2000/svg" xmlns:xlink="http://www.w3.org/1999/xlink" contentStyleType="text/css" data-diagram-type="ACTIVITY" height="721px" preserveAspectRatio="none" style="width:542px;height:721px;background:#FFFFFF;" version="1.1" viewBox="0 0 542 721" width="542px" zoomAndPan="magnify"><defs/><g><ellipse cx="302.5899" cy="20" fill="#222222" rx="10" ry="10" style="stroke:#222222;stroke-width:1;"/><rect fill="#F1F1F1" height="36.3441" rx="12.5" ry="12.5" style="stroke:#181818;stroke-width:0.5;" width="266.1337" x="169.523" y="50"/><text fill="#000000" font-family="sans-serif" font-size="12" lengthAdjust="spacing" textLength="246.1337" x="179.523" y="72.8281">The user opens the DSL command interface</text><rect fill="#F1F1F1" height="36.3441" rx="12.5" ry="12.5" style="stroke:#181818;stroke-width:0.5;" width="212.6374" x="196.2712" y="106.3441"/><text fill="#000000" font-family="sans-serif" font-size="12" lengthAdjust="spacing" textLength="192.6374" x="206.2712" y="129.1722">The user starts typing a command</text><rect fill="#F1F1F1" height="36.3441" rx="12.5" ry="12.5" style="stroke:#181818;stroke-width:0.5;" width="274.4138" x="165.383" y="206.6882"/><text fill="#000000" font-family="sans-serif" font-size="12" lengthAdjust="spacing" textLength="254.4138" x="175.383" y="229.5163">System analyzes the current command prefix</text><rect fill="#F1F1F1" height="36.3441" rx="12.5" ry="12.5" style="stroke:#181818;stroke-width:0.5;" width="266.2898" x="169.445" y="263.0323"/><text fill="#000000" font-family="sans-serif" font-size="12" lengthAdjust="spacing" textLength="246.2898" x="179.445" y="285.8604">System queries the auto-completion service</text><rect fill="#F1F1F1" height="36.3441" rx="12.5" ry="12.5" style="stroke:#181818;stroke-width:0.5;" width="192.1772" x="206.5012" y="319.3765"/><text fill="#000000" font-family="sans-serif" font-size="12" lengthAdjust="spacing" textLength="172.1772" x="216.5012" y="342.2045">System generates suggestions</text><rect fill="#F1F1F1" height="36.3441" rx="12.5" ry="12.5" style="stroke:#181818;stroke-width:0.5;" width="288.718" x="158.2308" y="386.8926"/><text fill="#000000" font-family="sans-serif" font-size="12" lengthAdjust="spacing" textLength="268.718" x="168.2308" y="409.7207">System displays a list of suggestions to the user</text><polygon fill="#F1F1F1" points="270.8881,443.2367,334.2916,443.2367,346.2916,455.2367,334.2916,467.2367,270.8881,467.2367,258.8881,455.2367,270.8881,443.2367" style="stroke:#181818;stroke-width:0.5;"/><text fill="#000000" font-family="sans-serif" font-size="11" lengthAdjust="spacing" textLength="63.4036" x="270.8881" y="459.5047">User action?</text><text fill="#000000" font-family="sans-serif" font-size="11" lengthAdjust="spacing" textLength="95.9963" x="162.8918" y="452.0138">Selects suggestion</text><text fill="#000000" font-family="sans-serif" font-size="11" lengthAdjust="spacing" textLength="87.8894" x="346.2916" y="452.0138">Continues typing</text><rect fill="#F1F1F1" height="36.3441" rx="12.5" ry="12.5" style="stroke:#181818;stroke-width:0.5;" width="327.6462" x="11" y="477.2367"/><text fill="#000000" font-family="sans-serif" font-size="12" lengthAdjust="spacing" textLength="307.6462" x="21" y="500.0648">System completes the command with the selected text</text><rect fill="#F1F1F1" height="36.3441" rx="12.5" ry="12.5" style="stroke:#181818;stroke-width:0.5;" width="143.4209" x="358.6462" y="477.2367"/><text fill="#000000" font-family="sans-serif" font-size="12" lengthAdjust="spacing" textLength="123.4209" x="368.6462" y="500.0648">User continues typing</text><polygon fill="#F1F1F1" points="302.5899,519.5809,314.5899,531.5809,302.5899,543.5809,290.5899,531.5809,302.5899,519.5809" style="stroke:#181818;stroke-width:0.5;"/><polygon fill="#F1F1F1" points="302.5899,162.6882,314.5899,174.6882,302.5899,186.6882,290.5899,174.6882,302.5899,162.6882" style="stroke:#181818;stroke-width:0.5;"/><polygon fill="#F1F1F1" points="247.7167,563.5809,357.463,563.5809,369.463,575.5809,357.463,587.5809,247.7167,587.5809,235.7167,575.5809,247.7167,563.5809" style="stroke:#181818;stroke-width:0.5;"/><text fill="#000000" font-family="sans-serif" font-size="11" lengthAdjust="spacing" textLength="109.7462" x="247.7167" y="579.8488">Command complete?</text><text fill="#000000" font-family="sans-serif" font-size="11" lengthAdjust="spacing" textLength="15.0149" x="369.463" y="572.3579">No</text><rect fill="#F1F1F1" height="36.3441" rx="12.5" ry="12.5" style="stroke:#181818;stroke-width:0.5;" width="297.274" x="153.9529" y="631.7857"/><text fill="#000000" font-family="sans-serif" font-size="12" lengthAdjust="spacing" textLength="277.274" x="163.9529" y="654.6138">User executes or continues editing the command</text><ellipse cx="302.5899" cy="699.1298" fill="none" rx="11" ry="11" style="stroke:#222222;stroke-width:1;"/><ellipse cx="302.5899" cy="699.1298" fill="#222222" rx="6" ry="6" style="stroke:#222222;stroke-width:1;"/><line style="stroke:#181818;stroke-width:1;" x1="302.5899" x2="302.5899" y1="30" y2="50"/><polygon fill="#181818" points="298.5899,40,302.5899,50,306.5899,40,302.5899,44" style="stroke:#181818;stroke-width:1;"/><line style="stroke:#181818;stroke-width:1;" x1="302.5899" x2="302.5899" y1="86.3441" y2="106.3441"/><polygon fill="#181818" points="298.5899,96.3441,302.5899,106.3441,306.5899,96.3441,302.5899,100.3441" style="stroke:#181818;stroke-width:1;"/><line style="stroke:#181818;stroke-width:1;" x1="302.5899" x2="302.5899" y1="243.0323" y2="263.0323"/><polygon fill="#181818" points="298.5899,253.0323,302.5899,263.0323,306.5899,253.0323,302.5899,257.0323" style="stroke:#181818;stroke-width:1;"/><line style="stroke:#181818;stroke-width:1;" x1="302.5899" x2="302.5899" y1="299.3765" y2="319.3765"/><polygon fill="#181818" points="298.5899,309.3765,302.5899,319.3765,306.5899,309.3765,302.5899,313.3765" style="stroke:#181818;stroke-width:1;"/><line style="stroke:#181818;stroke-width:1;" x1="302.5899" x2="302.5899" y1="355.7206" y2="386.8926"/><polygon fill="#181818" points="298.5899,376.8926,302.5899,386.8926,306.5899,376.8926,302.5899,380.8926" style="stroke:#181818;stroke-width:1;"/><line style="stroke:#181818;stroke-width:1;" x1="258.8881" x2="174.8231" y1="455.2367" y2="455.2367"/><line style="stroke:#181818;stroke-width:1;" x1="174.8231" x2="174.8231" y1="455.2367" y2="477.2367"/><polygon fill="#181818" points="170.8231,467.2367,174.8231,477.2367,178.8231,467.2367,174.8231,471.2367" style="stroke:#181818;stroke-width:1;"/><line style="stroke:#181818;stroke-width:1;" x1="346.2916" x2="430.3566" y1="455.2367" y2="455.2367"/><line style="stroke:#181818;stroke-width:1;" x1="430.3566" x2="430.3566" y1="455.2367" y2="477.2367"/><polygon fill="#181818" points="426.3566,467.2367,430.3566,477.2367,434.3566,467.2367,430.3566,471.2367" style="stroke:#181818;stroke-width:1;"/><line style="stroke:#181818;stroke-width:1;" x1="174.8231" x2="174.8231" y1="513.5809" y2="531.5809"/><line style="stroke:#181818;stroke-width:1;" x1="174.8231" x2="290.5899" y1="531.5809" y2="531.5809"/><polygon fill="#181818" points="280.5899,527.5809,290.5899,531.5809,280.5899,535.5809,284.5899,531.5809" style="stroke:#181818;stroke-width:1;"/><line style="stroke:#181818;stroke-width:1;" x1="430.3566" x2="430.3566" y1="513.5809" y2="531.5809"/><line style="stroke:#181818;stroke-width:1;" x1="430.3566" x2="314.5899" y1="531.5809" y2="531.5809"/><polygon fill="#181818" points="324.5899,527.5809,314.5899,531.5809,324.5899,535.5809,320.5899,531.5809" style="stroke:#181818;stroke-width:1;"/><line style="stroke:#181818;stroke-width:1;" x1="302.5899" x2="302.5899" y1="423.2367" y2="443.2367"/><polygon fill="#181818" points="298.5899,433.2367,302.5899,443.2367,306.5899,433.2367,302.5899,437.2367" style="stroke:#181818;stroke-width:1;"/><line style="stroke:#181818;stroke-width:1;" x1="302.5899" x2="302.5899" y1="186.6882" y2="206.6882"/><polygon fill="#181818" points="298.5899,196.6882,302.5899,206.6882,306.5899,196.6882,302.5899,200.6882" style="stroke:#181818;stroke-width:1;"/><line style="stroke:#181818;stroke-width:1;" x1="369.463" x2="516.0671" y1="575.5809" y2="575.5809"/><polygon fill="#181818" points="512.0671,375.7206,516.0671,365.7206,520.0671,375.7206,516.0671,371.7206" style="stroke:#181818;stroke-width:1;"/><line style="stroke:#181818;stroke-width:1;" x1="516.0671" x2="516.0671" y1="174.6882" y2="575.5809"/><line style="stroke:#181818;stroke-width:1;" x1="516.0671" x2="314.5899" y1="174.6882" y2="174.6882"/><polygon fill="#181818" points="324.5899,170.6882,314.5899,174.6882,324.5899,178.6882,320.5899,174.6882" style="stroke:#181818;stroke-width:1;"/><line style="stroke:#181818;stroke-width:1;" x1="302.5899" x2="302.5899" y1="543.5809" y2="563.5809"/><polygon fill="#181818" points="298.5899,553.5809,302.5899,563.5809,306.5899,553.5809,302.5899,557.5809" style="stroke:#181818;stroke-width:1;"/><line style="stroke:#181818;stroke-width:1;" x1="302.5899" x2="302.5899" y1="142.6882" y2="162.6882"/><polygon fill="#181818" points="298.5899,152.6882,302.5899,162.6882,306.5899,152.6882,302.5899,156.6882" style="stroke:#181818;stroke-width:1;"/><line style="stroke:#181818;stroke-width:1;" x1="302.5899" x2="302.5899" y1="587.5809" y2="631.7857"/><polygon fill="#181818" points="298.5899,621.7857,302.5899,631.7857,306.5899,621.7857,302.5899,625.7857" style="stroke:#181818;stroke-width:1;"/><text fill="#000000" font-family="sans-serif" font-size="11" lengthAdjust="spacing" textLength="17.6989" x="306.5899" y="611.0627">Yes</text><line style="stroke:#181818;stroke-width:1;" x1="302.5899" x2="302.5899" y1="668.1298" y2="688.1298"/><polygon fill="#181818" points="298.5899,678.1298,302.5899,688.1298,306.5899,678.1298,302.5899,682.1298" style="stroke:#181818;stroke-width:1;"/><!--SRC=[NP4zKiCm48Lxds9BfyW5o0mKK38qWO9I8pyxEwD8GhiYCQT7ScoYePJqlPzTYPgatSFx2PG5YKA45z9oV3c-aWtdi_43iLUaqLWS6bIgjB1pP3-HsU13roL46Es87ewpACval77p3sx6DgS4ht_cCM7aww71lp8IhxJ96lO5ZGxAmLD9_kPQv8vFy4X6Yq3oD44g9oqmi4HdPYab7OjI65kID2n9TQXIdeX7wZ_gXCPMu6bNdptrHpXORLDsXRx7h2stCTVnBgodvK8MEGPINBNMWnDG_noyii_ODhbwBWNilxT5vGSUjntJvSHkCRc5RHLAPnRgtyAkspz-ecoZkpdY2fjhnT2wOs2jdzZqBWhH47y1]--></g></svg>