<svg xmlns="http://www.w3.org/2000/svg" xmlns:xlink="http://www.w3.org/1999/xlink" contentStyleType="text/css" data-diagram-type="ACTIVITY" height="509px" preserveAspectRatio="none" style="width:872px;height:509px;background:#FFFFFF;" version="1.1" viewBox="0 0 872 509" width="872px" zoomAndPan="magnify"><defs/><g><ellipse cx="490.3765" cy="20" fill="#222222" rx="10" ry="10" style="stroke:#222222;stroke-width:1;"/><rect fill="#F1F1F1" height="36.3441" rx="12.5" ry="12.5" style="stroke:#181818;stroke-width:0.5;" width="198.0213" x="391.3658" y="50"/><text fill="#000000" font-family="sans-serif" font-size="12" lengthAdjust="spacing" textLength="178.0213" x="401.3658" y="72.8281">The user opens the file browser</text><polygon fill="#F1F1F1" points="411.694,106.3441,569.0589,106.3441,581.0589,118.3441,569.0589,130.3441,411.694,130.3441,399.694,118.3441,411.694,106.3441" style="stroke:#181818;stroke-width:0.5;"/><text fill="#000000" font-family="sans-serif" font-size="11" lengthAdjust="spacing" textLength="157.3649" x="411.694" y="122.6121">Does the user want to use GUI</text><text fill="#000000" font-family="sans-serif" font-size="11" lengthAdjust="spacing" textLength="17.6989" x="381.9952" y="115.1211">Yes</text><text fill="#000000" font-family="sans-serif" font-size="11" lengthAdjust="spacing" textLength="15.0149" x="581.0589" y="115.1211">No</text><rect fill="#F1F1F1" height="36.3441" rx="12.5" ry="12.5" style="stroke:#181818;stroke-width:0.5;" width="171.4051" x="195.7762" y="140.3441"/><text fill="#000000" font-family="sans-serif" font-size="12" lengthAdjust="spacing" textLength="151.4051" x="205.7762" y="163.1722">The user searches for a file</text><rect fill="#F1F1F1" height="36.3441" rx="12.5" ry="12.5" style="stroke:#181818;stroke-width:0.5;" width="238.3176" x="162.3199" y="196.6882"/><text fill="#000000" font-family="sans-serif" font-size="12" lengthAdjust="spacing" textLength="218.3176" x="172.3199" y="219.5163">The user selects "Add tag" in the menu</text><rect fill="#F1F1F1" height="52.6882" rx="12.5" ry="12.5" style="stroke:#181818;stroke-width:0.5;" width="241.3416" x="160.8079" y="253.0323"/><text fill="#000000" font-family="sans-serif" font-size="12" lengthAdjust="spacing" textLength="218.2216" x="170.8079" y="275.8604">The system displays a menu where the</text><text fill="#000000" font-family="sans-serif" font-size="12" lengthAdjust="spacing" textLength="185.7373" x="170.8079" y="292.2045">user can enter info about the tag</text><polygon fill="#F1F1F1" points="211.9592,325.7206,350.9982,325.7206,362.9982,337.7206,350.9982,349.7206,211.9592,349.7206,199.9592,337.7206,211.9592,325.7206" style="stroke:#181818;stroke-width:0.5;"/><text fill="#000000" font-family="sans-serif" font-size="11" lengthAdjust="spacing" textLength="139.039" x="211.9592" y="341.9885">Does user want to proceed</text><text fill="#000000" font-family="sans-serif" font-size="11" lengthAdjust="spacing" textLength="17.6989" x="182.2603" y="334.4976">Yes</text><text fill="#000000" font-family="sans-serif" font-size="11" lengthAdjust="spacing" textLength="15.0149" x="362.9982" y="334.4976">No</text><rect fill="#F1F1F1" height="36.3441" rx="12.5" ry="12.5" style="stroke:#181818;stroke-width:0.5;" width="282.8979" x="11" y="359.7206"/><text fill="#000000" font-family="sans-serif" font-size="12" lengthAdjust="spacing" textLength="262.8979" x="21" y="382.5487">The user enters the information and submits it</text><rect fill="#F1F1F1" height="36.3441" rx="12.5" ry="12.5" style="stroke:#181818;stroke-width:0.5;" width="193.2212" x="313.8979" y="359.7206"/><text fill="#000000" font-family="sans-serif" font-size="12" lengthAdjust="spacing" textLength="173.2212" x="323.8979" y="382.5487">The user cancels the operation</text><polygon fill="#F1F1F1" points="281.4787,402.0647,293.4787,414.0647,281.4787,426.0647,269.4787,414.0647,281.4787,402.0647" style="stroke:#181818;stroke-width:0.5;"/><rect fill="#F1F1F1" height="36.3441" rx="12.5" ry="12.5" style="stroke:#181818;stroke-width:0.5;" width="324.3102" x="537.1191" y="140.3441"/><text fill="#000000" font-family="sans-serif" font-size="12" lengthAdjust="spacing" textLength="304.3102" x="547.1191" y="163.1722">The user issues the DSL command to create a new tag</text><polygon fill="#F1F1F1" points="490.3765,432.0647,502.3765,444.0647,490.3765,456.0647,478.3765,444.0647,490.3765,432.0647" style="stroke:#181818;stroke-width:0.5;"/><ellipse cx="490.3765" cy="487.0647" fill="none" rx="11" ry="11" style="stroke:#222222;stroke-width:1;"/><ellipse cx="490.3765" cy="487.0647" fill="#222222" rx="6" ry="6" style="stroke:#222222;stroke-width:1;"/><line style="stroke:#181818;stroke-width:1;" x1="490.3765" x2="490.3765" y1="30" y2="50"/><polygon fill="#181818" points="486.3765,40,490.3765,50,494.3765,40,490.3765,44" style="stroke:#181818;stroke-width:1;"/><line style="stroke:#181818;stroke-width:1;" x1="281.4787" x2="281.4787" y1="176.6882" y2="196.6882"/><polygon fill="#181818" points="277.4787,186.6882,281.4787,196.6882,285.4787,186.6882,281.4787,190.6882" style="stroke:#181818;stroke-width:1;"/><line style="stroke:#181818;stroke-width:1;" x1="281.4787" x2="281.4787" y1="233.0323" y2="253.0323"/><polygon fill="#181818" points="277.4787,243.0323,281.4787,253.0323,285.4787,243.0323,281.4787,247.0323" style="stroke:#181818;stroke-width:1;"/><line style="stroke:#181818;stroke-width:1;" x1="199.9592" x2="152.4489" y1="337.7206" y2="337.7206"/><line style="stroke:#181818;stroke-width:1;" x1="152.4489" x2="152.4489" y1="337.7206" y2="359.7206"/><polygon fill="#181818" points="148.4489,349.7206,152.4489,359.7206,156.4489,349.7206,152.4489,353.7206" style="stroke:#181818;stroke-width:1;"/><line style="stroke:#181818;stroke-width:1;" x1="362.9982" x2="410.5085" y1="337.7206" y2="337.7206"/><line style="stroke:#181818;stroke-width:1;" x1="410.5085" x2="410.5085" y1="337.7206" y2="359.7206"/><polygon fill="#181818" points="406.5085,349.7206,410.5085,359.7206,414.5085,349.7206,410.5085,353.7206" style="stroke:#181818;stroke-width:1;"/><line style="stroke:#181818;stroke-width:1;" x1="152.4489" x2="152.4489" y1="396.0647" y2="414.0647"/><line style="stroke:#181818;stroke-width:1;" x1="152.4489" x2="269.4787" y1="414.0647" y2="414.0647"/><polygon fill="#181818" points="259.4787,410.0647,269.4787,414.0647,259.4787,418.0647,263.4787,414.0647" style="stroke:#181818;stroke-width:1;"/><line style="stroke:#181818;stroke-width:1;" x1="410.5085" x2="410.5085" y1="396.0647" y2="414.0647"/><line style="stroke:#181818;stroke-width:1;" x1="410.5085" x2="293.4787" y1="414.0647" y2="414.0647"/><polygon fill="#181818" points="303.4787,410.0647,293.4787,414.0647,303.4787,418.0647,299.4787,414.0647" style="stroke:#181818;stroke-width:1;"/><line style="stroke:#181818;stroke-width:1;" x1="281.4787" x2="281.4787" y1="305.7206" y2="325.7206"/><polygon fill="#181818" points="277.4787,315.7206,281.4787,325.7206,285.4787,315.7206,281.4787,319.7206" style="stroke:#181818;stroke-width:1;"/><line style="stroke:#181818;stroke-width:1;" x1="399.694" x2="281.4787" y1="118.3441" y2="118.3441"/><line style="stroke:#181818;stroke-width:1;" x1="281.4787" x2="281.4787" y1="118.3441" y2="140.3441"/><polygon fill="#181818" points="277.4787,130.3441,281.4787,140.3441,285.4787,130.3441,281.4787,134.3441" style="stroke:#181818;stroke-width:1;"/><line style="stroke:#181818;stroke-width:1;" x1="581.0589" x2="699.2742" y1="118.3441" y2="118.3441"/><line style="stroke:#181818;stroke-width:1;" x1="699.2742" x2="699.2742" y1="118.3441" y2="140.3441"/><polygon fill="#181818" points="695.2742,130.3441,699.2742,140.3441,703.2742,130.3441,699.2742,134.3441" style="stroke:#181818;stroke-width:1;"/><line style="stroke:#181818;stroke-width:1;" x1="281.4787" x2="281.4787" y1="426.0647" y2="444.0647"/><line style="stroke:#181818;stroke-width:1;" x1="281.4787" x2="478.3765" y1="444.0647" y2="444.0647"/><polygon fill="#181818" points="468.3765,440.0647,478.3765,444.0647,468.3765,448.0647,472.3765,444.0647" style="stroke:#181818;stroke-width:1;"/><line style="stroke:#181818;stroke-width:1;" x1="699.2742" x2="699.2742" y1="176.6882" y2="444.0647"/><line style="stroke:#181818;stroke-width:1;" x1="699.2742" x2="502.3765" y1="444.0647" y2="444.0647"/><polygon fill="#181818" points="512.3765,440.0647,502.3765,444.0647,512.3765,448.0647,508.3765,444.0647" style="stroke:#181818;stroke-width:1;"/><line style="stroke:#181818;stroke-width:1;" x1="490.3765" x2="490.3765" y1="86.3441" y2="106.3441"/><polygon fill="#181818" points="486.3765,96.3441,490.3765,106.3441,494.3765,96.3441,490.3765,100.3441" style="stroke:#181818;stroke-width:1;"/><line style="stroke:#181818;stroke-width:1;" x1="490.3765" x2="490.3765" y1="456.0647" y2="476.0647"/><polygon fill="#181818" points="486.3765,466.0647,490.3765,476.0647,494.3765,466.0647,490.3765,470.0647" style="stroke:#181818;stroke-width:1;"/><!--SRC=[TL0zQyGm3DtpAyHDkR_GJ8M3KYXTsXiANHHRQGon52o5SF- -YdD33jhDyllGUrB3OitJvqYmA1MGcLZ1V1pIHD0NMVsxQz80xKLeXofpHJOmsGPukRwUDuIX_I8z7_oKi8JHTOCKm6hQFS0J1LCuFSS8XZydI5nNPEBbJjIR6cM8IUS9R-ek6mZhI8KgzvkhLq06OlDNua40UrciukvxAF0GVYuIYE8_uQlRNdcpB1aj2GDo15twd3nuigwXoK_GlijHwc62_rUjtxHKfLCvfk5FGL9TxkUzVBn1a9otFPun548Zhysqxbrs5pMPVm40]--></g></svg>