<svg xmlns="http://www.w3.org/2000/svg" xmlns:xlink="http://www.w3.org/1999/xlink" contentStyleType="text/css" height="783px" preserveAspectRatio="none" style="width:601px;height:783px;background:#FFFFFF;" version="1.1" viewBox="0 0 601 783" width="601px" zoomAndPan="magnify"><defs/><g><ellipse cx="324.9161" cy="20" fill="#222222" rx="10" ry="10" style="stroke:#222222;stroke-width:1.0;"/><rect fill="#F1F1F1" height="36.3441" rx="12.5" ry="12.5" style="stroke:#181818;stroke-width:0.5;" width="198.0213" x="225.9054" y="50"/><text fill="#000000" font-family="sans-serif" font-size="12" lengthAdjust="spacing" textLength="178.0213" x="235.9054" y="72.8281">The user opens the file browser</text><rect fill="#F1F1F1" height="36.3441" rx="12.5" ry="12.5" style="stroke:#181818;stroke-width:0.5;" width="328.6303" x="160.6009" y="106.3441"/><text fill="#000000" font-family="sans-serif" font-size="12" lengthAdjust="spacing" textLength="308.6303" x="170.6009" y="129.1722">The user searches for a file (more in its own user story)</text><rect fill="#F1F1F1" height="36.3441" rx="12.5" ry="12.5" style="stroke:#181818;stroke-width:0.5;" width="220.3414" x="214.7454" y="162.6882"/><text fill="#000000" font-family="sans-serif" font-size="12" lengthAdjust="spacing" textLength="200.3414" x="224.7454" y="185.5163">The user views the menu on the file</text><rect fill="#F1F1F1" height="36.3441" rx="12.5" ry="12.5" style="stroke:#181818;stroke-width:0.5;" width="323.7702" x="163.031" y="219.0323"/><text fill="#000000" font-family="sans-serif" font-size="12" lengthAdjust="spacing" textLength="303.7702" x="173.031" y="241.8604">The system shows the menu with different operations</text><polygon fill="#F1F1F1" points="245.4086,275.3765,404.4235,275.3765,416.4235,287.3765,404.4235,299.3765,245.4086,299.3765,233.4086,287.3765,245.4086,275.3765" style="stroke:#181818;stroke-width:0.5;"/><text fill="#000000" font-family="sans-serif" font-size="11" lengthAdjust="spacing" textLength="159.0149" x="245.4086" y="291.6444">Is the file local or a remote link</text><text fill="#000000" font-family="sans-serif" font-size="11" lengthAdjust="spacing" textLength="26.7078" x="203.8408" y="284.1535">Local</text><text fill="#000000" font-family="sans-serif" font-size="11" lengthAdjust="spacing" textLength="40.1607" x="419.2835" y="284.1535">Remote</text><rect fill="#F1F1F1" height="36.3441" rx="12.5" ry="12.5" style="stroke:#181818;stroke-width:0.5;" width="267.2618" x="41.3182" y="309.3765"/><text fill="#000000" font-family="sans-serif" font-size="12" lengthAdjust="spacing" textLength="247.2618" x="51.3182" y="332.2045">The user selects "Create a new relationship"</text><rect fill="#F1F1F1" height="36.3441" rx="12.5" ry="12.5" style="stroke:#181818;stroke-width:0.5;" width="209.5534" x="70.1724" y="365.7206"/><text fill="#000000" font-family="sans-serif" font-size="12" lengthAdjust="spacing" textLength="189.5534" x="80.1724" y="388.5487">The user searches for another file</text><rect fill="#F1F1F1" height="36.3441" rx="12.5" ry="12.5" style="stroke:#181818;stroke-width:0.5;" width="220.3414" x="64.7784" y="422.0647"/><text fill="#000000" font-family="sans-serif" font-size="12" lengthAdjust="spacing" textLength="200.3414" x="74.7784" y="444.8928">The user views the menu on the file</text><rect fill="#F1F1F1" height="36.3441" rx="12.5" ry="12.5" style="stroke:#181818;stroke-width:0.5;" width="323.7702" x="13.064" y="478.4088"/><text fill="#000000" font-family="sans-serif" font-size="12" lengthAdjust="spacing" textLength="303.7702" x="23.064" y="501.2369">The system shows the menu with different operations</text><rect fill="#F1F1F1" height="36.3441" rx="12.5" ry="12.5" style="stroke:#181818;stroke-width:0.5;" width="327.8983" x="11" y="534.7529"/><text fill="#000000" font-family="sans-serif" font-size="12" lengthAdjust="spacing" textLength="307.8983" x="21" y="557.581">The user selects an operation "Add to the relationship"</text><rect fill="#F1F1F1" height="36.3441" rx="12.5" ry="12.5" style="stroke:#181818;stroke-width:0.5;" width="231.9696" x="358.8983" y="309.3765"/><text fill="#000000" font-family="sans-serif" font-size="12" lengthAdjust="spacing" textLength="211.9696" x="368.8983" y="332.2045">The user selects "Add a new web link"</text><polygon fill="#F1F1F1" points="324.9161,577.097,336.9161,589.097,324.9161,601.097,312.9161,589.097,324.9161,577.097" style="stroke:#181818;stroke-width:0.5;"/><rect fill="#F1F1F1" height="52.6882" rx="12.5" ry="12.5" style="stroke:#181818;stroke-width:0.5;" width="322.6182" x="163.607" y="621.097"/><text fill="#000000" font-family="sans-serif" font-size="12" lengthAdjust="spacing" textLength="302.6182" x="173.607" y="643.9251">The system displays a menu where the user can enter</text><text fill="#000000" font-family="sans-serif" font-size="12" lengthAdjust="spacing" textLength="281.318" x="176.727" y="660.2692">info about the relationship (name, is bidirectional)</text><rect fill="#F1F1F1" height="36.3441" rx="12.5" ry="12.5" style="stroke:#181818;stroke-width:0.5;" width="282.8979" x="183.4671" y="693.7853"/><text fill="#000000" font-family="sans-serif" font-size="12" lengthAdjust="spacing" textLength="262.8979" x="193.4671" y="716.6133">The user enters the information and submits it</text><ellipse cx="324.9161" cy="761.1294" fill="none" rx="11" ry="11" style="stroke:#222222;stroke-width:1.0;"/><ellipse cx="324.9161" cy="761.1294" fill="#222222" rx="6" ry="6" style="stroke:#222222;stroke-width:1.0;"/><line style="stroke:#181818;stroke-width:1.0;" x1="324.9161" x2="324.9161" y1="30" y2="50"/><polygon fill="#181818" points="320.9161,40,324.9161,50,328.9161,40,324.9161,44" style="stroke:#181818;stroke-width:1.0;"/><line style="stroke:#181818;stroke-width:1.0;" x1="324.9161" x2="324.9161" y1="86.3441" y2="106.3441"/><polygon fill="#181818" points="320.9161,96.3441,324.9161,106.3441,328.9161,96.3441,324.9161,100.3441" style="stroke:#181818;stroke-width:1.0;"/><line style="stroke:#181818;stroke-width:1.0;" x1="324.9161" x2="324.9161" y1="142.6882" y2="162.6882"/><polygon fill="#181818" points="320.9161,152.6882,324.9161,162.6882,328.9161,152.6882,324.9161,156.6882" style="stroke:#181818;stroke-width:1.0;"/><line style="stroke:#181818;stroke-width:1.0;" x1="324.9161" x2="324.9161" y1="199.0323" y2="219.0323"/><polygon fill="#181818" points="320.9161,209.0323,324.9161,219.0323,328.9161,209.0323,324.9161,213.0323" style="stroke:#181818;stroke-width:1.0;"/><line style="stroke:#181818;stroke-width:1.0;" x1="174.9491" x2="174.9491" y1="345.7206" y2="365.7206"/><polygon fill="#181818" points="170.9491,355.7206,174.9491,365.7206,178.9491,355.7206,174.9491,359.7206" style="stroke:#181818;stroke-width:1.0;"/><line style="stroke:#181818;stroke-width:1.0;" x1="174.9491" x2="174.9491" y1="402.0647" y2="422.0647"/><polygon fill="#181818" points="170.9491,412.0647,174.9491,422.0647,178.9491,412.0647,174.9491,416.0647" style="stroke:#181818;stroke-width:1.0;"/><line style="stroke:#181818;stroke-width:1.0;" x1="174.9491" x2="174.9491" y1="458.4088" y2="478.4088"/><polygon fill="#181818" points="170.9491,468.4088,174.9491,478.4088,178.9491,468.4088,174.9491,472.4088" style="stroke:#181818;stroke-width:1.0;"/><line style="stroke:#181818;stroke-width:1.0;" x1="174.9491" x2="174.9491" y1="514.7529" y2="534.7529"/><polygon fill="#181818" points="170.9491,524.7529,174.9491,534.7529,178.9491,524.7529,174.9491,528.7529" style="stroke:#181818;stroke-width:1.0;"/><line style="stroke:#181818;stroke-width:1.0;" x1="233.4086" x2="174.9491" y1="287.3765" y2="287.3765"/><line style="stroke:#181818;stroke-width:1.0;" x1="174.9491" x2="174.9491" y1="287.3765" y2="309.3765"/><polygon fill="#181818" points="170.9491,299.3765,174.9491,309.3765,178.9491,299.3765,174.9491,303.3765" style="stroke:#181818;stroke-width:1.0;"/><line style="stroke:#181818;stroke-width:1.0;" x1="416.4235" x2="474.883" y1="287.3765" y2="287.3765"/><line style="stroke:#181818;stroke-width:1.0;" x1="474.883" x2="474.883" y1="287.3765" y2="309.3765"/><polygon fill="#181818" points="470.883,299.3765,474.883,309.3765,478.883,299.3765,474.883,303.3765" style="stroke:#181818;stroke-width:1.0;"/><line style="stroke:#181818;stroke-width:1.0;" x1="174.9491" x2="174.9491" y1="571.097" y2="589.097"/><line style="stroke:#181818;stroke-width:1.0;" x1="174.9491" x2="312.9161" y1="589.097" y2="589.097"/><polygon fill="#181818" points="302.9161,585.097,312.9161,589.097,302.9161,593.097,306.9161,589.097" style="stroke:#181818;stroke-width:1.0;"/><line style="stroke:#181818;stroke-width:1.0;" x1="474.883" x2="474.883" y1="345.7206" y2="589.097"/><line style="stroke:#181818;stroke-width:1.0;" x1="474.883" x2="336.9161" y1="589.097" y2="589.097"/><polygon fill="#181818" points="346.9161,585.097,336.9161,589.097,346.9161,593.097,342.9161,589.097" style="stroke:#181818;stroke-width:1.0;"/><line style="stroke:#181818;stroke-width:1.0;" x1="324.9161" x2="324.9161" y1="255.3765" y2="275.3765"/><polygon fill="#181818" points="320.9161,265.3765,324.9161,275.3765,328.9161,265.3765,324.9161,269.3765" style="stroke:#181818;stroke-width:1.0;"/><line style="stroke:#181818;stroke-width:1.0;" x1="324.9161" x2="324.9161" y1="601.097" y2="621.097"/><polygon fill="#181818" points="320.9161,611.097,324.9161,621.097,328.9161,611.097,324.9161,615.097" style="stroke:#181818;stroke-width:1.0;"/><line style="stroke:#181818;stroke-width:1.0;" x1="324.9161" x2="324.9161" y1="673.7853" y2="693.7853"/><polygon fill="#181818" points="320.9161,683.7853,324.9161,693.7853,328.9161,683.7853,324.9161,687.7853" style="stroke:#181818;stroke-width:1.0;"/><line style="stroke:#181818;stroke-width:1.0;" x1="324.9161" x2="324.9161" y1="730.1294" y2="750.1294"/><polygon fill="#181818" points="320.9161,740.1294,324.9161,750.1294,328.9161,740.1294,324.9161,744.1294" style="stroke:#181818;stroke-width:1.0;"/><!--SRC=[jPAnJiGm38RtUmhhffx44z09CI4n8KQMj7LLYyIkx9JgtXutEK6FWv4noU_Vt-_OSj1yk7-T41P31PcH3R8VHue8dShgr-rEOHYqdz1W58LGPKqIHI06oWQoyaMPHS-dVUq7uLhT4_82mb-TBYexMyO4DibUjrAUOA1nH4NE6wE6JCBM7cY4vca77AKF4GgPOfBiDyJlfqt0qC1pUJvTnOdOE_NnKJ6uF03ZwhMnTfXeFlwTdiLzTH_WdsBUyWR-5i3nOHWWIx7wWOxH_7_WfGxZr-HRSOszObVcjTMnarpH3cHp36TlVS7rw5XQ5hlUYHmRzStNW4U1qCcIRv2WuP3m3iYWeu7K4VmbnAizAJvrCfkLfXepy02sT6dRCihjmHTi_WG0]--></g></svg>