<?xml version="1.0" encoding="UTF-8" standalone="no"?>
<!DOCTYPE svg PUBLIC "-//W3C//DTD SVG 1.1//EN"
 "http://www.w3.org/Graphics/SVG/1.1/DTD/svg11.dtd">
<!-- Generated by graphviz version 15.0.0 (20260523.1842)
 -->
<!-- Title: GraphleUIComponents Pages: 1 -->
<svg width="1709pt" height="618pt"
 viewBox="0.00 0.00 1709.00 618.00" xmlns="http://www.w3.org/2000/svg" xmlns:xlink="http://www.w3.org/1999/xlink">
<g id="graph0" class="graph" transform="scale(1 1) rotate(0) translate(18 600)">
<title>GraphleUIComponents</title>
<polygon fill="white" stroke="none" points="-18,18 -18,-600 1691.46,-600 1691.46,18 -18,18"/>
<g id="clust1" class="cluster">
<title>cluster_presentation</title>
<path fill="white" stroke="#90a4ae" stroke-dasharray="5,2" d="M211.53,-8C211.53,-8 598.59,-8 598.59,-8 604.59,-8 610.59,-14 610.59,-20 610.59,-20 610.59,-503 610.59,-503 610.59,-509 604.59,-515 598.59,-515 598.59,-515 211.53,-515 211.53,-515 205.53,-515 199.53,-509 199.53,-503 199.53,-503 199.53,-20 199.53,-20 199.53,-14 205.53,-8 211.53,-8"/>
<text xml:space="preserve" text-anchor="middle" x="405.06" y="-499.6" font-family="Arial" font-size="12.00">Presentation and state</text>
</g>
<g id="clust2" class="cluster">
<title>cluster_application</title>
<path fill="white" stroke="#90a4ae" stroke-dasharray="5,2" d="M751.84,-288C751.84,-288 1188.4,-288 1188.4,-288 1194.4,-288 1200.4,-294 1200.4,-300 1200.4,-300 1200.4,-562 1200.4,-562 1200.4,-568 1194.4,-574 1188.4,-574 1188.4,-574 751.84,-574 751.84,-574 745.84,-574 739.84,-568 739.84,-562 739.84,-562 739.84,-300 739.84,-300 739.84,-294 745.84,-288 751.84,-288"/>
<text xml:space="preserve" text-anchor="middle" x="970.12" y="-558.6" font-family="Arial" font-size="12.00">Client application services</text>
</g>
<g id="clust3" class="cluster">
<title>cluster_transport</title>
<path fill="white" stroke="#90a4ae" stroke-dasharray="5,2" d="M1320.65,-230C1320.65,-230 1448.43,-230 1448.43,-230 1454.43,-230 1460.43,-236 1460.43,-242 1460.43,-242 1460.43,-491 1460.43,-491 1460.43,-497 1454.43,-503 1448.43,-503 1448.43,-503 1320.65,-503 1320.65,-503 1314.65,-503 1308.65,-497 1308.65,-491 1308.65,-491 1308.65,-242 1308.65,-242 1308.65,-236 1314.65,-230 1320.65,-230"/>
<text xml:space="preserve" text-anchor="middle" x="1384.54" y="-487.6" font-family="Arial" font-size="12.00">Backend transports</text>
</g>
<!-- user&#45;&gt;app -->
<g id="edge1" class="edge">
<title>user&#45;&gt;app</title>
<path fill="none" stroke="#546e7a" stroke-width="1.1" d="M58.36,-257C94.87,-257 158.93,-257 204.71,-257"/>
<polygon fill="#546e7a" stroke="#546e7a" stroke-width="1.1" points="204.65,-259.45 211.65,-257 204.65,-254.55 204.65,-259.45"/>
<text xml:space="preserve" text-anchor="middle" x="135.66" y="-258.95" font-family="Arial" font-size="9.00">uses desktop window</text>
</g>
<!-- app&#45;&gt;state -->
<g id="edge2" class="edge">
<title>app&#45;&gt;state</title>
<path fill="none" stroke="#546e7a" stroke-width="1.1" d="M295.07,-283.49C316.17,-299.56 339.06,-317 339.06,-317 339.06,-317 417.7,-369.93 474.22,-407.98"/>
<polygon fill="#546e7a" stroke="#546e7a" stroke-width="1.1" points="472.79,-409.97 479.97,-411.85 475.53,-405.91 472.79,-409.97"/>
<text xml:space="preserve" text-anchor="middle" x="385.94" y="-379.58" font-family="Arial" font-size="9.00">owns mutable state</text>
</g>
<!-- app&#45;&gt;header -->
<g id="edge3" class="edge">
<title>app&#45;&gt;header</title>
<path fill="none" stroke="#546e7a" stroke-width="1.1" d="M305.66,-244.62C323.17,-239.84 339.06,-235.5 339.06,-235.5 339.06,-235.5 420.88,-217.78 477.6,-205.5"/>
<polygon fill="#546e7a" stroke="#546e7a" stroke-width="1.1" points="477.82,-207.96 484.14,-204.08 476.78,-203.17 477.82,-207.96"/>
<text xml:space="preserve" text-anchor="middle" x="385.94" y="-237.45" font-family="Arial" font-size="9.00">renders</text>
</g>
<!-- app&#45;&gt;dialogs -->
<g id="edge4" class="edge">
<title>app&#45;&gt;dialogs</title>
<path fill="none" stroke="#546e7a" stroke-width="1.1" d="M293.7,-230.49C315.17,-213.46 339.06,-194.5 339.06,-194.5 339.06,-194.5 419.55,-141.37 476.2,-103.98"/>
<polygon fill="#546e7a" stroke="#546e7a" stroke-width="1.1" points="477.45,-106.09 481.94,-100.19 474.75,-102 477.45,-106.09"/>
<text xml:space="preserve" text-anchor="middle" x="385.94" y="-196.45" font-family="Arial" font-size="9.00">renders</text>
</g>
<!-- app&#45;&gt;bodies -->
<g id="edge5" class="edge">
<title>app&#45;&gt;bodies</title>
<path fill="none" stroke="#546e7a" stroke-width="1.1" d="M305.55,-267.54C347.13,-277.23 409.46,-291.75 458.01,-303.06"/>
<polygon fill="#546e7a" stroke="#546e7a" stroke-width="1.1" points="457.29,-305.41 464.67,-304.62 458.4,-300.64 457.29,-305.41"/>
<text xml:space="preserve" text-anchor="middle" x="385.94" y="-297.95" font-family="Arial" font-size="9.00">renders selected mode</text>
</g>
<!-- header&#45;&gt;dsl_handler -->
<g id="edge7" class="edge">
<title>header&#45;&gt;dsl_handler</title>
<path fill="none" stroke="#546e7a" stroke-width="1.1" d="M578,-219.3C633.39,-250.22 719.84,-298.5 719.84,-298.5 719.84,-298.5 739.84,-463 739.84,-463 739.84,-463 752.93,-471.23 768.37,-480.95"/>
<polygon fill="#546e7a" stroke="#546e7a" stroke-width="1.1" points="766.95,-482.95 774.18,-484.61 769.56,-478.8 766.95,-482.95"/>
<text xml:space="preserve" text-anchor="middle" x="675.22" y="-300.45" font-family="Arial" font-size="9.00">submit DSL command</text>
</g>
<!-- header&#45;&gt;websocket -->
<g id="edge6" class="edge">
<title>header&#45;&gt;websocket</title>
<path fill="none" stroke="#546e7a" stroke-width="1.1" d="M577.84,-197.66C717.73,-209.01 1144.67,-243.63 1313.64,-257.33"/>
<polygon fill="#546e7a" stroke="#546e7a" stroke-width="1.1" points="1313.38,-259.77 1320.55,-257.89 1313.78,-254.88 1313.38,-259.77"/>
<text xml:space="preserve" text-anchor="middle" x="957.75" y="-233.63" font-family="Arial" font-size="9.00">autocomplete prefix</text>
</g>
<!-- dialogs&#45;&gt;file_fetcher -->
<g id="edge11" class="edge">
<title>dialogs&#45;&gt;file_fetcher</title>
<path fill="none" stroke="#546e7a" stroke-width="1.1" d="M579.92,-82.51C635.36,-99.54 719.84,-125.5 719.84,-125.5 719.84,-125.5 739.84,-266 739.84,-266 739.84,-266 762,-281.65 782.69,-296.26"/>
<polygon fill="#546e7a" stroke="#546e7a" stroke-width="1.1" points="781.12,-298.15 788.25,-300.18 783.94,-294.14 781.12,-298.15"/>
<text xml:space="preserve" text-anchor="middle" x="675.22" y="-127.45" font-family="Arial" font-size="9.00">refresh current file</text>
</g>
<!-- dialogs&#45;&gt;graphql_commands -->
<g id="edge10" class="edge">
<title>dialogs&#45;&gt;graphql_commands</title>
<path fill="none" stroke="#546e7a" stroke-width="1.1" d="M580.28,-66.76C683.27,-64.09 917.62,-58 917.62,-58 917.62,-58 997.87,-58 997.87,-58 997.87,-58 1064.39,-220.88 1094.1,-293.63"/>
<polygon fill="#546e7a" stroke="#546e7a" stroke-width="1.1" points="1091.82,-294.52 1096.73,-300.08 1096.35,-292.67 1091.82,-294.52"/>
<text xml:space="preserve" text-anchor="middle" x="818.73" y="-64.45" font-family="Arial" font-size="9.00">mutations</text>
</g>
<!-- bodies&#45;&gt;file_fetcher -->
<g id="edge12" class="edge">
<title>bodies&#45;&gt;file_fetcher</title>
<path fill="none" stroke="#546e7a" stroke-width="1.1" d="M597.02,-320.23C650.97,-320.41 726.56,-320.68 773.81,-320.85"/>
<polygon fill="#546e7a" stroke="#546e7a" stroke-width="1.1" points="773.61,-323.3 780.62,-320.87 773.63,-318.4 773.61,-323.3"/>
<text xml:space="preserve" text-anchor="middle" x="675.22" y="-322.6" font-family="Arial" font-size="9.00">navigate files</text>
</g>
<!-- bodies&#45;&gt;graphql_commands -->
<g id="edge13" class="edge">
<title>bodies&#45;&gt;graphql_commands</title>
<path fill="none" stroke="#546e7a" stroke-width="1.1" d="M597.1,-300.41C657.91,-281.92 739.84,-257 739.84,-257 739.84,-257 883.62,-257 883.62,-257 883.62,-257 959.8,-281.09 1023.41,-301.21"/>
<polygon fill="#546e7a" stroke="#546e7a" stroke-width="1.1" points="1022.5,-303.49 1029.91,-303.26 1023.97,-298.82 1022.5,-303.49"/>
<text xml:space="preserve" text-anchor="middle" x="818.73" y="-269.45" font-family="Arial" font-size="9.00">remove tag/relationship</text>
<text xml:space="preserve" text-anchor="middle" x="818.73" y="-258.95" font-family="Arial" font-size="9.00">query by tag</text>
</g>
<!-- bodies&#45;&gt;file_util -->
<g id="edge14" class="edge">
<title>bodies&#45;&gt;file_util</title>
<path fill="none" stroke="#546e7a" stroke-width="1.1" d="M597.02,-340.99C641.17,-355.39 699.81,-374.52 745.55,-389.45"/>
<polygon fill="#546e7a" stroke="#546e7a" stroke-width="1.1" points="744.64,-391.73 752.06,-391.57 746.16,-387.07 744.64,-391.73"/>
<text xml:space="preserve" text-anchor="middle" x="675.22" y="-382.21" font-family="Arial" font-size="9.00">open file</text>
</g>
<!-- file_fetcher&#45;&gt;graphql_commands -->
<g id="edge15" class="edge">
<title>file_fetcher&#45;&gt;graphql_commands</title>
<path fill="none" stroke="#546e7a" stroke-width="1.1" d="M855.09,-321.86C896.58,-322.87 966.81,-324.57 1022.77,-325.93"/>
<polygon fill="#546e7a" stroke="#546e7a" stroke-width="1.1" points="1022.55,-328.37 1029.61,-326.09 1022.67,-323.47 1022.55,-328.37"/>
<text xml:space="preserve" text-anchor="middle" x="957.75" y="-327.08" font-family="Arial" font-size="9.00">fileByLocation</text>
</g>
<!-- graphql_commands&#45;&gt;apollo -->
<g id="edge16" class="edge">
<title>graphql_commands&#45;&gt;apollo</title>
<path fill="none" stroke="#546e7a" stroke-width="1.1" d="M1186.66,-333.88C1226.92,-336.97 1275.89,-340.73 1314.91,-343.73"/>
<polygon fill="#546e7a" stroke="#546e7a" stroke-width="1.1" points="1314.25,-346.14 1321.42,-344.23 1314.63,-341.25 1314.25,-346.14"/>
<text xml:space="preserve" text-anchor="middle" x="1254.53" y="-343.56" font-family="Arial" font-size="9.00">typed operations</text>
</g>
<!-- dsl_handler&#45;&gt;state -->
<g id="edge9" class="edge">
<title>dsl_handler&#45;&gt;state</title>
<path fill="none" stroke="#546e7a" stroke-width="1.1" d="M753.36,-497.09C705.04,-485.91 639.38,-470.7 592.26,-459.79"/>
<polygon fill="#546e7a" stroke="#546e7a" stroke-width="1.1" points="592.98,-457.44 585.61,-458.25 591.88,-462.22 592.98,-457.44"/>
<text xml:space="preserve" text-anchor="middle" x="675.22" y="-490.72" font-family="Arial" font-size="9.00">maps DSLResponse</text>
</g>
<!-- dsl_handler&#45;&gt;rest -->
<g id="edge8" class="edge">
<title>dsl_handler&#45;&gt;rest</title>
<path fill="none" stroke="#546e7a" stroke-width="1.1" d="M883.95,-506.25C1012.37,-494.75 1288.65,-470 1288.65,-470 1288.65,-470 1306.57,-464.52 1326.83,-458.33"/>
<polygon fill="#546e7a" stroke="#546e7a" stroke-width="1.1" points="1327.41,-460.72 1333.39,-456.33 1325.98,-456.03 1327.41,-460.72"/>
<text xml:space="preserve" text-anchor="middle" x="1109.14" y="-494.35" font-family="Arial" font-size="9.00">POST command</text>
</g>
<!-- file_util&#45;&gt;rest -->
<g id="edge17" class="edge">
<title>file_util&#45;&gt;rest</title>
<path fill="none" stroke="#546e7a" stroke-width="1.1" d="M883.58,-416.17C994.35,-421.67 1220.4,-432.9 1326.34,-438.16"/>
<polygon fill="#546e7a" stroke="#546e7a" stroke-width="1.1" points="1326.21,-440.61 1333.33,-438.51 1326.46,-435.71 1326.21,-440.61"/>
<text xml:space="preserve" text-anchor="middle" x="1109.14" y="-433.54" font-family="Arial" font-size="9.00">remote download</text>
</g>
<!-- apollo&#45;&gt;manager -->
<g id="edge18" class="edge">
<title>apollo&#45;&gt;manager</title>
<path fill="none" stroke="#546e7a" stroke-width="1.1" d="M1446.14,-349C1478.75,-349 1518.96,-349 1552.08,-349"/>
<polygon fill="#546e7a" stroke="#546e7a" stroke-width="1.1" points="1551.68,-351.45 1558.68,-349 1551.68,-346.55 1551.68,-351.45"/>
<text xml:space="preserve" text-anchor="middle" x="1503.68" y="-350.95" font-family="Arial" font-size="9.00">GraphQL</text>
</g>
<!-- rest&#45;&gt;manager -->
<g id="edge19" class="edge">
<title>rest&#45;&gt;manager</title>
<path fill="none" stroke="#546e7a" stroke-width="1.1" d="M1434.17,-421.6C1470.33,-407.18 1519.81,-387.45 1558.05,-372.19"/>
<polygon fill="#546e7a" stroke="#546e7a" stroke-width="1.1" points="1558.89,-374.49 1564.49,-369.62 1557.08,-369.94 1558.89,-374.49"/>
<text xml:space="preserve" text-anchor="middle" x="1503.68" y="-402.46" font-family="Arial" font-size="9.00">REST</text>
</g>
<!-- websocket&#45;&gt;manager -->
<g id="edge20" class="edge">
<title>websocket&#45;&gt;manager</title>
<path fill="none" stroke="#546e7a" stroke-width="1.1" d="M1438.75,-282.84C1473.38,-295.75 1518.67,-312.64 1554.82,-326.12"/>
<polygon fill="#546e7a" stroke="#546e7a" stroke-width="1.1" points="1553.88,-328.38 1561.3,-328.53 1555.59,-323.79 1553.88,-328.38"/>
<text xml:space="preserve" text-anchor="middle" x="1503.68" y="-315.65" font-family="Arial" font-size="9.00">WebSocket</text>
</g>
<!-- user -->
<g id="node1" class="node">
<title>user</title>
<path fill="#fff7dd" stroke="#8a6d3b" stroke-width="1.2" d="M45.78,-276.26C45.78,-276.26 12,-276.26 12,-276.26 6,-276.26 0,-270.26 0,-264.26 0,-264.26 0,-249.74 0,-249.74 0,-243.74 6,-237.74 12,-237.74 12,-237.74 45.78,-237.74 45.78,-237.74 51.78,-237.74 57.78,-243.74 57.78,-249.74 57.78,-249.74 57.78,-264.26 57.78,-264.26 57.78,-270.26 51.78,-276.26 45.78,-276.26"/>
<text xml:space="preserve" text-anchor="middle" x="28.89" y="-260.05" font-family="Arial" font-size="11.00">User</text>
<text xml:space="preserve" text-anchor="middle" x="28.89" y="-246.55" font-family="Arial" font-size="11.00">[Person]</text>
</g>
<!-- app -->
<g id="node2" class="node">
<title>app</title>
<path fill="#e8f5e9" stroke="#2e7d32" stroke-width="1.2" d="M293.06,-283.01C293.06,-283.01 225.53,-283.01 225.53,-283.01 219.53,-283.01 213.53,-277.01 213.53,-271.01 213.53,-271.01 213.53,-242.99 213.53,-242.99 213.53,-236.99 219.53,-230.99 225.53,-230.99 225.53,-230.99 293.06,-230.99 293.06,-230.99 299.06,-230.99 305.06,-236.99 305.06,-242.99 305.06,-242.99 305.06,-271.01 305.06,-271.01 305.06,-277.01 299.06,-283.01 293.06,-283.01"/>
<text xml:space="preserve" text-anchor="middle" x="259.3" y="-266.8" font-family="Arial" font-size="11.00">Application root</text>
<text xml:space="preserve" text-anchor="middle" x="259.3" y="-253.3" font-family="Arial" font-size="11.00">Main.kt</text>
<text xml:space="preserve" text-anchor="middle" x="259.3" y="-239.8" font-family="Arial" font-size="11.00">App.kt</text>
</g>
<!-- state -->
<g id="node3" class="node">
<title>state</title>
<path fill="#e8f5e9" stroke="#2e7d32" stroke-width="1.2" d="M571.47,-478.76C571.47,-478.76 491.94,-478.76 491.94,-478.76 485.94,-478.76 479.94,-472.76 479.94,-466.76 479.94,-466.76 479.94,-425.24 479.94,-425.24 479.94,-419.24 485.94,-413.24 491.94,-413.24 491.94,-413.24 571.47,-413.24 571.47,-413.24 577.47,-413.24 583.47,-419.24 583.47,-425.24 583.47,-425.24 583.47,-466.76 583.47,-466.76 583.47,-472.76 577.47,-478.76 571.47,-478.76"/>
<text xml:space="preserve" text-anchor="middle" x="531.7" y="-462.55" font-family="Arial" font-size="11.00">Displayed state</text>
<text xml:space="preserve" text-anchor="middle" x="531.7" y="-449.05" font-family="Arial" font-size="11.00">DisplayedSettings</text>
<text xml:space="preserve" text-anchor="middle" x="531.7" y="-435.55" font-family="Arial" font-size="11.00">DisplayedData</text>
<text xml:space="preserve" text-anchor="middle" x="531.7" y="-422.05" font-family="Arial" font-size="11.00">DisplayMode</text>
</g>
<!-- header -->
<g id="node4" class="node">
<title>header</title>
<path fill="#e8f5e9" stroke="#2e7d32" stroke-width="1.2" d="M565.47,-226.76C565.47,-226.76 497.94,-226.76 497.94,-226.76 491.94,-226.76 485.94,-220.76 485.94,-214.76 485.94,-214.76 485.94,-173.24 485.94,-173.24 485.94,-167.24 491.94,-161.24 497.94,-161.24 497.94,-161.24 565.47,-161.24 565.47,-161.24 571.47,-161.24 577.47,-167.24 577.47,-173.24 577.47,-173.24 577.47,-214.76 577.47,-214.76 577.47,-220.76 571.47,-226.76 565.47,-226.76"/>
<text xml:space="preserve" text-anchor="middle" x="531.7" y="-210.55" font-family="Arial" font-size="11.00">Header module</text>
<text xml:space="preserve" text-anchor="middle" x="531.7" y="-197.05" font-family="Arial" font-size="11.00">Header</text>
<text xml:space="preserve" text-anchor="middle" x="531.7" y="-183.55" font-family="Arial" font-size="11.00">CommandLine</text>
<text xml:space="preserve" text-anchor="middle" x="531.7" y="-170.05" font-family="Arial" font-size="11.00">AppMenu</text>
</g>
<!-- dialogs -->
<g id="node5" class="node">
<title>dialogs</title>
<path fill="#e8f5e9" stroke="#2e7d32" stroke-width="1.2" d="M567.72,-114.26C567.72,-114.26 495.69,-114.26 495.69,-114.26 489.69,-114.26 483.69,-108.26 483.69,-102.26 483.69,-102.26 483.69,-33.74 483.69,-33.74 483.69,-27.74 489.69,-21.74 495.69,-21.74 495.69,-21.74 567.72,-21.74 567.72,-21.74 573.72,-21.74 579.72,-27.74 579.72,-33.74 579.72,-33.74 579.72,-102.26 579.72,-102.26 579.72,-108.26 573.72,-114.26 567.72,-114.26"/>
<text xml:space="preserve" text-anchor="middle" x="531.7" y="-98.05" font-family="Arial" font-size="11.00">Dialog module</text>
<text xml:space="preserve" text-anchor="middle" x="531.7" y="-84.55" font-family="Arial" font-size="11.00">AddTag</text>
<text xml:space="preserve" text-anchor="middle" x="531.7" y="-71.05" font-family="Arial" font-size="11.00">AddRelationship</text>
<text xml:space="preserve" text-anchor="middle" x="531.7" y="-57.55" font-family="Arial" font-size="11.00">AddFile</text>
<text xml:space="preserve" text-anchor="middle" x="531.7" y="-44.05" font-family="Arial" font-size="11.00">MoveFile</text>
<text xml:space="preserve" text-anchor="middle" x="531.7" y="-30.55" font-family="Arial" font-size="11.00">DeleteFile</text>
</g>
<!-- bodies -->
<g id="node6" class="node">
<title>bodies</title>
<path fill="#e8f5e9" stroke="#2e7d32" stroke-width="1.2" d="M584.59,-366.26C584.59,-366.26 478.81,-366.26 478.81,-366.26 472.81,-366.26 466.81,-360.26 466.81,-354.26 466.81,-354.26 466.81,-285.74 466.81,-285.74 466.81,-279.74 472.81,-273.74 478.81,-273.74 478.81,-273.74 584.59,-273.74 584.59,-273.74 590.59,-273.74 596.59,-279.74 596.59,-285.74 596.59,-285.74 596.59,-354.26 596.59,-354.26 596.59,-360.26 590.59,-366.26 584.59,-366.26"/>
<text xml:space="preserve" text-anchor="middle" x="531.7" y="-350.05" font-family="Arial" font-size="11.00">Body and feature views</text>
<text xml:space="preserve" text-anchor="middle" x="531.7" y="-336.55" font-family="Arial" font-size="11.00">DisplayedBody</text>
<text xml:space="preserve" text-anchor="middle" x="531.7" y="-323.05" font-family="Arial" font-size="11.00">FileBody</text>
<text xml:space="preserve" text-anchor="middle" x="531.7" y="-309.55" font-family="Arial" font-size="11.00">FilenameBody</text>
<text xml:space="preserve" text-anchor="middle" x="531.7" y="-296.05" font-family="Arial" font-size="11.00">FilesWithTagBody</text>
<text xml:space="preserve" text-anchor="middle" x="531.7" y="-282.55" font-family="Arial" font-size="11.00">TagsView</text>
</g>
<!-- file_fetcher -->
<g id="node7" class="node">
<title>file_fetcher</title>
<path fill="#fffde7" stroke="#8a7b1f" stroke-width="1.2" d="M842.75,-340.26C842.75,-340.26 794.72,-340.26 794.72,-340.26 788.72,-340.26 782.72,-334.26 782.72,-328.26 782.72,-328.26 782.72,-313.74 782.72,-313.74 782.72,-307.74 788.72,-301.74 794.72,-301.74 794.72,-301.74 842.75,-301.74 842.75,-301.74 848.75,-301.74 854.75,-307.74 854.75,-313.74 854.75,-313.74 854.75,-328.26 854.75,-328.26 854.75,-334.26 848.75,-340.26 842.75,-340.26"/>
<text xml:space="preserve" text-anchor="middle" x="818.73" y="-324.05" font-family="Arial" font-size="11.00">File loading</text>
<text xml:space="preserve" text-anchor="middle" x="818.73" y="-310.55" font-family="Arial" font-size="11.00">FileFetcher</text>
</g>
<!-- graphql_commands -->
<g id="node8" class="node">
<title>graphql_commands</title>
<path fill="#fffde7" stroke="#8a7b1f" stroke-width="1.2" d="M1174.4,-354.01C1174.4,-354.01 1043.87,-354.01 1043.87,-354.01 1037.87,-354.01 1031.87,-348.01 1031.87,-342.01 1031.87,-342.01 1031.87,-313.99 1031.87,-313.99 1031.87,-307.99 1037.87,-301.99 1043.87,-301.99 1043.87,-301.99 1174.4,-301.99 1174.4,-301.99 1180.4,-301.99 1186.4,-307.99 1186.4,-313.99 1186.4,-313.99 1186.4,-342.01 1186.4,-342.01 1186.4,-348.01 1180.4,-354.01 1174.4,-354.01"/>
<text xml:space="preserve" text-anchor="middle" x="1109.14" y="-337.8" font-family="Arial" font-size="11.00">GraphQL command wrapper</text>
<text xml:space="preserve" text-anchor="middle" x="1109.14" y="-324.3" font-family="Arial" font-size="11.00">GraphQLCommands</text>
<text xml:space="preserve" text-anchor="middle" x="1109.14" y="-310.8" font-family="Arial" font-size="11.00">Apollo generated operations</text>
</g>
<!-- dsl_handler -->
<g id="node9" class="node">
<title>dsl_handler</title>
<path fill="#fffde7" stroke="#8a7b1f" stroke-width="1.2" d="M871.62,-538.01C871.62,-538.01 765.84,-538.01 765.84,-538.01 759.84,-538.01 753.84,-532.01 753.84,-526.01 753.84,-526.01 753.84,-497.99 753.84,-497.99 753.84,-491.99 759.84,-485.99 765.84,-485.99 765.84,-485.99 871.62,-485.99 871.62,-485.99 877.62,-485.99 883.62,-491.99 883.62,-497.99 883.62,-497.99 883.62,-526.01 883.62,-526.01 883.62,-532.01 877.62,-538.01 871.62,-538.01"/>
<text xml:space="preserve" text-anchor="middle" x="818.73" y="-521.8" font-family="Arial" font-size="11.00">DSL response handling</text>
<text xml:space="preserve" text-anchor="middle" x="818.73" y="-508.3" font-family="Arial" font-size="11.00">DSLCommandHandler</text>
<text xml:space="preserve" text-anchor="middle" x="818.73" y="-494.8" font-family="Arial" font-size="11.00">DSLHistory</text>
</g>
<!-- file_util -->
<g id="node10" class="node">
<title>file_util</title>
<path fill="#fffde7" stroke="#8a7b1f" stroke-width="1.2" d="M871.25,-439.01C871.25,-439.01 766.22,-439.01 766.22,-439.01 760.22,-439.01 754.22,-433.01 754.22,-427.01 754.22,-427.01 754.22,-398.99 754.22,-398.99 754.22,-392.99 760.22,-386.99 766.22,-386.99 766.22,-386.99 871.25,-386.99 871.25,-386.99 877.25,-386.99 883.25,-392.99 883.25,-398.99 883.25,-398.99 883.25,-427.01 883.25,-427.01 883.25,-433.01 877.25,-439.01 871.25,-439.01"/>
<text xml:space="preserve" text-anchor="middle" x="818.73" y="-422.8" font-family="Arial" font-size="11.00">File utility layer</text>
<text xml:space="preserve" text-anchor="middle" x="818.73" y="-409.3" font-family="Arial" font-size="11.00">FileUtil</text>
<text xml:space="preserve" text-anchor="middle" x="818.73" y="-395.8" font-family="Arial" font-size="11.00">open/download helpers</text>
</g>
<!-- apollo -->
<g id="node11" class="node">
<title>apollo</title>
<path fill="#e3f2fd" stroke="#1e5f8f" stroke-width="1.2" d="M1433.68,-368.26C1433.68,-368.26 1335.4,-368.26 1335.4,-368.26 1329.4,-368.26 1323.4,-362.26 1323.4,-356.26 1323.4,-356.26 1323.4,-341.74 1323.4,-341.74 1323.4,-335.74 1329.4,-329.74 1335.4,-329.74 1335.4,-329.74 1433.68,-329.74 1433.68,-329.74 1439.68,-329.74 1445.68,-335.74 1445.68,-341.74 1445.68,-341.74 1445.68,-356.26 1445.68,-356.26 1445.68,-362.26 1439.68,-368.26 1433.68,-368.26"/>
<text xml:space="preserve" text-anchor="middle" x="1384.54" y="-352.05" font-family="Arial" font-size="11.00">Apollo GraphQL client</text>
<text xml:space="preserve" text-anchor="middle" x="1384.54" y="-338.55" font-family="Arial" font-size="11.00">/graphql</text>
</g>
<!-- rest -->
<g id="node12" class="node">
<title>rest</title>
<path fill="#e3f2fd" stroke="#1e5f8f" stroke-width="1.2" d="M1421.68,-467.01C1421.68,-467.01 1347.4,-467.01 1347.4,-467.01 1341.4,-467.01 1335.4,-461.01 1335.4,-455.01 1335.4,-455.01 1335.4,-426.99 1335.4,-426.99 1335.4,-420.99 1341.4,-414.99 1347.4,-414.99 1347.4,-414.99 1421.68,-414.99 1421.68,-414.99 1427.68,-414.99 1433.68,-420.99 1433.68,-426.99 1433.68,-426.99 1433.68,-455.01 1433.68,-455.01 1433.68,-461.01 1427.68,-467.01 1421.68,-467.01"/>
<text xml:space="preserve" text-anchor="middle" x="1384.54" y="-450.8" font-family="Arial" font-size="11.00">Ktor REST client</text>
<text xml:space="preserve" text-anchor="middle" x="1384.54" y="-437.3" font-family="Arial" font-size="11.00">/dsl</text>
<text xml:space="preserve" text-anchor="middle" x="1384.54" y="-423.8" font-family="Arial" font-size="11.00">/download</text>
</g>
<!-- websocket -->
<g id="node13" class="node">
<title>websocket</title>
<path fill="#e3f2fd" stroke="#1e5f8f" stroke-width="1.2" d="M1434.43,-282.26C1434.43,-282.26 1334.65,-282.26 1334.65,-282.26 1328.65,-282.26 1322.65,-276.26 1322.65,-270.26 1322.65,-270.26 1322.65,-255.74 1322.65,-255.74 1322.65,-249.74 1328.65,-243.74 1334.65,-243.74 1334.65,-243.74 1434.43,-243.74 1434.43,-243.74 1440.43,-243.74 1446.43,-249.74 1446.43,-255.74 1446.43,-255.74 1446.43,-270.26 1446.43,-270.26 1446.43,-276.26 1440.43,-282.26 1434.43,-282.26"/>
<text xml:space="preserve" text-anchor="middle" x="1384.54" y="-266.05" font-family="Arial" font-size="11.00">Ktor WebSocket client</text>
<text xml:space="preserve" text-anchor="middle" x="1384.54" y="-252.55" font-family="Arial" font-size="11.00">/ws autocomplete</text>
</g>
<!-- manager -->
<g id="node14" class="node">
<title>manager</title>
<path fill="#e3f2fd" stroke="#1e5f8f" stroke-width="1.5" d="M1661.46,-368.26C1661.46,-368.26 1572.93,-368.26 1572.93,-368.26 1566.93,-368.26 1560.93,-362.26 1560.93,-356.26 1560.93,-356.26 1560.93,-341.74 1560.93,-341.74 1560.93,-335.74 1566.93,-329.74 1572.93,-329.74 1572.93,-329.74 1661.46,-329.74 1661.46,-329.74 1667.46,-329.74 1673.46,-335.74 1673.46,-341.74 1673.46,-341.74 1673.46,-356.26 1673.46,-356.26 1673.46,-362.26 1667.46,-368.26 1661.46,-368.26"/>
<text xml:space="preserve" text-anchor="middle" x="1617.2" y="-352.05" font-family="Arial" font-size="11.00">GraphleManager</text>
<text xml:space="preserve" text-anchor="middle" x="1617.2" y="-338.55" font-family="Arial" font-size="11.00">[Backend container]</text>
</g>
</g>
</svg>
