<?xml version="1.0" encoding="UTF-8" standalone="no"?>
<!DOCTYPE svg PUBLIC "-//W3C//DTD SVG 1.1//EN"
 "http://www.w3.org/Graphics/SVG/1.1/DTD/svg11.dtd">
<!-- Generated by graphviz version 15.0.0 (20260523.1842)
 -->
<!-- Title: GraphleUIComponents Pages: 1 -->
<svg width="2806pt" height="844pt"
 viewBox="0.00 0.00 2806.00 844.00" xmlns="http://www.w3.org/2000/svg" xmlns:xlink="http://www.w3.org/1999/xlink">
<g id="graph0" class="graph" transform="scale(1 1) rotate(0) translate(18 826)">
<title>GraphleUIComponents</title>
<polygon fill="white" stroke="none" points="-18,18 -18,-826 2787.96,-826 2787.96,18 -18,18"/>
<g id="clust1" class="cluster">
<title>cluster_presentation</title>
<path fill="white" stroke="#90a4ae" stroke-dasharray="5,2" d="M327.03,-8C327.03,-8 987.84,-8 987.84,-8 993.84,-8 999.84,-14 999.84,-20 999.84,-20 999.84,-750 999.84,-750 999.84,-756 993.84,-762 987.84,-762 987.84,-762 327.03,-762 327.03,-762 321.03,-762 315.03,-756 315.03,-750 315.03,-750 315.03,-20 315.03,-20 315.03,-14 321.03,-8 327.03,-8"/>
<text xml:space="preserve" text-anchor="middle" x="657.43" y="-740.9" font-family="Arial" font-size="18.00">Presentation and state</text>
</g>
<g id="clust2" class="cluster">
<title>cluster_application</title>
<path fill="white" stroke="#90a4ae" stroke-dasharray="5,2" d="M1219.09,-411C1219.09,-411 1977.4,-411 1977.4,-411 1983.4,-411 1989.4,-417 1989.4,-423 1989.4,-423 1989.4,-788 1989.4,-788 1989.4,-794 1983.4,-800 1977.4,-800 1977.4,-800 1219.09,-800 1219.09,-800 1213.09,-800 1207.09,-794 1207.09,-788 1207.09,-788 1207.09,-423 1207.09,-423 1207.09,-417 1213.09,-411 1219.09,-411"/>
<text xml:space="preserve" text-anchor="middle" x="1598.24" y="-778.9" font-family="Arial" font-size="18.00">Client application services</text>
</g>
<g id="clust3" class="cluster">
<title>cluster_transport</title>
<path fill="white" stroke="#90a4ae" stroke-dasharray="5,2" d="M2168.9,-326C2168.9,-326 2406.18,-326 2406.18,-326 2412.18,-326 2418.18,-332 2418.18,-338 2418.18,-338 2418.18,-678 2418.18,-678 2418.18,-684 2412.18,-690 2406.18,-690 2406.18,-690 2168.9,-690 2168.9,-690 2162.9,-690 2156.9,-684 2156.9,-678 2156.9,-678 2156.9,-338 2156.9,-338 2156.9,-332 2162.9,-326 2168.9,-326"/>
<text xml:space="preserve" text-anchor="middle" x="2287.54" y="-668.9" font-family="Arial" font-size="18.00">Backend transports</text>
</g>
<!-- user&#45;&gt;app -->
<g id="edge1" class="edge">
<title>user&#45;&gt;app</title>
<path fill="none" stroke="#546e7a" stroke-width="1.1" d="M99.32,-382C155.78,-382 249.97,-382 320.32,-382"/>
<polygon fill="#546e7a" stroke="#546e7a" stroke-width="1.1" points="320.11,-384.45 327.11,-382 320.11,-379.55 320.11,-384.45"/>
<text xml:space="preserve" text-anchor="middle" x="214.03" y="-385.35" font-family="Arial" font-size="17.00">uses desktop window</text>
</g>
<!-- app&#45;&gt;state -->
<g id="edge2" class="edge">
<title>app&#45;&gt;state</title>
<path fill="none" stroke="#546e7a" stroke-width="1.1" d="M471.74,-426.43C501.54,-449.53 531.81,-473 531.81,-473 531.81,-473 661.93,-547.35 758.95,-602.79"/>
<polygon fill="#546e7a" stroke="#546e7a" stroke-width="1.1" points="757.72,-604.91 765.01,-606.25 760.15,-600.65 757.72,-604.91"/>
<text xml:space="preserve" text-anchor="middle" x="619.56" y="-576.52" font-family="Arial" font-size="17.00">owns mutable state</text>
</g>
<!-- app&#45;&gt;header -->
<g id="edge3" class="edge">
<title>app&#45;&gt;header</title>
<path fill="none" stroke="#546e7a" stroke-width="1.1" d="M498.19,-364.8C576.2,-348.79 692.18,-324.98 772.23,-308.55"/>
<polygon fill="#546e7a" stroke="#546e7a" stroke-width="1.1" points="772.36,-311.02 778.72,-307.21 771.37,-306.22 772.36,-311.02"/>
<text xml:space="preserve" text-anchor="middle" x="619.56" y="-360.68" font-family="Arial" font-size="17.00">renders</text>
</g>
<!-- app&#45;&gt;dialogs -->
<g id="edge4" class="edge">
<title>app&#45;&gt;dialogs</title>
<path fill="none" stroke="#546e7a" stroke-width="1.1" d="M472.08,-337.55C501.77,-314.66 531.81,-291.5 531.81,-291.5 531.81,-291.5 669.82,-213.27 767.55,-157.87"/>
<polygon fill="#546e7a" stroke="#546e7a" stroke-width="1.1" points="768.47,-160.16 773.36,-154.58 766.06,-155.9 768.47,-160.16"/>
<text xml:space="preserve" text-anchor="middle" x="619.56" y="-294.85" font-family="Arial" font-size="17.00">renders</text>
</g>
<!-- app&#45;&gt;bodies -->
<g id="edge5" class="edge">
<title>app&#45;&gt;bodies</title>
<path fill="none" stroke="#546e7a" stroke-width="1.1" d="M498.19,-399.57C564.06,-413.39 657.01,-432.88 732.54,-448.73"/>
<polygon fill="#546e7a" stroke="#546e7a" stroke-width="1.1" points="731.75,-451.06 739.1,-450.1 732.75,-446.27 731.75,-451.06"/>
<text xml:space="preserve" text-anchor="middle" x="619.56" y="-446.26" font-family="Arial" font-size="17.00">renders selected mode</text>
</g>
<!-- header&#45;&gt;dsl_handler -->
<g id="edge7" class="edge">
<title>header&#45;&gt;dsl_handler</title>
<path fill="none" stroke="#546e7a" stroke-width="1.1" d="M946.79,-326.33C1042.35,-368.55 1187.09,-432.5 1187.09,-432.5 1187.09,-432.5 1207.09,-646 1207.09,-646 1207.09,-646 1223.4,-654.1 1244.67,-664.67"/>
<polygon fill="#546e7a" stroke="#546e7a" stroke-width="1.1" points="1243.53,-666.84 1250.89,-667.76 1245.71,-662.45 1243.53,-666.84"/>
<text xml:space="preserve" text-anchor="middle" x="1103.46" y="-435.85" font-family="Arial" font-size="17.00">submit DSL command</text>
</g>
<!-- header&#45;&gt;websocket -->
<g id="edge6" class="edge">
<title>header&#45;&gt;websocket</title>
<path fill="none" stroke="#546e7a" stroke-width="1.1" d="M946.91,-294.69C1185.39,-308.27 1877.7,-347.71 2162.22,-363.92"/>
<polygon fill="#546e7a" stroke="#546e7a" stroke-width="1.1" points="2161.73,-366.34 2168.85,-364.3 2162.01,-361.45 2161.73,-366.34"/>
<text xml:space="preserve" text-anchor="middle" x="1573.87" y="-337.58" font-family="Arial" font-size="17.00">autocomplete prefix</text>
</g>
<!-- dialogs&#45;&gt;file_fetcher -->
<g id="edge11" class="edge">
<title>dialogs&#45;&gt;file_fetcher</title>
<path fill="none" stroke="#546e7a" stroke-width="1.1" d="M952.28,-135.41C1047.78,-169.61 1187.09,-219.5 1187.09,-219.5 1187.09,-219.5 1207.09,-389 1207.09,-389 1207.09,-389 1238.32,-404.51 1270.73,-420.61"/>
<polygon fill="#546e7a" stroke="#546e7a" stroke-width="1.1" points="1269.24,-422.61 1276.6,-423.53 1271.42,-418.22 1269.24,-422.61"/>
<text xml:space="preserve" text-anchor="middle" x="1103.46" y="-222.85" font-family="Arial" font-size="17.00">refresh current file</text>
</g>
<!-- dialogs&#45;&gt;graphql_commands -->
<g id="edge10" class="edge">
<title>dialogs&#45;&gt;graphql_commands</title>
<path fill="none" stroke="#546e7a" stroke-width="1.1" d="M952.64,-110.62C1157.53,-126.04 1648.87,-163 1648.87,-163 1648.87,-163 1746.57,-329.77 1797.72,-417.08"/>
<polygon fill="#546e7a" stroke="#546e7a" stroke-width="1.1" points="1795.57,-418.27 1801.23,-423.07 1799.8,-415.79 1795.57,-418.27"/>
<text xml:space="preserve" text-anchor="middle" x="1342.98" y="-151.92" font-family="Arial" font-size="17.00">mutations</text>
</g>
<!-- bodies&#45;&gt;file_fetcher -->
<g id="edge12" class="edge">
<title>bodies&#45;&gt;file_fetcher</title>
<path fill="none" stroke="#546e7a" stroke-width="1.1" d="M986.28,-470.9C1075.66,-467.16 1194.11,-462.19 1269.2,-459.05"/>
<polygon fill="#546e7a" stroke="#546e7a" stroke-width="1.1" points="1269.13,-461.5 1276.02,-458.76 1268.93,-456.61 1269.13,-461.5"/>
<text xml:space="preserve" text-anchor="middle" x="1103.46" y="-472.31" font-family="Arial" font-size="17.00">navigate files</text>
</g>
<!-- bodies&#45;&gt;graphql_commands -->
<g id="edge13" class="edge">
<title>bodies&#45;&gt;graphql_commands</title>
<path fill="none" stroke="#546e7a" stroke-width="1.1" d="M986.3,-435.49C1084.75,-402.72 1207.09,-362 1207.09,-362 1207.09,-362 1464.87,-362 1464.87,-362 1464.87,-362 1575.35,-394.54 1674.45,-423.73"/>
<polygon fill="#546e7a" stroke="#546e7a" stroke-width="1.1" points="1673.47,-426 1680.88,-425.63 1674.85,-421.3 1673.47,-426"/>
<text xml:space="preserve" text-anchor="middle" x="1342.98" y="-384.85" font-family="Arial" font-size="17.00">remove tag/relationship</text>
<text xml:space="preserve" text-anchor="middle" x="1342.98" y="-365.35" font-family="Arial" font-size="17.00">query by tag</text>
</g>
<!-- bodies&#45;&gt;file_util -->
<g id="edge14" class="edge">
<title>bodies&#45;&gt;file_util</title>
<path fill="none" stroke="#546e7a" stroke-width="1.1" d="M986.28,-502C1055.71,-516.84 1142.68,-535.42 1213.24,-550.49"/>
<polygon fill="#546e7a" stroke="#546e7a" stroke-width="1.1" points="1212.34,-552.81 1219.7,-551.87 1213.36,-548.02 1212.34,-552.81"/>
<text xml:space="preserve" text-anchor="middle" x="1103.46" y="-545.45" font-family="Arial" font-size="17.00">open file</text>
</g>
<!-- file_fetcher&#45;&gt;graphql_commands -->
<g id="edge15" class="edge">
<title>file_fetcher&#45;&gt;graphql_commands</title>
<path fill="none" stroke="#546e7a" stroke-width="1.1" d="M1408.27,-457.73C1475.68,-459.54 1584.07,-462.45 1673.83,-464.86"/>
<polygon fill="#546e7a" stroke="#546e7a" stroke-width="1.1" points="1673.73,-467.3 1680.8,-465.04 1673.87,-462.41 1673.73,-467.3"/>
<text xml:space="preserve" text-anchor="middle" x="1573.87" y="-467.4" font-family="Arial" font-size="17.00">fileByLocation</text>
</g>
<!-- graphql_commands&#45;&gt;apollo -->
<g id="edge16" class="edge">
<title>graphql_commands&#45;&gt;apollo</title>
<path fill="none" stroke="#546e7a" stroke-width="1.1" d="M1975.8,-472.83C2035.97,-474.41 2104.99,-476.23 2162.68,-477.74"/>
<polygon fill="#546e7a" stroke="#546e7a" stroke-width="1.1" points="2162.38,-480.19 2169.44,-477.92 2162.51,-475.29 2162.38,-480.19"/>
<text xml:space="preserve" text-anchor="middle" x="2073.15" y="-480.13" font-family="Arial" font-size="17.00">typed operations</text>
</g>
<!-- dsl_handler&#45;&gt;state -->
<g id="edge9" class="edge">
<title>dsl_handler&#45;&gt;state</title>
<path fill="none" stroke="#546e7a" stroke-width="1.1" d="M1220.76,-700.05C1143.17,-691.76 1043.51,-681.12 969.36,-673.19"/>
<polygon fill="#546e7a" stroke="#546e7a" stroke-width="1.1" points="969.77,-670.77 962.55,-672.47 969.25,-675.65 969.77,-670.77"/>
<text xml:space="preserve" text-anchor="middle" x="1103.46" y="-698.4" font-family="Arial" font-size="17.00">maps DSLResponse</text>
</g>
<!-- dsl_handler&#45;&gt;rest -->
<g id="edge8" class="edge">
<title>dsl_handler&#45;&gt;rest</title>
<path fill="none" stroke="#546e7a" stroke-width="1.1" d="M1465.27,-700.61C1687.39,-677.92 2136.9,-632 2136.9,-632 2136.9,-632 2160.62,-627.4 2189.17,-621.87"/>
<polygon fill="#546e7a" stroke="#546e7a" stroke-width="1.1" points="2189.29,-624.34 2195.7,-620.6 2188.36,-619.53 2189.29,-624.34"/>
<text xml:space="preserve" text-anchor="middle" x="1829.13" y="-681.24" font-family="Arial" font-size="17.00">POST command</text>
</g>
<!-- file_util&#45;&gt;rest -->
<g id="edge17" class="edge">
<title>file_util&#45;&gt;rest</title>
<path fill="none" stroke="#546e7a" stroke-width="1.1" d="M1464.31,-581.19C1652.95,-586.19 2014.63,-595.79 2188.49,-600.4"/>
<polygon fill="#546e7a" stroke="#546e7a" stroke-width="1.1" points="2188.4,-602.85 2195.46,-600.58 2188.53,-597.95 2188.4,-602.85"/>
<text xml:space="preserve" text-anchor="middle" x="1829.13" y="-598.34" font-family="Arial" font-size="17.00">remote download</text>
</g>
<!-- apollo&#45;&gt;manager -->
<g id="edge18" class="edge">
<title>apollo&#45;&gt;manager</title>
<path fill="none" stroke="#546e7a" stroke-width="1.1" d="M2403.87,-481C2450.27,-481 2503.64,-481 2549.89,-481"/>
<polygon fill="#546e7a" stroke="#546e7a" stroke-width="1.1" points="2549.77,-483.45 2556.77,-481 2549.77,-478.55 2549.77,-483.45"/>
<text xml:space="preserve" text-anchor="middle" x="2481.68" y="-484.35" font-family="Arial" font-size="17.00">GraphQL</text>
</g>
<!-- rest&#45;&gt;manager -->
<g id="edge19" class="edge">
<title>rest&#45;&gt;manager</title>
<path fill="none" stroke="#546e7a" stroke-width="1.1" d="M2377.89,-573.93C2431.8,-556.4 2500.77,-533.96 2557.44,-515.53"/>
<polygon fill="#546e7a" stroke="#546e7a" stroke-width="1.1" points="2557.87,-517.96 2563.77,-513.47 2556.35,-513.3 2557.87,-517.96"/>
<text xml:space="preserve" text-anchor="middle" x="2481.68" y="-556.28" font-family="Arial" font-size="17.00">REST</text>
</g>
<!-- websocket&#45;&gt;manager -->
<g id="edge20" class="edge">
<title>websocket&#45;&gt;manager</title>
<path fill="none" stroke="#546e7a" stroke-width="1.1" d="M2397.01,-402.82C2445.17,-416.94 2501.84,-433.56 2550.52,-447.84"/>
<polygon fill="#546e7a" stroke="#546e7a" stroke-width="1.1" points="2549.57,-450.11 2556.97,-449.73 2550.94,-445.41 2549.57,-450.11"/>
<text xml:space="preserve" text-anchor="middle" x="2481.68" y="-442.44" font-family="Arial" font-size="17.00">WebSocket</text>
</g>
<!-- user -->
<g id="node1" class="node">
<title>user</title>
<path fill="#fff7dd" stroke="#8a6d3b" stroke-width="1.2" d="M87.03,-413.26C87.03,-413.26 12,-413.26 12,-413.26 6,-413.26 0,-407.26 0,-401.26 0,-401.26 0,-362.74 0,-362.74 0,-356.74 6,-350.74 12,-350.74 12,-350.74 87.03,-350.74 87.03,-350.74 93.03,-350.74 99.03,-356.74 99.03,-362.74 99.03,-362.74 99.03,-401.26 99.03,-401.26 99.03,-407.26 93.03,-413.26 87.03,-413.26"/>
<text xml:space="preserve" text-anchor="middle" x="49.51" y="-386.6" font-family="Arial" font-size="22.00">User</text>
<text xml:space="preserve" text-anchor="middle" x="49.51" y="-361.1" font-family="Arial" font-size="22.00">[Person]</text>
</g>
<!-- app -->
<g id="node2" class="node">
<title>app</title>
<path fill="#e8f5e9" stroke="#2e7d32" stroke-width="1.2" d="M485.81,-426.01C485.81,-426.01 341.03,-426.01 341.03,-426.01 335.03,-426.01 329.03,-420.01 329.03,-414.01 329.03,-414.01 329.03,-349.99 329.03,-349.99 329.03,-343.99 335.03,-337.99 341.03,-337.99 341.03,-337.99 485.81,-337.99 485.81,-337.99 491.81,-337.99 497.81,-343.99 497.81,-349.99 497.81,-349.99 497.81,-414.01 497.81,-414.01 497.81,-420.01 491.81,-426.01 485.81,-426.01"/>
<text xml:space="preserve" text-anchor="middle" x="413.42" y="-399.35" font-family="Arial" font-size="22.00">Application root</text>
<text xml:space="preserve" text-anchor="middle" x="413.42" y="-373.85" font-family="Arial" font-size="22.00">Main.kt</text>
<text xml:space="preserve" text-anchor="middle" x="413.42" y="-348.35" font-family="Arial" font-size="22.00">App.kt</text>
</g>
<!-- state -->
<g id="node3" class="node">
<title>state</title>
<path fill="#e8f5e9" stroke="#2e7d32" stroke-width="1.2" d="M948.34,-718.76C948.34,-718.76 778.81,-718.76 778.81,-718.76 772.81,-718.76 766.81,-712.76 766.81,-706.76 766.81,-706.76 766.81,-617.24 766.81,-617.24 766.81,-611.24 772.81,-605.24 778.81,-605.24 778.81,-605.24 948.34,-605.24 948.34,-605.24 954.34,-605.24 960.34,-611.24 960.34,-617.24 960.34,-617.24 960.34,-706.76 960.34,-706.76 960.34,-712.76 954.34,-718.76 948.34,-718.76"/>
<text xml:space="preserve" text-anchor="middle" x="863.57" y="-692.1" font-family="Arial" font-size="22.00">Displayed state</text>
<text xml:space="preserve" text-anchor="middle" x="863.57" y="-666.6" font-family="Arial" font-size="22.00">DisplayedSettings</text>
<text xml:space="preserve" text-anchor="middle" x="863.57" y="-641.1" font-family="Arial" font-size="22.00">DisplayedData</text>
<text xml:space="preserve" text-anchor="middle" x="863.57" y="-615.6" font-family="Arial" font-size="22.00">DisplayMode</text>
</g>
<!-- header -->
<g id="node4" class="node">
<title>header</title>
<path fill="#e8f5e9" stroke="#2e7d32" stroke-width="1.2" d="M934.46,-346.76C934.46,-346.76 792.68,-346.76 792.68,-346.76 786.68,-346.76 780.68,-340.76 780.68,-334.76 780.68,-334.76 780.68,-245.24 780.68,-245.24 780.68,-239.24 786.68,-233.24 792.68,-233.24 792.68,-233.24 934.46,-233.24 934.46,-233.24 940.46,-233.24 946.46,-239.24 946.46,-245.24 946.46,-245.24 946.46,-334.76 946.46,-334.76 946.46,-340.76 940.46,-346.76 934.46,-346.76"/>
<text xml:space="preserve" text-anchor="middle" x="863.57" y="-320.1" font-family="Arial" font-size="22.00">Header module</text>
<text xml:space="preserve" text-anchor="middle" x="863.57" y="-294.6" font-family="Arial" font-size="22.00">Header</text>
<text xml:space="preserve" text-anchor="middle" x="863.57" y="-269.1" font-family="Arial" font-size="22.00">CommandLine</text>
<text xml:space="preserve" text-anchor="middle" x="863.57" y="-243.6" font-family="Arial" font-size="22.00">AppMenu</text>
</g>
<!-- dialogs -->
<g id="node5" class="node">
<title>dialogs</title>
<path fill="#e8f5e9" stroke="#2e7d32" stroke-width="1.2" d="M940.09,-186.26C940.09,-186.26 787.06,-186.26 787.06,-186.26 781.06,-186.26 775.06,-180.26 775.06,-174.26 775.06,-174.26 775.06,-33.74 775.06,-33.74 775.06,-27.74 781.06,-21.74 787.06,-21.74 787.06,-21.74 940.09,-21.74 940.09,-21.74 946.09,-21.74 952.09,-27.74 952.09,-33.74 952.09,-33.74 952.09,-174.26 952.09,-174.26 952.09,-180.26 946.09,-186.26 940.09,-186.26"/>
<text xml:space="preserve" text-anchor="middle" x="863.57" y="-159.6" font-family="Arial" font-size="22.00">Dialog module</text>
<text xml:space="preserve" text-anchor="middle" x="863.57" y="-134.1" font-family="Arial" font-size="22.00">AddTag</text>
<text xml:space="preserve" text-anchor="middle" x="863.57" y="-108.6" font-family="Arial" font-size="22.00">AddRelationship</text>
<text xml:space="preserve" text-anchor="middle" x="863.57" y="-83.1" font-family="Arial" font-size="22.00">AddFile</text>
<text xml:space="preserve" text-anchor="middle" x="863.57" y="-57.6" font-family="Arial" font-size="22.00">MoveFile</text>
<text xml:space="preserve" text-anchor="middle" x="863.57" y="-32.1" font-family="Arial" font-size="22.00">DeleteFile</text>
</g>
<!-- bodies -->
<g id="node6" class="node">
<title>bodies</title>
<path fill="#e8f5e9" stroke="#2e7d32" stroke-width="1.2" d="M973.84,-558.26C973.84,-558.26 753.31,-558.26 753.31,-558.26 747.31,-558.26 741.31,-552.26 741.31,-546.26 741.31,-546.26 741.31,-405.74 741.31,-405.74 741.31,-399.74 747.31,-393.74 753.31,-393.74 753.31,-393.74 973.84,-393.74 973.84,-393.74 979.84,-393.74 985.84,-399.74 985.84,-405.74 985.84,-405.74 985.84,-546.26 985.84,-546.26 985.84,-552.26 979.84,-558.26 973.84,-558.26"/>
<text xml:space="preserve" text-anchor="middle" x="863.57" y="-531.6" font-family="Arial" font-size="22.00">Body and feature views</text>
<text xml:space="preserve" text-anchor="middle" x="863.57" y="-506.1" font-family="Arial" font-size="22.00">DisplayedBody</text>
<text xml:space="preserve" text-anchor="middle" x="863.57" y="-480.6" font-family="Arial" font-size="22.00">FileBody</text>
<text xml:space="preserve" text-anchor="middle" x="863.57" y="-455.1" font-family="Arial" font-size="22.00">FilenameBody</text>
<text xml:space="preserve" text-anchor="middle" x="863.57" y="-429.6" font-family="Arial" font-size="22.00">FilesWithTagBody</text>
<text xml:space="preserve" text-anchor="middle" x="863.57" y="-404.1" font-family="Arial" font-size="22.00">TagsView</text>
</g>
<!-- file_fetcher -->
<g id="node7" class="node">
<title>file_fetcher</title>
<path fill="#fffde7" stroke="#8a7b1f" stroke-width="1.2" d="M1395.87,-487.26C1395.87,-487.26 1290.09,-487.26 1290.09,-487.26 1284.09,-487.26 1278.09,-481.26 1278.09,-475.26 1278.09,-475.26 1278.09,-436.74 1278.09,-436.74 1278.09,-430.74 1284.09,-424.74 1290.09,-424.74 1290.09,-424.74 1395.87,-424.74 1395.87,-424.74 1401.87,-424.74 1407.87,-430.74 1407.87,-436.74 1407.87,-436.74 1407.87,-475.26 1407.87,-475.26 1407.87,-481.26 1401.87,-487.26 1395.87,-487.26"/>
<text xml:space="preserve" text-anchor="middle" x="1342.98" y="-460.6" font-family="Arial" font-size="22.00">File loading</text>
<text xml:space="preserve" text-anchor="middle" x="1342.98" y="-435.1" font-family="Arial" font-size="22.00">FileFetcher</text>
</g>
<!-- graphql_commands -->
<g id="node8" class="node">
<title>graphql_commands</title>
<path fill="#fffde7" stroke="#8a7b1f" stroke-width="1.2" d="M1963.4,-513.01C1963.4,-513.01 1694.87,-513.01 1694.87,-513.01 1688.87,-513.01 1682.87,-507.01 1682.87,-501.01 1682.87,-501.01 1682.87,-436.99 1682.87,-436.99 1682.87,-430.99 1688.87,-424.99 1694.87,-424.99 1694.87,-424.99 1963.4,-424.99 1963.4,-424.99 1969.4,-424.99 1975.4,-430.99 1975.4,-436.99 1975.4,-436.99 1975.4,-501.01 1975.4,-501.01 1975.4,-507.01 1969.4,-513.01 1963.4,-513.01"/>
<text xml:space="preserve" text-anchor="middle" x="1829.13" y="-486.35" font-family="Arial" font-size="22.00">GraphQL command wrapper</text>
<text xml:space="preserve" text-anchor="middle" x="1829.13" y="-460.85" font-family="Arial" font-size="22.00">GraphQLCommands</text>
<text xml:space="preserve" text-anchor="middle" x="1829.13" y="-435.35" font-family="Arial" font-size="22.00">Apollo generated operations</text>
</g>
<!-- dsl_handler -->
<g id="node9" class="node">
<title>dsl_handler</title>
<path fill="#fffde7" stroke="#8a7b1f" stroke-width="1.2" d="M1452.87,-757.01C1452.87,-757.01 1233.09,-757.01 1233.09,-757.01 1227.09,-757.01 1221.09,-751.01 1221.09,-745.01 1221.09,-745.01 1221.09,-680.99 1221.09,-680.99 1221.09,-674.99 1227.09,-668.99 1233.09,-668.99 1233.09,-668.99 1452.87,-668.99 1452.87,-668.99 1458.87,-668.99 1464.87,-674.99 1464.87,-680.99 1464.87,-680.99 1464.87,-745.01 1464.87,-745.01 1464.87,-751.01 1458.87,-757.01 1452.87,-757.01"/>
<text xml:space="preserve" text-anchor="middle" x="1342.98" y="-730.35" font-family="Arial" font-size="22.00">DSL response handling</text>
<text xml:space="preserve" text-anchor="middle" x="1342.98" y="-704.85" font-family="Arial" font-size="22.00">DSLCommandHandler</text>
<text xml:space="preserve" text-anchor="middle" x="1342.98" y="-679.35" font-family="Arial" font-size="22.00">DSLHistory</text>
</g>
<!-- file_util -->
<g id="node10" class="node">
<title>file_util</title>
<path fill="#fffde7" stroke="#8a7b1f" stroke-width="1.2" d="M1452.12,-622.01C1452.12,-622.01 1233.84,-622.01 1233.84,-622.01 1227.84,-622.01 1221.84,-616.01 1221.84,-610.01 1221.84,-610.01 1221.84,-545.99 1221.84,-545.99 1221.84,-539.99 1227.84,-533.99 1233.84,-533.99 1233.84,-533.99 1452.12,-533.99 1452.12,-533.99 1458.12,-533.99 1464.12,-539.99 1464.12,-545.99 1464.12,-545.99 1464.12,-610.01 1464.12,-610.01 1464.12,-616.01 1458.12,-622.01 1452.12,-622.01"/>
<text xml:space="preserve" text-anchor="middle" x="1342.98" y="-595.35" font-family="Arial" font-size="22.00">File utility layer</text>
<text xml:space="preserve" text-anchor="middle" x="1342.98" y="-569.85" font-family="Arial" font-size="22.00">FileUtil</text>
<text xml:space="preserve" text-anchor="middle" x="1342.98" y="-544.35" font-family="Arial" font-size="22.00">open/download helpers</text>
</g>
<!-- apollo -->
<g id="node11" class="node">
<title>apollo</title>
<path fill="#e3f2fd" stroke="#1e5f8f" stroke-width="1.2" d="M2391.43,-512.26C2391.43,-512.26 2183.65,-512.26 2183.65,-512.26 2177.65,-512.26 2171.65,-506.26 2171.65,-500.26 2171.65,-500.26 2171.65,-461.74 2171.65,-461.74 2171.65,-455.74 2177.65,-449.74 2183.65,-449.74 2183.65,-449.74 2391.43,-449.74 2391.43,-449.74 2397.43,-449.74 2403.43,-455.74 2403.43,-461.74 2403.43,-461.74 2403.43,-500.26 2403.43,-500.26 2403.43,-506.26 2397.43,-512.26 2391.43,-512.26"/>
<text xml:space="preserve" text-anchor="middle" x="2287.54" y="-485.6" font-family="Arial" font-size="22.00">Apollo GraphQL client</text>
<text xml:space="preserve" text-anchor="middle" x="2287.54" y="-460.1" font-family="Arial" font-size="22.00">/graphql</text>
</g>
<!-- rest -->
<g id="node12" class="node">
<title>rest</title>
<path fill="#e3f2fd" stroke="#1e5f8f" stroke-width="1.2" d="M2365.55,-647.01C2365.55,-647.01 2209.52,-647.01 2209.52,-647.01 2203.52,-647.01 2197.52,-641.01 2197.52,-635.01 2197.52,-635.01 2197.52,-570.99 2197.52,-570.99 2197.52,-564.99 2203.52,-558.99 2209.52,-558.99 2209.52,-558.99 2365.55,-558.99 2365.55,-558.99 2371.55,-558.99 2377.55,-564.99 2377.55,-570.99 2377.55,-570.99 2377.55,-635.01 2377.55,-635.01 2377.55,-641.01 2371.55,-647.01 2365.55,-647.01"/>
<text xml:space="preserve" text-anchor="middle" x="2287.54" y="-620.35" font-family="Arial" font-size="22.00">Ktor REST client</text>
<text xml:space="preserve" text-anchor="middle" x="2287.54" y="-594.85" font-family="Arial" font-size="22.00">/dsl</text>
<text xml:space="preserve" text-anchor="middle" x="2287.54" y="-569.35" font-family="Arial" font-size="22.00">/download</text>
</g>
<!-- websocket -->
<g id="node13" class="node">
<title>websocket</title>
<path fill="#e3f2fd" stroke="#1e5f8f" stroke-width="1.2" d="M2392.18,-402.26C2392.18,-402.26 2182.9,-402.26 2182.9,-402.26 2176.9,-402.26 2170.9,-396.26 2170.9,-390.26 2170.9,-390.26 2170.9,-351.74 2170.9,-351.74 2170.9,-345.74 2176.9,-339.74 2182.9,-339.74 2182.9,-339.74 2392.18,-339.74 2392.18,-339.74 2398.18,-339.74 2404.18,-345.74 2404.18,-351.74 2404.18,-351.74 2404.18,-390.26 2404.18,-390.26 2404.18,-396.26 2398.18,-402.26 2392.18,-402.26"/>
<text xml:space="preserve" text-anchor="middle" x="2287.54" y="-375.6" font-family="Arial" font-size="22.00">Ktor WebSocket client</text>
<text xml:space="preserve" text-anchor="middle" x="2287.54" y="-350.1" font-family="Arial" font-size="22.00">/ws autocomplete</text>
</g>
<!-- manager -->
<g id="node14" class="node">
<title>manager</title>
<path fill="#e3f2fd" stroke="#1e5f8f" stroke-width="1.5" d="M2757.96,-512.26C2757.96,-512.26 2571.18,-512.26 2571.18,-512.26 2565.18,-512.26 2559.18,-506.26 2559.18,-500.26 2559.18,-500.26 2559.18,-461.74 2559.18,-461.74 2559.18,-455.74 2565.18,-449.74 2571.18,-449.74 2571.18,-449.74 2757.96,-449.74 2757.96,-449.74 2763.96,-449.74 2769.96,-455.74 2769.96,-461.74 2769.96,-461.74 2769.96,-500.26 2769.96,-500.26 2769.96,-506.26 2763.96,-512.26 2757.96,-512.26"/>
<text xml:space="preserve" text-anchor="middle" x="2664.57" y="-485.6" font-family="Arial" font-size="22.00">GraphleManager</text>
<text xml:space="preserve" text-anchor="middle" x="2664.57" y="-460.1" font-family="Arial" font-size="22.00">[Backend container]</text>
</g>
</g>
</svg>
