<?xml version="1.0" encoding="UTF-8" standalone="no"?>
<!DOCTYPE svg PUBLIC "-//W3C//DTD SVG 1.1//EN"
 "http://www.w3.org/Graphics/SVG/1.1/DTD/svg11.dtd">
<!-- Generated by graphviz version 15.0.0 (20260523.1842)
 -->
<!-- Title: GraphleContext Pages: 1 -->
<svg width="1122pt" height="434pt"
 viewBox="0.00 0.00 1122.00 434.00" xmlns="http://www.w3.org/2000/svg" xmlns:xlink="http://www.w3.org/1999/xlink">
<g id="graph0" class="graph" transform="scale(1 1) rotate(0) translate(18 415.79)">
<title>GraphleContext</title>
<polygon fill="white" stroke="none" points="-18,18 -18,-415.79 1103.73,-415.79 1103.73,18 -18,18"/>
<!-- user&#45;&gt;graphle -->
<g id="edge1" class="edge">
<title>user&#45;&gt;graphle</title>
<path fill="none" stroke="#546e7a" stroke-width="1.2" d="M259.95,-212.09C310.05,-212.09 367.19,-212.09 416.87,-212.09"/>
<polygon fill="#546e7a" stroke="#546e7a" stroke-width="1.2" points="416.74,-214.71 424.24,-212.09 416.74,-209.46 416.74,-214.71"/>
<text xml:space="preserve" text-anchor="middle" x="343.04" y="-214.59" font-family="Arial" font-size="10.00">uses GUI and DSL</text>
</g>
<!-- graphle&#45;&gt;filesystem -->
<g id="edge2" class="edge">
<title>graphle&#45;&gt;filesystem</title>
<path fill="none" stroke="#546e7a" stroke-width="1.2" d="M649.12,-248.59C713.99,-271.09 797.14,-299.92 863.39,-322.9"/>
<polygon fill="#546e7a" stroke="#546e7a" stroke-width="1.2" points="862.13,-325.24 870.08,-325.22 863.85,-320.28 862.13,-325.24"/>
<text xml:space="preserve" text-anchor="middle" x="764.07" y="-323.79" font-family="Arial" font-size="10.00">reads hierarchy</text>
<text xml:space="preserve" text-anchor="middle" x="764.07" y="-311.79" font-family="Arial" font-size="10.00">creates, moves, deletes files</text>
</g>
<!-- graphle&#45;&gt;neo4j -->
<g id="edge3" class="edge">
<title>graphle&#45;&gt;neo4j</title>
<path fill="none" stroke="#546e7a" stroke-width="1.2" d="M659.78,-212.09C730.4,-212.09 819.37,-212.09 885,-212.09"/>
<polygon fill="#546e7a" stroke="#546e7a" stroke-width="1.2" points="884.79,-214.71 892.29,-212.09 884.79,-209.46 884.79,-214.71"/>
<text xml:space="preserve" text-anchor="middle" x="764.07" y="-214.59" font-family="Arial" font-size="10.00">persists graph metadata</text>
</g>
<!-- graphle&#45;&gt;valkey -->
<g id="edge4" class="edge">
<title>graphle&#45;&gt;valkey</title>
<path fill="none" stroke="#546e7a" stroke-width="1.2" d="M640.66,-175.61C708.63,-150 799.52,-115.74 869.6,-89.34"/>
<polygon fill="#546e7a" stroke="#546e7a" stroke-width="1.2" points="870.25,-91.9 876.34,-86.8 868.39,-86.98 870.25,-91.9"/>
<text xml:space="preserve" text-anchor="middle" x="764.07" y="-164.48" font-family="Arial" font-size="10.00">updates and queries</text>
<text xml:space="preserve" text-anchor="middle" x="764.07" y="-152.48" font-family="Arial" font-size="10.00">autocomplete index</text>
</g>
<!-- user -->
<g id="node1" class="node">
<title>user</title>
<path fill="#fff7dd" stroke="#8a6d3b" stroke-width="1.3" d="M247.41,-247.79C247.41,-247.79 12,-247.79 12,-247.79 6,-247.79 0,-241.79 0,-235.79 0,-235.79 0,-188.39 0,-188.39 0,-182.39 6,-176.39 12,-176.39 12,-176.39 247.41,-176.39 247.41,-176.39 253.41,-176.39 259.41,-182.39 259.41,-188.39 259.41,-188.39 259.41,-235.79 259.41,-235.79 259.41,-241.79 253.41,-247.79 247.41,-247.79"/>
<text xml:space="preserve" text-anchor="middle" x="129.71" y="-229.19" font-family="Arial" font-size="12.00">User</text>
<text xml:space="preserve" text-anchor="middle" x="129.71" y="-214.94" font-family="Arial" font-size="12.00">[Person]</text>
<text xml:space="preserve" text-anchor="middle" x="129.71" y="-200.69" font-family="Arial" font-size="12.00">Browses files, creates tags and relationships,</text>
<text xml:space="preserve" text-anchor="middle" x="129.71" y="-186.44" font-family="Arial" font-size="12.00">and writes DSL commands.</text>
</g>
<!-- graphle -->
<g id="node2" class="node">
<title>graphle</title>
<path fill="#e3f2fd" stroke="#1e5f8f" stroke-width="1.7" d="M647.07,-247.79C647.07,-247.79 438.66,-247.79 438.66,-247.79 432.66,-247.79 426.66,-241.79 426.66,-235.79 426.66,-235.79 426.66,-188.39 426.66,-188.39 426.66,-182.39 432.66,-176.39 438.66,-176.39 438.66,-176.39 647.07,-176.39 647.07,-176.39 653.07,-176.39 659.07,-182.39 659.07,-188.39 659.07,-188.39 659.07,-235.79 659.07,-235.79 659.07,-241.79 653.07,-247.79 647.07,-247.79"/>
<text xml:space="preserve" text-anchor="middle" x="542.87" y="-229.19" font-family="Arial" font-size="12.00">Graphle</text>
<text xml:space="preserve" text-anchor="middle" x="542.87" y="-214.94" font-family="Arial" font-size="12.00">[Software system]</text>
<text xml:space="preserve" text-anchor="middle" x="542.87" y="-200.69" font-family="Arial" font-size="12.00">Graph&#45;oriented file management system</text>
<text xml:space="preserve" text-anchor="middle" x="542.87" y="-186.44" font-family="Arial" font-size="12.00">for existing local or remote filesystems.</text>
</g>
<!-- filesystem -->
<g id="node3" class="node">
<title>filesystem</title>
<path fill="#eeeeee" stroke="#737373" stroke-width="1.3" d="M1073.73,-397.79C1073.73,-397.79 881.07,-397.79 881.07,-397.79 875.07,-397.79 869.07,-391.79 869.07,-385.79 869.07,-385.79 869.07,-338.39 869.07,-338.39 869.07,-332.39 875.07,-326.39 881.07,-326.39 881.07,-326.39 1073.73,-326.39 1073.73,-326.39 1079.73,-326.39 1085.73,-332.39 1085.73,-338.39 1085.73,-338.39 1085.73,-385.79 1085.73,-385.79 1085.73,-391.79 1079.73,-397.79 1073.73,-397.79"/>
<text xml:space="preserve" text-anchor="middle" x="977.4" y="-379.19" font-family="Arial" font-size="12.00">Operating filesystem</text>
<text xml:space="preserve" text-anchor="middle" x="977.4" y="-364.94" font-family="Arial" font-size="12.00">[Existing system]</text>
<text xml:space="preserve" text-anchor="middle" x="977.4" y="-350.69" font-family="Arial" font-size="12.00">Source of file contents, file existence,</text>
<text xml:space="preserve" text-anchor="middle" x="977.4" y="-336.44" font-family="Arial" font-size="12.00">and directory hierarchy.</text>
</g>
<!-- neo4j -->
<g id="node4" class="node">
<title>neo4j</title>
<path fill="#f3e8ff" stroke="#6a3ea1" stroke-width="1.3" d="M1060.23,-252.25C1060.23,-257.17 1023.1,-261.18 977.4,-261.18 931.7,-261.18 894.57,-257.17 894.57,-252.25 894.57,-252.25 894.57,-171.93 894.57,-171.93 894.57,-167 931.7,-163 977.4,-163 1023.1,-163 1060.23,-167 1060.23,-171.93 1060.23,-171.93 1060.23,-252.25 1060.23,-252.25"/>
<path fill="none" stroke="#6a3ea1" stroke-width="1.3" d="M1060.23,-252.25C1060.23,-247.33 1023.1,-243.32 977.4,-243.32 931.7,-243.32 894.57,-247.33 894.57,-252.25"/>
<text xml:space="preserve" text-anchor="middle" x="977.4" y="-229.19" font-family="Arial" font-size="12.00">Neo4j</text>
<text xml:space="preserve" text-anchor="middle" x="977.4" y="-214.94" font-family="Arial" font-size="12.00">[External datastore]</text>
<text xml:space="preserve" text-anchor="middle" x="977.4" y="-200.69" font-family="Arial" font-size="12.00">Stores file nodes, tags,</text>
<text xml:space="preserve" text-anchor="middle" x="977.4" y="-186.44" font-family="Arial" font-size="12.00">and semantic relationships.</text>
</g>
<!-- valkey -->
<g id="node5" class="node">
<title>valkey</title>
<path fill="#f3e8ff" stroke="#6a3ea1" stroke-width="1.3" d="M1076.36,-89.25C1076.36,-94.17 1032,-98.18 977.4,-98.18 922.8,-98.18 878.44,-94.17 878.44,-89.25 878.44,-89.25 878.44,-8.92 878.44,-8.92 878.44,-4 922.8,0 977.4,0 1032,0 1076.36,-4 1076.36,-8.92 1076.36,-8.92 1076.36,-89.25 1076.36,-89.25"/>
<path fill="none" stroke="#6a3ea1" stroke-width="1.3" d="M1076.36,-89.25C1076.36,-84.33 1032,-80.33 977.4,-80.33 922.8,-80.33 878.44,-84.33 878.44,-89.25"/>
<text xml:space="preserve" text-anchor="middle" x="977.4" y="-66.19" font-family="Arial" font-size="12.00">Valkey</text>
<text xml:space="preserve" text-anchor="middle" x="977.4" y="-51.94" font-family="Arial" font-size="12.00">[External datastore]</text>
<text xml:space="preserve" text-anchor="middle" x="977.4" y="-37.69" font-family="Arial" font-size="12.00">Stores the filename autocomplete</text>
<text xml:space="preserve" text-anchor="middle" x="977.4" y="-23.44" font-family="Arial" font-size="12.00">trie index.</text>
</g>
</g>
</svg>
