<svg xmlns="http://www.w3.org/2000/svg" xmlns:xlink="http://www.w3.org/1999/xlink" contentStyleType="text/css" data-diagram-type="ACTIVITY" height="684px" preserveAspectRatio="none" style="width:837px;height:684px;background:#FFFFFF;" version="1.1" viewBox="0 0 837 684" width="837px" zoomAndPan="magnify"><defs/><g><ellipse cx="413.5548" cy="20" fill="#222222" rx="10" ry="10" style="stroke:#222222;stroke-width:1;"/><rect fill="#F1F1F1" height="36.3441" rx="12.5" ry="12.5" style="stroke:#181818;stroke-width:0.5;" width="198.0213" x="314.5442" y="50"/><text fill="#000000" font-family="sans-serif" font-size="12" lengthAdjust="spacing" textLength="178.0213" x="324.5442" y="72.8281">The user opens the file browser</text><rect fill="#F1F1F1" height="36.3441" rx="12.5" ry="12.5" style="stroke:#181818;stroke-width:0.5;" width="327.9342" x="249.5877" y="106.3441"/><text fill="#000000" font-family="sans-serif" font-size="12" lengthAdjust="spacing" textLength="307.9342" x="259.5877" y="129.1722">The file browser opens the user defined home location</text><rect fill="#F1F1F1" height="36.3441" rx="12.5" ry="12.5" style="stroke:#181818;stroke-width:0.5;" width="563.592" x="131.7588" y="219.9471"/><text fill="#000000" font-family="sans-serif" font-size="12" lengthAdjust="spacing" textLength="543.592" x="141.7588" y="242.7752">Application shows the graph of possible neighbors from the current location and tags for the file</text><polygon fill="#F1F1F1" points="278.3218,276.2913,548.7879,276.2913,560.7879,288.2913,548.7879,300.2913,278.3218,300.2913,266.3218,288.2913,278.3218,276.2913" style="stroke:#181818;stroke-width:0.5;"/><text fill="#000000" font-family="sans-serif" font-size="11" lengthAdjust="spacing" textLength="270.4661" x="278.3218" y="292.5592">How does the user want to interact with the system?</text><text fill="#000000" font-family="sans-serif" font-size="11" lengthAdjust="spacing" textLength="19.7778" x="243.6839" y="285.0683">GUI</text><text fill="#000000" font-family="sans-serif" font-size="11" lengthAdjust="spacing" textLength="19.8329" x="563.6479" y="285.0683">DSL</text><rect fill="#F1F1F1" height="36.3441" rx="12.5" ry="12.5" style="stroke:#181818;stroke-width:0.5;" width="295.066" x="107.6518" y="310.2913"/><text fill="#000000" font-family="sans-serif" font-size="12" lengthAdjust="spacing" textLength="275.066" x="117.6518" y="333.1193">The user clicks on the neighbor they want to visit</text><rect fill="#F1F1F1" height="36.3441" rx="12.5" ry="12.5" style="stroke:#181818;stroke-width:0.5;" width="298.414" x="422.7178" y="310.2913"/><text fill="#000000" font-family="sans-serif" font-size="12" lengthAdjust="spacing" textLength="278.414" x="432.7178" y="333.1193">The user enters a command to search for an item</text><polygon fill="#F1F1F1" points="413.5548,352.6354,425.5548,364.6354,413.5548,376.6354,401.5548,364.6354,413.5548,352.6354" style="stroke:#181818;stroke-width:0.5;"/><polygon fill="#F1F1F1" points="340.5869,162.6882,486.5228,162.6882,498.5228,174.6882,486.5228,186.6882,340.5869,186.6882,328.5869,174.6882,340.5869,162.6882" style="stroke:#181818;stroke-width:0.5;"/><text fill="#000000" font-family="sans-serif" font-size="11" lengthAdjust="spacing" textLength="17.6989" x="420.4148" y="198.4471">Yes</text><text fill="#000000" font-family="sans-serif" font-size="11" lengthAdjust="spacing" textLength="145.9359" x="340.5869" y="178.9562">Continue searching for a file</text><text fill="#000000" font-family="sans-serif" font-size="11" lengthAdjust="spacing" textLength="15.0149" x="310.712" y="171.4653">No</text><polygon fill="#F1F1F1" points="217.0192,418.6354,610.0904,418.6354,622.0904,430.6354,610.0904,442.6354,217.0192,442.6354,205.0192,430.6354,217.0192,418.6354" style="stroke:#181818;stroke-width:0.5;"/><text fill="#000000" font-family="sans-serif" font-size="11" lengthAdjust="spacing" textLength="393.0712" x="217.0192" y="434.9033">Does the user want to perform an operation on the selected file or neighbor</text><text fill="#000000" font-family="sans-serif" font-size="11" lengthAdjust="spacing" textLength="43.5047" x="158.6546" y="427.4124">Selected</text><text fill="#000000" font-family="sans-serif" font-size="11" lengthAdjust="spacing" textLength="48.9276" x="622.0904" y="427.4124">Neighbor</text><rect fill="#F1F1F1" height="36.3441" rx="12.5" ry="12.5" style="stroke:#181818;stroke-width:0.5;" width="368.0385" x="11" y="452.6354"/><text fill="#000000" font-family="sans-serif" font-size="12" lengthAdjust="spacing" textLength="348.0385" x="21" y="475.4635">The user opens the menu located at the top of the application</text><rect fill="#F1F1F1" height="36.3441" rx="12.5" ry="12.5" style="stroke:#181818;stroke-width:0.5;" width="389.3866" x="437.3971" y="452.6354"/><text fill="#000000" font-family="sans-serif" font-size="12" lengthAdjust="spacing" textLength="369.3866" x="447.3971" y="475.4635">The user opens the menu on the desired file by right clicking on it</text><polygon fill="#F1F1F1" points="413.5548,494.9795,425.5548,506.9795,413.5548,518.9795,401.5548,506.9795,413.5548,494.9795" style="stroke:#181818;stroke-width:0.5;"/><rect fill="#F1F1F1" height="36.3441" rx="12.5" ry="12.5" style="stroke:#181818;stroke-width:0.5;" width="378.1427" x="224.4835" y="538.9795"/><text fill="#000000" font-family="sans-serif" font-size="12" lengthAdjust="spacing" textLength="358.1427" x="234.4835" y="561.8076">The user selects the operation they want the system to perform</text><rect fill="#F1F1F1" height="36.3441" rx="12.5" ry="12.5" style="stroke:#181818;stroke-width:0.5;" width="121.2207" x="352.9445" y="595.3236"/><text fill="#000000" font-family="sans-serif" font-size="12" lengthAdjust="spacing" textLength="101.2207" x="362.9445" y="618.1517">Operation is done</text><ellipse cx="413.5548" cy="662.6677" fill="none" rx="11" ry="11" style="stroke:#222222;stroke-width:1;"/><ellipse cx="413.5548" cy="662.6677" fill="#222222" rx="6" ry="6" style="stroke:#222222;stroke-width:1;"/><line style="stroke:#181818;stroke-width:1;" x1="413.5548" x2="413.5548" y1="30" y2="50"/><polygon fill="#181818" points="409.5548,40,413.5548,50,417.5548,40,413.5548,44" style="stroke:#181818;stroke-width:1;"/><line style="stroke:#181818;stroke-width:1;" x1="413.5548" x2="413.5548" y1="86.3441" y2="106.3441"/><polygon fill="#181818" points="409.5548,96.3441,413.5548,106.3441,417.5548,96.3441,413.5548,100.3441" style="stroke:#181818;stroke-width:1;"/><line style="stroke:#181818;stroke-width:1;" x1="266.3218" x2="255.1848" y1="288.2913" y2="288.2913"/><line style="stroke:#181818;stroke-width:1;" x1="255.1848" x2="255.1848" y1="288.2913" y2="310.2913"/><polygon fill="#181818" points="251.1848,300.2913,255.1848,310.2913,259.1848,300.2913,255.1848,304.2913" style="stroke:#181818;stroke-width:1;"/><line style="stroke:#181818;stroke-width:1;" x1="560.7879" x2="571.9248" y1="288.2913" y2="288.2913"/><line style="stroke:#181818;stroke-width:1;" x1="571.9248" x2="571.9248" y1="288.2913" y2="310.2913"/><polygon fill="#181818" points="567.9248,300.2913,571.9248,310.2913,575.9248,300.2913,571.9248,304.2913" style="stroke:#181818;stroke-width:1;"/><line style="stroke:#181818;stroke-width:1;" x1="255.1848" x2="255.1848" y1="346.6354" y2="364.6354"/><line style="stroke:#181818;stroke-width:1;" x1="255.1848" x2="401.5548" y1="364.6354" y2="364.6354"/><polygon fill="#181818" points="391.5548,360.6354,401.5548,364.6354,391.5548,368.6354,395.5548,364.6354" style="stroke:#181818;stroke-width:1;"/><line style="stroke:#181818;stroke-width:1;" x1="571.9248" x2="571.9248" y1="346.6354" y2="364.6354"/><line style="stroke:#181818;stroke-width:1;" x1="571.9248" x2="425.5548" y1="364.6354" y2="364.6354"/><polygon fill="#181818" points="435.5548,360.6354,425.5548,364.6354,435.5548,368.6354,431.5548,364.6354" style="stroke:#181818;stroke-width:1;"/><line style="stroke:#181818;stroke-width:1;" x1="413.5548" x2="413.5548" y1="256.2913" y2="276.2913"/><polygon fill="#181818" points="409.5548,266.2913,413.5548,276.2913,417.5548,266.2913,413.5548,270.2913" style="stroke:#181818;stroke-width:1;"/><line style="stroke:#181818;stroke-width:1;" x1="413.5548" x2="413.5548" y1="186.6882" y2="219.9471"/><polygon fill="#181818" points="409.5548,209.9471,413.5548,219.9471,417.5548,209.9471,413.5548,213.9471" style="stroke:#181818;stroke-width:1;"/><line style="stroke:#181818;stroke-width:1;" x1="413.5548" x2="413.5548" y1="376.6354" y2="386.6354"/><line style="stroke:#181818;stroke-width:1;" x1="413.5548" x2="743.1318" y1="386.6354" y2="386.6354"/><polygon fill="#181818" points="739.1318,281.3003,743.1318,271.3003,747.1318,281.3003,743.1318,277.3003" style="stroke:#181818;stroke-width:1;"/><line style="stroke:#181818;stroke-width:1;" x1="743.1318" x2="743.1318" y1="174.6882" y2="386.6354"/><line style="stroke:#181818;stroke-width:1;" x1="743.1318" x2="498.5228" y1="174.6882" y2="174.6882"/><polygon fill="#181818" points="508.5228,170.6882,498.5228,174.6882,508.5228,178.6882,504.5228,174.6882" style="stroke:#181818;stroke-width:1;"/><line style="stroke:#181818;stroke-width:1;" x1="328.5869" x2="85.6518" y1="174.6882" y2="174.6882"/><polygon fill="#181818" points="81.6518,267.3003,85.6518,277.3003,89.6518,267.3003,85.6518,271.3003" style="stroke:#181818;stroke-width:1;"/><line style="stroke:#181818;stroke-width:1;" x1="85.6518" x2="85.6518" y1="174.6882" y2="398.6354"/><line style="stroke:#181818;stroke-width:1;" x1="85.6518" x2="413.5548" y1="398.6354" y2="398.6354"/><line style="stroke:#181818;stroke-width:1;" x1="413.5548" x2="413.5548" y1="398.6354" y2="418.6354"/><polygon fill="#181818" points="409.5548,408.6354,413.5548,418.6354,417.5548,408.6354,413.5548,412.6354" style="stroke:#181818;stroke-width:1;"/><line style="stroke:#181818;stroke-width:1;" x1="413.5548" x2="413.5548" y1="142.6882" y2="162.6882"/><polygon fill="#181818" points="409.5548,152.6882,413.5548,162.6882,417.5548,152.6882,413.5548,156.6882" style="stroke:#181818;stroke-width:1;"/><line style="stroke:#181818;stroke-width:1;" x1="205.0192" x2="195.0192" y1="430.6354" y2="430.6354"/><line style="stroke:#181818;stroke-width:1;" x1="195.0192" x2="195.0192" y1="430.6354" y2="452.6354"/><polygon fill="#181818" points="191.0192,442.6354,195.0192,452.6354,199.0192,442.6354,195.0192,446.6354" style="stroke:#181818;stroke-width:1;"/><line style="stroke:#181818;stroke-width:1;" x1="622.0904" x2="632.0904" y1="430.6354" y2="430.6354"/><line style="stroke:#181818;stroke-width:1;" x1="632.0904" x2="632.0904" y1="430.6354" y2="452.6354"/><polygon fill="#181818" points="628.0904,442.6354,632.0904,452.6354,636.0904,442.6354,632.0904,446.6354" style="stroke:#181818;stroke-width:1;"/><line style="stroke:#181818;stroke-width:1;" x1="195.0192" x2="195.0192" y1="488.9795" y2="506.9795"/><line style="stroke:#181818;stroke-width:1;" x1="195.0192" x2="401.5548" y1="506.9795" y2="506.9795"/><polygon fill="#181818" points="391.5548,502.9795,401.5548,506.9795,391.5548,510.9795,395.5548,506.9795" style="stroke:#181818;stroke-width:1;"/><line style="stroke:#181818;stroke-width:1;" x1="632.0904" x2="632.0904" y1="488.9795" y2="506.9795"/><line style="stroke:#181818;stroke-width:1;" x1="632.0904" x2="425.5548" y1="506.9795" y2="506.9795"/><polygon fill="#181818" points="435.5548,502.9795,425.5548,506.9795,435.5548,510.9795,431.5548,506.9795" style="stroke:#181818;stroke-width:1;"/><line style="stroke:#181818;stroke-width:1;" x1="413.5548" x2="413.5548" y1="518.9795" y2="538.9795"/><polygon fill="#181818" points="409.5548,528.9795,413.5548,538.9795,417.5548,528.9795,413.5548,532.9795" style="stroke:#181818;stroke-width:1;"/><line style="stroke:#181818;stroke-width:1;" x1="413.5548" x2="413.5548" y1="575.3236" y2="595.3236"/><polygon fill="#181818" points="409.5548,585.3236,413.5548,595.3236,417.5548,585.3236,413.5548,589.3236" style="stroke:#181818;stroke-width:1;"/><line style="stroke:#181818;stroke-width:1;" x1="413.5548" x2="413.5548" y1="631.6677" y2="651.6677"/><polygon fill="#181818" points="409.5548,641.6677,413.5548,651.6677,417.5548,641.6677,413.5548,645.6677" style="stroke:#181818;stroke-width:1;"/><!--SRC=[VLBDJiCm3BxtANpSNc4x8CGaG4BZC3XmJ5jtjMZZAdQfzlOuwQy0qKFLfFRtPukweDdXhKRe1GDmXrv0xLXHWv077kpwE5PihpQLgR74YZoMK7EBq73XbDWViw6EFRi7zag-Hn1qeQZ9Nw7Y02v1xe44Tl210lliSDzr3Otj8BLn9OvhS5qDN4778fGRfaUwrZa7WIfmcugAFWJqkj23yoMekqeYcqqTCwfWzyG3b8mR1uEpLcKWhnXSeJ2Grkctt4InlTl7WpUbZ-_FfXJiMOChJFIdW976ZbbSFDmMv2yIqcE6ZLWaSBgy_4B1o2sMIy5jczJp5DcObmSo9GRXIwhYUyeNpcnOqTVfJqyT1kjl8u3DBOpfJ5e56opKHfV6Qoop-CNlPQxuANVTWHPzF-PkPKxJdN8N9nO_tJhKsVzvPlaVSn9Peb2ODUOt2DQiO-XncJW6CyUoOetMHhJLzsOcot0t8TcolowrjfabUziPCJVV]--></g></svg>