<svg xmlns="http://www.w3.org/2000/svg" xmlns:xlink="http://www.w3.org/1999/xlink" contentStyleType="text/css" data-diagram-type="ACTIVITY" height="613px" preserveAspectRatio="none" style="width:672px;height:613px;background:#FFFFFF;" version="1.1" viewBox="0 0 672 613" width="672px" zoomAndPan="magnify"><defs/><g><ellipse cx="261.3606" cy="20" fill="#222222" rx="10" ry="10" style="stroke:#222222;stroke-width:1;"/><rect fill="#F1F1F1" height="36.3441" rx="12.5" ry="12.5" style="stroke:#181818;stroke-width:0.5;" width="266.1337" x="128.2937" y="50"/><text fill="#000000" font-family="sans-serif" font-size="12" lengthAdjust="spacing" textLength="246.1337" x="138.2937" y="72.8281">The user opens the DSL command interface</text><path d="M424.3996,145.8102 L424.3996,164.5162 L404.3996,168.5162 L424.3996,172.5162 L424.3996,191.2222 A0,0 0 0 0 424.3996,191.2222 L634.0947,191.2222 A0,0 0 0 0 634.0947,191.2222 L634.0947,155.8102 L624.0947,145.8102 L424.3996,145.8102 A0,0 0 0 0 424.3996,145.8102" fill="#FEFFDD" style="stroke:#181818;stroke-width:0.5;"/><path d="M624.0947,145.8102 L624.0947,155.8102 L634.0947,155.8102 L624.0947,145.8102" fill="#FEFFDD" style="stroke:#181818;stroke-width:0.5;"/><text fill="#000000" font-family="sans-serif" font-size="13" lengthAdjust="spacing" textLength="156.4551" x="430.3996" y="164.7072">Details on available filters</text><text fill="#000000" font-family="sans-serif" font-size="13" lengthAdjust="spacing" textLength="188.6952" x="430.3996" y="182.4132">are covered in the user tutorial</text><rect fill="#F1F1F1" height="36.3441" rx="12.5" ry="12.5" style="stroke:#181818;stroke-width:0.5;" width="286.0779" x="118.3216" y="150.3441"/><text fill="#000000" font-family="sans-serif" font-size="12" lengthAdjust="spacing" textLength="266.0779" x="128.3216" y="173.1722">The user starts constructing a query with filters</text><rect fill="#F1F1F1" height="36.3441" rx="12.5" ry="12.5" style="stroke:#181818;stroke-width:0.5;" width="198.6693" x="162.026" y="211.2222"/><text fill="#000000" font-family="sans-serif" font-size="12" lengthAdjust="spacing" textLength="178.6693" x="172.026" y="234.0503">The user submits the command</text><rect fill="#F1F1F1" height="36.3441" rx="12.5" ry="12.5" style="stroke:#181818;stroke-width:0.5;" width="211.0893" x="155.8159" y="267.5663"/><text fill="#000000" font-family="sans-serif" font-size="12" lengthAdjust="spacing" textLength="191.0893" x="165.8159" y="290.3944">System validates the query syntax</text><polygon fill="#F1F1F1" points="229.5708,323.9104,293.1504,323.9104,305.1504,335.9104,293.1504,347.9104,229.5708,347.9104,217.5708,335.9104,229.5708,323.9104" style="stroke:#181818;stroke-width:0.5;"/><text fill="#000000" font-family="sans-serif" font-size="11" lengthAdjust="spacing" textLength="63.5795" x="229.5708" y="340.1784">Query valid?</text><text fill="#000000" font-family="sans-serif" font-size="11" lengthAdjust="spacing" textLength="17.6989" x="199.872" y="332.6874">Yes</text><text fill="#000000" font-family="sans-serif" font-size="11" lengthAdjust="spacing" textLength="15.0149" x="305.1504" y="332.6874">No</text><rect fill="#F1F1F1" height="36.3441" rx="12.5" ry="12.5" style="stroke:#181818;stroke-width:0.5;" width="174.3211" x="53.2463" y="357.9104"/><text fill="#000000" font-family="sans-serif" font-size="12" lengthAdjust="spacing" textLength="154.3211" x="63.2463" y="380.7385">System executes DSL query</text><rect fill="#F1F1F1" height="36.3441" rx="12.5" ry="12.5" style="stroke:#181818;stroke-width:0.5;" width="258.8137" x="11" y="414.2545"/><text fill="#000000" font-family="sans-serif" font-size="12" lengthAdjust="spacing" textLength="238.8137" x="21" y="437.0826">System returns the result of the command</text><ellipse cx="140.4069" cy="481.5986" fill="none" rx="11" ry="11" style="stroke:#222222;stroke-width:1;"/><ellipse cx="140.4069" cy="481.5986" fill="#222222" rx="6" ry="6" style="stroke:#222222;stroke-width:1;"/><rect fill="#F1F1F1" height="36.3441" rx="12.5" ry="12.5" style="stroke:#181818;stroke-width:0.5;" width="185.0012" x="289.8137" y="357.9104"/><text fill="#000000" font-family="sans-serif" font-size="12" lengthAdjust="spacing" textLength="165.0012" x="299.8137" y="380.7385">System shows error message</text><polygon fill="#F1F1F1" points="261.3606,106.3441,273.3606,118.3441,261.3606,130.3441,249.3606,118.3441,261.3606,106.3441" style="stroke:#181818;stroke-width:0.5;"/><polygon fill="#F1F1F1" points="245.3887,512.5986,277.3325,512.5986,289.3325,524.5986,277.3325,536.5986,245.3887,536.5986,233.3887,524.5986,245.3887,512.5986" style="stroke:#181818;stroke-width:0.5;"/><text fill="#000000" font-family="sans-serif" font-size="11" lengthAdjust="spacing" textLength="31.9438" x="245.3887" y="528.8666">Retry?</text><text fill="#000000" font-family="sans-serif" font-size="11" lengthAdjust="spacing" textLength="17.6989" x="289.3325" y="521.3757">Yes</text><ellipse cx="261.3606" cy="591.8035" fill="none" rx="11" ry="11" style="stroke:#222222;stroke-width:1;"/><ellipse cx="261.3606" cy="591.8035" fill="#222222" rx="6" ry="6" style="stroke:#222222;stroke-width:1;"/><line style="stroke:#181818;stroke-width:1;" x1="261.3606" x2="261.3606" y1="30" y2="50"/><polygon fill="#181818" points="257.3606,40,261.3606,50,265.3606,40,261.3606,44" style="stroke:#181818;stroke-width:1;"/><line style="stroke:#181818;stroke-width:1;" x1="261.3606" x2="261.3606" y1="186.6882" y2="211.2222"/><polygon fill="#181818" points="257.3606,201.2222,261.3606,211.2222,265.3606,201.2222,261.3606,205.2222" style="stroke:#181818;stroke-width:1;"/><line style="stroke:#181818;stroke-width:1;" x1="261.3606" x2="261.3606" y1="247.5663" y2="267.5663"/><polygon fill="#181818" points="257.3606,257.5663,261.3606,267.5663,265.3606,257.5663,261.3606,261.5663" style="stroke:#181818;stroke-width:1;"/><line style="stroke:#181818;stroke-width:1;" x1="140.4069" x2="140.4069" y1="394.2545" y2="414.2545"/><polygon fill="#181818" points="136.4069,404.2545,140.4069,414.2545,144.4069,404.2545,140.4069,408.2545" style="stroke:#181818;stroke-width:1;"/><line style="stroke:#181818;stroke-width:1;" x1="140.4069" x2="140.4069" y1="450.5986" y2="470.5986"/><polygon fill="#181818" points="136.4069,460.5986,140.4069,470.5986,144.4069,460.5986,140.4069,464.5986" style="stroke:#181818;stroke-width:1;"/><line style="stroke:#181818;stroke-width:1;" x1="217.5708" x2="140.4069" y1="335.9104" y2="335.9104"/><line style="stroke:#181818;stroke-width:1;" x1="140.4069" x2="140.4069" y1="335.9104" y2="357.9104"/><polygon fill="#181818" points="136.4069,347.9104,140.4069,357.9104,144.4069,347.9104,140.4069,351.9104" style="stroke:#181818;stroke-width:1;"/><line style="stroke:#181818;stroke-width:1;" x1="305.1504" x2="382.3143" y1="335.9104" y2="335.9104"/><line style="stroke:#181818;stroke-width:1;" x1="382.3143" x2="382.3143" y1="335.9104" y2="357.9104"/><polygon fill="#181818" points="378.3143,347.9104,382.3143,357.9104,386.3143,347.9104,382.3143,351.9104" style="stroke:#181818;stroke-width:1;"/><line style="stroke:#181818;stroke-width:1;" x1="382.3143" x2="382.3143" y1="394.2545" y2="497.5986"/><line style="stroke:#181818;stroke-width:1;" x1="382.3143" x2="261.3606" y1="497.5986" y2="497.5986"/><line style="stroke:#181818;stroke-width:1;" x1="261.3606" x2="261.3606" y1="497.5986" y2="512.5986"/><polygon fill="#181818" points="257.3606,502.5986,261.3606,512.5986,265.3606,502.5986,261.3606,506.5986" style="stroke:#181818;stroke-width:1;"/><line style="stroke:#181818;stroke-width:1;" x1="261.3606" x2="261.3606" y1="303.9104" y2="323.9104"/><polygon fill="#181818" points="257.3606,313.9104,261.3606,323.9104,265.3606,313.9104,261.3606,317.9104" style="stroke:#181818;stroke-width:1;"/><line style="stroke:#181818;stroke-width:1;" x1="261.3606" x2="261.3606" y1="130.3441" y2="150.3441"/><polygon fill="#181818" points="257.3606,140.3441,261.3606,150.3441,265.3606,140.3441,261.3606,144.3441" style="stroke:#181818;stroke-width:1;"/><line style="stroke:#181818;stroke-width:1;" x1="289.3325" x2="646.0947" y1="524.5986" y2="524.5986"/><polygon fill="#181818" points="642.0947,324.7044,646.0947,314.7044,650.0947,324.7044,646.0947,320.7044" style="stroke:#181818;stroke-width:1;"/><line style="stroke:#181818;stroke-width:1;" x1="646.0947" x2="646.0947" y1="118.3441" y2="524.5986"/><line style="stroke:#181818;stroke-width:1;" x1="646.0947" x2="273.3606" y1="118.3441" y2="118.3441"/><polygon fill="#181818" points="283.3606,114.3441,273.3606,118.3441,283.3606,122.3441,279.3606,118.3441" style="stroke:#181818;stroke-width:1;"/><line style="stroke:#181818;stroke-width:1;" x1="261.3606" x2="261.3606" y1="86.3441" y2="106.3441"/><polygon fill="#181818" points="257.3606,96.3441,261.3606,106.3441,265.3606,96.3441,261.3606,100.3441" style="stroke:#181818;stroke-width:1;"/><line style="stroke:#181818;stroke-width:1;" x1="261.3606" x2="261.3606" y1="536.5986" y2="580.8035"/><polygon fill="#181818" points="257.3606,570.8035,261.3606,580.8035,265.3606,570.8035,261.3606,574.8035" style="stroke:#181818;stroke-width:1;"/><text fill="#000000" font-family="sans-serif" font-size="11" lengthAdjust="spacing" textLength="15.0149" x="265.3606" y="560.0805">No</text><!--SRC=[NP6xRiCm34LtVmL7P-WFn42xP2m2jEdIaN6kOm6ob9AK4_zz9Jb1aMvwN1qUKceirco_Hb1I2CKBWfBbxUxmJdsS9WudSi4W0_VecaPm0Lj3zFT82qHpEgX9wis5Cp7z9CX2LsSZ3SvdW7RvLOW64dSU2u9e1sFdbM8WdlEAZnwFU0sm88Dd28f6DQirBLaKnpw7a0qBjdcMIiV9sThBlOzIVtjOr33HpDwTsB06LbTTWl6jAnmtKFjH3slmRLDYWTflwAPwFJYueKy5K-PLCTtJlS2It4SgqEIDul1VYl88uwMquXNKxkDp3HtZLGaYKMY2Af_HhNsxuV4XT1rT7btx2PCbwpgzoxwyxcFNLFul]--></g></svg>