<svg xmlns="http://www.w3.org/2000/svg" xmlns:xlink="http://www.w3.org/1999/xlink" contentStyleType="text/css" height="230px" preserveAspectRatio="none" style="width:754px;height:230px;background:#FFFFFF;" version="1.1" viewBox="0 0 754 230" width="754px" zoomAndPan="magnify"><defs/><g><!--class FileController--><g id="elem_FileController"><rect codeLine="4" fill="#F1F1F1" height="32" id="FileController" rx="2.5" ry="2.5" style="stroke:#181818;stroke-width:0.5;" width="120.5637" x="9.14" y="7"/><ellipse cx="24.14" cy="23" fill="#ADD1B2" rx="11" ry="11" style="stroke:#181818;stroke-width:1.0;"/><path d="M23.6088,29.9219 Q21.8588,29.9219 20.7181,29.1875 Q19.5931,28.4375 19.0306,27.0938 Q18.4838,25.7344 18.4838,23.9375 Q18.4838,21.9063 19.14,20.4531 Q19.7963,19 21.0775,18.2188 Q22.3588,17.4375 24.2338,17.4375 Q25.1244,17.4375 25.7963,17.625 Q26.4681,17.7969 27.1556,18.1406 L26.3431,20.1563 Q25.7181,19.8438 25.1713,19.7188 Q24.64,19.5938 24.1556,19.5938 Q22.9838,19.5938 22.2806,20.125 Q21.5775,20.6563 21.2806,21.6094 Q20.9838,22.5625 20.9838,23.8281 Q20.9838,25.8438 21.7025,26.8125 Q22.4213,27.7656 24.015,27.7656 Q24.6088,27.7656 25.2338,27.6094 Q25.8588,27.4531 26.6869,27.0781 L26.6869,29.2969 Q25.9525,29.6094 25.1556,29.7656 Q24.3744,29.9219 23.6088,29.9219 Z " fill="#000000"/><text fill="#000000" font-family="sans-serif" font-size="14" lengthAdjust="spacing" textLength="88.5637" x="38.14" y="28.432">FileController</text></g><!--class FileService--><g id="elem_FileService"><rect codeLine="5" fill="#F1F1F1" height="32" id="FileService" rx="2.5" ry="2.5" style="stroke:#181818;stroke-width:0.5;" width="101.0897" x="18.87" y="99"/><ellipse cx="33.87" cy="115" fill="#ADD1B2" rx="11" ry="11" style="stroke:#181818;stroke-width:1.0;"/><path d="M33.3388,121.9219 Q31.5887,121.9219 30.4481,121.1875 Q29.3231,120.4375 28.7606,119.0938 Q28.2137,117.7344 28.2137,115.9375 Q28.2137,113.9063 28.87,112.4531 Q29.5262,111 30.8075,110.2188 Q32.0888,109.4375 33.9638,109.4375 Q34.8544,109.4375 35.5263,109.625 Q36.1981,109.7969 36.8856,110.1406 L36.0731,112.1563 Q35.4481,111.8438 34.9013,111.7188 Q34.37,111.5938 33.8856,111.5938 Q32.7138,111.5938 32.0106,112.125 Q31.3075,112.6563 31.0106,113.6094 Q30.7137,114.5625 30.7137,115.8281 Q30.7137,117.8438 31.4325,118.8125 Q32.1513,119.7656 33.745,119.7656 Q34.3388,119.7656 34.9638,119.6094 Q35.5888,119.4531 36.4169,119.0781 L36.4169,121.2969 Q35.6825,121.6094 34.8856,121.7656 Q34.1044,121.9219 33.3388,121.9219 Z " fill="#000000"/><text fill="#000000" font-family="sans-serif" font-size="14" lengthAdjust="spacing" textLength="69.0897" x="47.87" y="120.432">FileService</text></g><!--class FileRepository--><g id="elem_FileRepository"><rect codeLine="6" fill="#F1F1F1" height="32" id="FileRepository" rx="2.5" ry="2.5" style="stroke:#181818;stroke-width:0.5;" width="124.8336" x="7" y="191"/><ellipse cx="22" cy="207" fill="#ADD1B2" rx="11" ry="11" style="stroke:#181818;stroke-width:1.0;"/><path d="M21.4688,213.9219 Q19.7188,213.9219 18.5781,213.1875 Q17.4531,212.4375 16.8906,211.0938 Q16.3438,209.7344 16.3438,207.9375 Q16.3438,205.9063 17,204.4531 Q17.6563,203 18.9375,202.2188 Q20.2188,201.4375 22.0938,201.4375 Q22.9844,201.4375 23.6563,201.625 Q24.3281,201.7969 25.0156,202.1406 L24.2031,204.1563 Q23.5781,203.8438 23.0313,203.7188 Q22.5,203.5938 22.0156,203.5938 Q20.8438,203.5938 20.1406,204.125 Q19.4375,204.6563 19.1406,205.6094 Q18.8438,206.5625 18.8438,207.8281 Q18.8438,209.8438 19.5625,210.8125 Q20.2813,211.7656 21.875,211.7656 Q22.4688,211.7656 23.0938,211.6094 Q23.7188,211.4531 24.5469,211.0781 L24.5469,213.2969 Q23.8125,213.6094 23.0156,213.7656 Q22.2344,213.9219 21.4688,213.9219 Z " fill="#000000"/><text fill="#000000" font-family="sans-serif" font-size="14" lengthAdjust="spacing" textLength="92.8336" x="36" y="212.432">FileRepository</text></g><!--class RelationshipController--><g id="elem_RelationshipController"><rect codeLine="8" fill="#F1F1F1" height="32" id="RelationshipController" rx="2.5" ry="2.5" style="stroke:#181818;stroke-width:0.5;" width="179.6154" x="168.61" y="7"/><ellipse cx="183.61" cy="23" fill="#ADD1B2" rx="11" ry="11" style="stroke:#181818;stroke-width:1.0;"/><path d="M183.0788,29.9219 Q181.3288,29.9219 180.1881,29.1875 Q179.0631,28.4375 178.5006,27.0938 Q177.9538,25.7344 177.9538,23.9375 Q177.9538,21.9063 178.61,20.4531 Q179.2663,19 180.5475,18.2188 Q181.8288,17.4375 183.7038,17.4375 Q184.5944,17.4375 185.2663,17.625 Q185.9381,17.7969 186.6256,18.1406 L185.8131,20.1563 Q185.1881,19.8438 184.6413,19.7188 Q184.11,19.5938 183.6256,19.5938 Q182.4538,19.5938 181.7506,20.125 Q181.0475,20.6563 180.7506,21.6094 Q180.4538,22.5625 180.4538,23.8281 Q180.4538,25.8438 181.1725,26.8125 Q181.8913,27.7656 183.485,27.7656 Q184.0788,27.7656 184.7038,27.6094 Q185.3288,27.4531 186.1569,27.0781 L186.1569,29.2969 Q185.4225,29.6094 184.6256,29.7656 Q183.8444,29.9219 183.0788,29.9219 Z " fill="#000000"/><text fill="#000000" font-family="sans-serif" font-size="14" lengthAdjust="spacing" textLength="147.6154" x="197.61" y="28.432">RelationshipController</text></g><!--class RelationshipService--><g id="elem_RelationshipService"><rect codeLine="9" fill="#F1F1F1" height="32" id="RelationshipService" rx="2.5" ry="2.5" style="stroke:#181818;stroke-width:0.5;" width="160.1415" x="178.35" y="99"/><ellipse cx="193.35" cy="115" fill="#ADD1B2" rx="11" ry="11" style="stroke:#181818;stroke-width:1.0;"/><path d="M192.8188,121.9219 Q191.0688,121.9219 189.9281,121.1875 Q188.8031,120.4375 188.2406,119.0938 Q187.6938,117.7344 187.6938,115.9375 Q187.6938,113.9063 188.35,112.4531 Q189.0063,111 190.2875,110.2188 Q191.5688,109.4375 193.4438,109.4375 Q194.3344,109.4375 195.0063,109.625 Q195.6781,109.7969 196.3656,110.1406 L195.5531,112.1563 Q194.9281,111.8438 194.3813,111.7188 Q193.85,111.5938 193.3656,111.5938 Q192.1938,111.5938 191.4906,112.125 Q190.7875,112.6563 190.4906,113.6094 Q190.1938,114.5625 190.1938,115.8281 Q190.1938,117.8438 190.9125,118.8125 Q191.6313,119.7656 193.225,119.7656 Q193.8188,119.7656 194.4438,119.6094 Q195.0688,119.4531 195.8969,119.0781 L195.8969,121.2969 Q195.1625,121.6094 194.3656,121.7656 Q193.5844,121.9219 192.8188,121.9219 Z " fill="#000000"/><text fill="#000000" font-family="sans-serif" font-size="14" lengthAdjust="spacing" textLength="128.1415" x="207.35" y="120.432">RelationshipService</text></g><!--class RelationshipRepository--><g id="elem_RelationshipRepository"><rect codeLine="10" fill="#F1F1F1" height="32" id="RelationshipRepository" rx="2.5" ry="2.5" style="stroke:#181818;stroke-width:0.5;" width="183.8854" x="166.47" y="191"/><ellipse cx="181.47" cy="207" fill="#ADD1B2" rx="11" ry="11" style="stroke:#181818;stroke-width:1.0;"/><path d="M180.9388,213.9219 Q179.1888,213.9219 178.0481,213.1875 Q176.9231,212.4375 176.3606,211.0938 Q175.8138,209.7344 175.8138,207.9375 Q175.8138,205.9063 176.47,204.4531 Q177.1263,203 178.4075,202.2188 Q179.6888,201.4375 181.5638,201.4375 Q182.4544,201.4375 183.1263,201.625 Q183.7981,201.7969 184.4856,202.1406 L183.6731,204.1563 Q183.0481,203.8438 182.5013,203.7188 Q181.97,203.5938 181.4856,203.5938 Q180.3138,203.5938 179.6106,204.125 Q178.9075,204.6563 178.6106,205.6094 Q178.3138,206.5625 178.3138,207.8281 Q178.3138,209.8438 179.0325,210.8125 Q179.7513,211.7656 181.345,211.7656 Q181.9388,211.7656 182.5638,211.6094 Q183.1888,211.4531 184.0169,211.0781 L184.0169,213.2969 Q183.2825,213.6094 182.4856,213.7656 Q181.7044,213.9219 180.9388,213.9219 Z " fill="#000000"/><text fill="#000000" font-family="sans-serif" font-size="14" lengthAdjust="spacing" textLength="151.8854" x="195.47" y="212.432">RelationshipRepository</text></g><!--class TagController--><g id="elem_TagController"><rect codeLine="12" fill="#F1F1F1" height="32" id="TagController" rx="2.5" ry="2.5" style="stroke:#181818;stroke-width:0.5;" width="122.4257" x="387.2" y="7"/><ellipse cx="402.2" cy="23" fill="#ADD1B2" rx="11" ry="11" style="stroke:#181818;stroke-width:1.0;"/><path d="M401.6688,29.9219 Q399.9188,29.9219 398.7781,29.1875 Q397.6531,28.4375 397.0906,27.0938 Q396.5438,25.7344 396.5438,23.9375 Q396.5438,21.9063 397.2,20.4531 Q397.8563,19 399.1375,18.2188 Q400.4188,17.4375 402.2938,17.4375 Q403.1844,17.4375 403.8563,17.625 Q404.5281,17.7969 405.2156,18.1406 L404.4031,20.1563 Q403.7781,19.8438 403.2313,19.7188 Q402.7,19.5938 402.2156,19.5938 Q401.0438,19.5938 400.3406,20.125 Q399.6375,20.6563 399.3406,21.6094 Q399.0438,22.5625 399.0438,23.8281 Q399.0438,25.8438 399.7625,26.8125 Q400.4813,27.7656 402.075,27.7656 Q402.6688,27.7656 403.2938,27.6094 Q403.9188,27.4531 404.7469,27.0781 L404.7469,29.2969 Q404.0125,29.6094 403.2156,29.7656 Q402.4344,29.9219 401.6688,29.9219 Z " fill="#000000"/><text fill="#000000" font-family="sans-serif" font-size="14" lengthAdjust="spacing" textLength="90.4257" x="416.2" y="28.432">TagController</text></g><!--class TagService--><g id="elem_TagService"><rect codeLine="13" fill="#F1F1F1" height="32" id="TagService" rx="2.5" ry="2.5" style="stroke:#181818;stroke-width:0.5;" width="102.9517" x="396.94" y="99"/><ellipse cx="411.94" cy="115" fill="#ADD1B2" rx="11" ry="11" style="stroke:#181818;stroke-width:1.0;"/><path d="M411.4088,121.9219 Q409.6588,121.9219 408.5181,121.1875 Q407.3931,120.4375 406.8306,119.0938 Q406.2838,117.7344 406.2838,115.9375 Q406.2838,113.9063 406.94,112.4531 Q407.5963,111 408.8775,110.2188 Q410.1588,109.4375 412.0338,109.4375 Q412.9244,109.4375 413.5963,109.625 Q414.2681,109.7969 414.9556,110.1406 L414.1431,112.1563 Q413.5181,111.8438 412.9713,111.7188 Q412.44,111.5938 411.9556,111.5938 Q410.7838,111.5938 410.0806,112.125 Q409.3775,112.6563 409.0806,113.6094 Q408.7838,114.5625 408.7838,115.8281 Q408.7838,117.8438 409.5025,118.8125 Q410.2213,119.7656 411.815,119.7656 Q412.4088,119.7656 413.0338,119.6094 Q413.6588,119.4531 414.4869,119.0781 L414.4869,121.2969 Q413.7525,121.6094 412.9556,121.7656 Q412.1744,121.9219 411.4088,121.9219 Z " fill="#000000"/><text fill="#000000" font-family="sans-serif" font-size="14" lengthAdjust="spacing" textLength="70.9517" x="425.94" y="120.432">TagService</text></g><!--class TagRepository--><g id="elem_TagRepository"><rect codeLine="14" fill="#F1F1F1" height="32" id="TagRepository" rx="2.5" ry="2.5" style="stroke:#181818;stroke-width:0.5;" width="126.6956" x="385.07" y="191"/><ellipse cx="400.07" cy="207" fill="#ADD1B2" rx="11" ry="11" style="stroke:#181818;stroke-width:1.0;"/><path d="M399.5388,213.9219 Q397.7888,213.9219 396.6481,213.1875 Q395.5231,212.4375 394.9606,211.0938 Q394.4138,209.7344 394.4138,207.9375 Q394.4138,205.9063 395.07,204.4531 Q395.7263,203 397.0075,202.2188 Q398.2888,201.4375 400.1638,201.4375 Q401.0544,201.4375 401.7263,201.625 Q402.3981,201.7969 403.0856,202.1406 L402.2731,204.1563 Q401.6481,203.8438 401.1013,203.7188 Q400.57,203.5938 400.0856,203.5938 Q398.9138,203.5938 398.2106,204.125 Q397.5075,204.6563 397.2106,205.6094 Q396.9138,206.5625 396.9138,207.8281 Q396.9138,209.8438 397.6325,210.8125 Q398.3513,211.7656 399.945,211.7656 Q400.5388,211.7656 401.1638,211.6094 Q401.7888,211.4531 402.6169,211.0781 L402.6169,213.2969 Q401.8825,213.6094 401.0856,213.7656 Q400.3044,213.9219 399.5388,213.9219 Z " fill="#000000"/><text fill="#000000" font-family="sans-serif" font-size="14" lengthAdjust="spacing" textLength="94.6956" x="414.07" y="212.432">TagRepository</text></g><!--class AutocompleterController--><g id="elem_AutocompleterController"><rect codeLine="16" fill="#F1F1F1" height="32" id="AutocompleterController" rx="2.5" ry="2.5" style="stroke:#181818;stroke-width:0.5;" width="196.4294" x="549.2" y="7"/><ellipse cx="564.2" cy="23" fill="#ADD1B2" rx="11" ry="11" style="stroke:#181818;stroke-width:1.0;"/><path d="M563.6688,29.9219 Q561.9188,29.9219 560.7781,29.1875 Q559.6531,28.4375 559.0906,27.0938 Q558.5438,25.7344 558.5438,23.9375 Q558.5438,21.9063 559.2,20.4531 Q559.8563,19 561.1375,18.2188 Q562.4188,17.4375 564.2938,17.4375 Q565.1844,17.4375 565.8563,17.625 Q566.5281,17.7969 567.2156,18.1406 L566.4031,20.1563 Q565.7781,19.8438 565.2313,19.7188 Q564.7,19.5938 564.2156,19.5938 Q563.0438,19.5938 562.3406,20.125 Q561.6375,20.6563 561.3406,21.6094 Q561.0438,22.5625 561.0438,23.8281 Q561.0438,25.8438 561.7625,26.8125 Q562.4813,27.7656 564.075,27.7656 Q564.6688,27.7656 565.2938,27.6094 Q565.9188,27.4531 566.7469,27.0781 L566.7469,29.2969 Q566.0125,29.6094 565.2156,29.7656 Q564.4344,29.9219 563.6688,29.9219 Z " fill="#000000"/><text fill="#000000" font-family="sans-serif" font-size="14" lengthAdjust="spacing" textLength="164.4294" x="578.2" y="28.432">AutocompleterController</text></g><!--class AutocompleterService--><g id="elem_AutocompleterService"><rect codeLine="17" fill="#F1F1F1" height="32" id="AutocompleterService" rx="2.5" ry="2.5" style="stroke:#181818;stroke-width:0.5;" width="176.9554" x="558.94" y="99"/><ellipse cx="573.94" cy="115" fill="#ADD1B2" rx="11" ry="11" style="stroke:#181818;stroke-width:1.0;"/><path d="M573.4088,121.9219 Q571.6588,121.9219 570.5181,121.1875 Q569.3931,120.4375 568.8306,119.0938 Q568.2838,117.7344 568.2838,115.9375 Q568.2838,113.9063 568.94,112.4531 Q569.5963,111 570.8775,110.2188 Q572.1588,109.4375 574.0338,109.4375 Q574.9244,109.4375 575.5963,109.625 Q576.2681,109.7969 576.9556,110.1406 L576.1431,112.1563 Q575.5181,111.8438 574.9713,111.7188 Q574.44,111.5938 573.9556,111.5938 Q572.7838,111.5938 572.0806,112.125 Q571.3775,112.6563 571.0806,113.6094 Q570.7838,114.5625 570.7838,115.8281 Q570.7838,117.8438 571.5025,118.8125 Q572.2213,119.7656 573.815,119.7656 Q574.4088,119.7656 575.0338,119.6094 Q575.6588,119.4531 576.4869,119.0781 L576.4869,121.2969 Q575.7525,121.6094 574.9556,121.7656 Q574.1744,121.9219 573.4088,121.9219 Z " fill="#000000"/><text fill="#000000" font-family="sans-serif" font-size="14" lengthAdjust="spacing" textLength="144.9554" x="587.94" y="120.432">AutocompleterService</text></g><!--class AutocompleterRepository--><g id="elem_AutocompleterRepository"><rect codeLine="18" fill="#F1F1F1" height="32" id="AutocompleterRepository" rx="2.5" ry="2.5" style="stroke:#181818;stroke-width:0.5;" width="200.6994" x="547.07" y="191"/><ellipse cx="562.07" cy="207" fill="#ADD1B2" rx="11" ry="11" style="stroke:#181818;stroke-width:1.0;"/><path d="M561.5388,213.9219 Q559.7888,213.9219 558.6481,213.1875 Q557.5231,212.4375 556.9606,211.0938 Q556.4138,209.7344 556.4138,207.9375 Q556.4138,205.9063 557.07,204.4531 Q557.7263,203 559.0075,202.2188 Q560.2888,201.4375 562.1638,201.4375 Q563.0544,201.4375 563.7263,201.625 Q564.3981,201.7969 565.0856,202.1406 L564.2731,204.1563 Q563.6481,203.8438 563.1013,203.7188 Q562.57,203.5938 562.0856,203.5938 Q560.9138,203.5938 560.2106,204.125 Q559.5075,204.6563 559.2106,205.6094 Q558.9138,206.5625 558.9138,207.8281 Q558.9138,209.8438 559.6325,210.8125 Q560.3513,211.7656 561.945,211.7656 Q562.5388,211.7656 563.1638,211.6094 Q563.7888,211.4531 564.6169,211.0781 L564.6169,213.2969 Q563.8825,213.6094 563.0856,213.7656 Q562.3044,213.9219 561.5388,213.9219 Z " fill="#000000"/><text fill="#000000" font-family="sans-serif" font-size="14" lengthAdjust="spacing" textLength="168.6994" x="576.07" y="212.432">AutocompleterRepository</text></g><!--reverse link FileController to FileService--><g id="link_FileController_FileService"><path codeLine="21" d="M69.42,51.27 C69.42,67.82 69.42,82.08 69.42,98.66 " fill="none" id="FileController-backto-FileService" style="stroke:#181818;stroke-width:1.0;"/><polygon fill="#181818" points="69.42,39.27,65.42,45.27,69.42,51.27,73.42,45.27,69.42,39.27" style="stroke:#181818;stroke-width:1.0;"/></g><!--reverse link FileService to FileRepository--><g id="link_FileService_FileRepository"><path codeLine="22" d="M69.42,143.27 C69.42,159.82 69.42,174.08 69.42,190.66 " fill="none" id="FileService-backto-FileRepository" style="stroke:#181818;stroke-width:1.0;"/><polygon fill="#181818" points="69.42,131.27,65.42,137.27,69.42,143.27,73.42,137.27,69.42,131.27" style="stroke:#181818;stroke-width:1.0;"/></g><!--reverse link RelationshipController to RelationshipService--><g id="link_RelationshipController_RelationshipService"><path codeLine="24" d="M258.42,51.27 C258.42,67.82 258.42,82.08 258.42,98.66 " fill="none" id="RelationshipController-backto-RelationshipService" style="stroke:#181818;stroke-width:1.0;"/><polygon fill="#181818" points="258.42,39.27,254.42,45.27,258.42,51.27,262.42,45.27,258.42,39.27" style="stroke:#181818;stroke-width:1.0;"/></g><!--reverse link RelationshipService to RelationshipRepository--><g id="link_RelationshipService_RelationshipRepository"><path codeLine="25" d="M258.42,143.27 C258.42,159.82 258.42,174.08 258.42,190.66 " fill="none" id="RelationshipService-backto-RelationshipRepository" style="stroke:#181818;stroke-width:1.0;"/><polygon fill="#181818" points="258.42,131.27,254.42,137.27,258.42,143.27,262.42,137.27,258.42,131.27" style="stroke:#181818;stroke-width:1.0;"/></g><!--reverse link TagController to TagService--><g id="link_TagController_TagService"><path codeLine="27" d="M448.42,51.27 C448.42,67.82 448.42,82.08 448.42,98.66 " fill="none" id="TagController-backto-TagService" style="stroke:#181818;stroke-width:1.0;"/><polygon fill="#181818" points="448.42,39.27,444.42,45.27,448.42,51.27,452.42,45.27,448.42,39.27" style="stroke:#181818;stroke-width:1.0;"/></g><!--reverse link TagService to TagRepository--><g id="link_TagService_TagRepository"><path codeLine="28" d="M448.42,143.27 C448.42,159.82 448.42,174.08 448.42,190.66 " fill="none" id="TagService-backto-TagRepository" style="stroke:#181818;stroke-width:1.0;"/><polygon fill="#181818" points="448.42,131.27,444.42,137.27,448.42,143.27,452.42,137.27,448.42,131.27" style="stroke:#181818;stroke-width:1.0;"/></g><!--reverse link AutocompleterController to AutocompleterService--><g id="link_AutocompleterController_AutocompleterService"><path codeLine="30" d="M647.42,51.27 C647.42,67.82 647.42,82.08 647.42,98.66 " fill="none" id="AutocompleterController-backto-AutocompleterService" style="stroke:#181818;stroke-width:1.0;"/><polygon fill="#181818" points="647.42,39.27,643.42,45.27,647.42,51.27,651.42,45.27,647.42,39.27" style="stroke:#181818;stroke-width:1.0;"/></g><!--reverse link AutocompleterService to AutocompleterRepository--><g id="link_AutocompleterService_AutocompleterRepository"><path codeLine="31" d="M647.42,143.27 C647.42,159.82 647.42,174.08 647.42,190.66 " fill="none" id="AutocompleterService-backto-AutocompleterRepository" style="stroke:#181818;stroke-width:1.0;"/><polygon fill="#181818" points="647.42,131.27,643.42,137.27,647.42,143.27,651.42,137.27,647.42,131.27" style="stroke:#181818;stroke-width:1.0;"/></g><!--SRC=[TP112i8m54JtESNV2K8F8OBkgnT8wzW6aYOaKUdjBQNg_oJkmipa9RpHt41m8S_au3h4fDIkjpeb9F9tEaSTHWjoUj83ebehEXcBevzozDQAy8BuD3rOqYBuPBAFizhI5bPduwSqcb10U2bXl2cXLpqKh2MJY2KeRnuUsVVU1OkCM314AscYujmT_sgY3la5JBHPLL8UxPj6g6FdRyVfTNthj2QlaXLRZXSYroNJ-3j-6dxrZybrMlLO2yirU-8D]--></g></svg>