<svg xmlns="http://www.w3.org/2000/svg" xmlns:xlink="http://www.w3.org/1999/xlink" contentStyleType="text/css" height="826px" preserveAspectRatio="none" style="width:707px;height:826px;background:#FFFFFF;" version="1.1" viewBox="0 0 707 826" width="707px" zoomAndPan="magnify"><defs/><g><ellipse cx="351.903" cy="20" fill="#222222" rx="10" ry="10" style="stroke:#222222;stroke-width:1.0;"/><rect fill="#F1F1F1" height="36.3441" rx="12.5" ry="12.5" style="stroke:#181818;stroke-width:0.5;" width="198.0213" x="252.8923" y="50"/><text fill="#000000" font-family="sans-serif" font-size="12" lengthAdjust="spacing" textLength="178.0213" x="262.8923" y="72.8281">The user opens the file browser</text><rect fill="#F1F1F1" height="36.3441" rx="12.5" ry="12.5" style="stroke:#181818;stroke-width:0.5;" width="370.3786" x="166.7137" y="163.603"/><text fill="#000000" font-family="sans-serif" font-size="12" lengthAdjust="spacing" textLength="350.3786" x="176.7137" y="186.4311">The file browser is opened in the user's defined home location</text><rect fill="#F1F1F1" height="36.3441" rx="12.5" ry="12.5" style="stroke:#181818;stroke-width:0.5;" width="450.3232" x="126.7414" y="219.9471"/><text fill="#000000" font-family="sans-serif" font-size="12" lengthAdjust="spacing" textLength="430.3232" x="136.7414" y="242.7752">Application shows the graph of possible neighbors from the current location</text><polygon fill="#F1F1F1" points="216.6699,280.6283,487.136,280.6283,499.136,292.6283,487.136,304.6283,216.6699,304.6283,204.6699,292.6283,216.6699,280.6283" style="stroke:#181818;stroke-width:0.5;"/><text fill="#000000" font-family="sans-serif" font-size="11" lengthAdjust="spacing" textLength="270.4661" x="216.6699" y="296.8962">How does the user want to interact with the system?</text><text fill="#000000" font-family="sans-serif" font-size="11" lengthAdjust="spacing" textLength="19.7778" x="182.0321" y="289.4053">GUI</text><text fill="#000000" font-family="sans-serif" font-size="11" lengthAdjust="spacing" textLength="19.8329" x="501.996" y="289.4053">DSL</text><rect fill="#F1F1F1" height="36.3441" rx="12.5" ry="12.5" style="stroke:#181818;stroke-width:0.5;" width="295.066" x="46" y="314.6283"/><text fill="#000000" font-family="sans-serif" font-size="12" lengthAdjust="spacing" textLength="275.066" x="56" y="337.4563">The user clicks on the neighbor they want to visit</text><rect fill="#F1F1F1" height="36.3441" rx="12.5" ry="12.5" style="stroke:#181818;stroke-width:0.5;" width="298.414" x="361.066" y="314.6283"/><text fill="#000000" font-family="sans-serif" font-size="12" lengthAdjust="spacing" textLength="278.414" x="371.066" y="337.4563">The user enters a command to search for an item</text><polygon fill="#F1F1F1" points="351.903,356.9724,363.903,368.9724,351.903,380.9724,339.903,368.9724,351.903,356.9724" style="stroke:#181818;stroke-width:0.5;"/><polygon fill="#F1F1F1" points="278.935,106.3441,424.871,106.3441,436.871,118.3441,424.871,130.3441,278.935,130.3441,266.935,118.3441,278.935,106.3441" style="stroke:#181818;stroke-width:0.5;"/><text fill="#000000" font-family="sans-serif" font-size="11" lengthAdjust="spacing" textLength="17.6989" x="358.763" y="142.103">Yes</text><text fill="#000000" font-family="sans-serif" font-size="11" lengthAdjust="spacing" textLength="145.9359" x="278.935" y="122.6121">Continue searching for a file</text><text fill="#000000" font-family="sans-serif" font-size="11" lengthAdjust="spacing" textLength="15.0149" x="249.0601" y="115.1211">No</text><polygon fill="#F1F1F1" points="223.9189,422.9724,479.8871,422.9724,491.8871,434.9724,479.8871,446.9724,223.9189,446.9724,211.9189,434.9724,223.9189,422.9724" style="stroke:#181818;stroke-width:0.5;"/><text fill="#000000" font-family="sans-serif" font-size="11" lengthAdjust="spacing" textLength="255.9682" x="223.9189" y="439.2403">What operation does the user want to do on a file</text><rect fill="#F1F1F1" height="36.3441" rx="12.5" ry="12.5" style="stroke:#181818;stroke-width:0.5;" width="161.493" x="21.0667" y="507.9361"/><text fill="#000000" font-family="sans-serif" font-size="12" lengthAdjust="spacing" textLength="141.493" x="31.0667" y="530.7642">The user clicks on the file</text><rect fill="#F1F1F1" height="36.3441" rx="12.5" ry="12.5" style="stroke:#181818;stroke-width:0.5;" width="98.7566" x="52.435" y="564.2803"/><text fill="#000000" font-family="sans-serif" font-size="12" lengthAdjust="spacing" textLength="78.7566" x="62.435" y="587.1083">The file opens</text><rect fill="#F1F1F1" height="36.3441" rx="12.5" ry="12.5" style="stroke:#181818;stroke-width:0.5;" width="180.2732" x="202.5598" y="507.9361"/><text fill="#000000" font-family="sans-serif" font-size="12" lengthAdjust="spacing" textLength="160.2732" x="212.5598" y="530.7642">The user hovers over the file</text><rect fill="#F1F1F1" height="36.3441" rx="12.5" ry="12.5" style="stroke:#181818;stroke-width:0.5;" width="171.5851" x="206.9038" y="564.2803"/><text fill="#000000" font-family="sans-serif" font-size="12" lengthAdjust="spacing" textLength="151.5851" x="216.9038" y="587.1083">The system shows the tags</text><rect fill="#F1F1F1" height="36.3441" rx="12.5" ry="12.5" style="stroke:#181818;stroke-width:0.5;" width="154.953" x="418.2531" y="507.9361"/><text fill="#000000" font-family="sans-serif" font-size="12" lengthAdjust="spacing" textLength="134.953" x="428.2531" y="530.7642">The user view the menu</text><rect fill="#F1F1F1" height="52.6882" rx="12.5" ry="12.5" style="stroke:#181818;stroke-width:0.5;" width="180.2132" x="405.623" y="564.2803"/><text fill="#000000" font-family="sans-serif" font-size="12" lengthAdjust="spacing" textLength="160.2132" x="415.623" y="587.1083">The system shows the menu</text><text fill="#000000" font-family="sans-serif" font-size="12" lengthAdjust="spacing" textLength="134.689" x="418.743" y="603.4525">with different operation</text><rect fill="#F1F1F1" height="36.3441" rx="12.5" ry="12.5" style="stroke:#181818;stroke-width:0.5;" width="185.7932" x="402.833" y="636.9685"/><text fill="#000000" font-family="sans-serif" font-size="12" lengthAdjust="spacing" textLength="165.7932" x="412.833" y="659.7966">The user selects an operation</text><polygon fill="#F1F1F1" points="351.903,693.3126,351.903,693.3126,363.903,705.3126,351.903,717.3126,351.903,717.3126,339.903,705.3126,351.903,693.3126" style="stroke:#181818;stroke-width:0.5;"/><rect fill="#F1F1F1" height="36.3441" rx="12.5" ry="12.5" style="stroke:#181818;stroke-width:0.5;" width="121.2207" x="291.2926" y="737.3126"/><text fill="#000000" font-family="sans-serif" font-size="12" lengthAdjust="spacing" textLength="101.2207" x="301.2926" y="760.1407">Operation is done</text><ellipse cx="351.903" cy="804.6567" fill="none" rx="11" ry="11" style="stroke:#222222;stroke-width:1.0;"/><ellipse cx="351.903" cy="804.6567" fill="#222222" rx="6" ry="6" style="stroke:#222222;stroke-width:1.0;"/><line style="stroke:#181818;stroke-width:1.0;" x1="351.903" x2="351.903" y1="30" y2="50"/><polygon fill="#181818" points="347.903,40,351.903,50,355.903,40,351.903,44" style="stroke:#181818;stroke-width:1.0;"/><line style="stroke:#181818;stroke-width:1.0;" x1="351.903" x2="351.903" y1="199.9471" y2="219.9471"/><polygon fill="#181818" points="347.903,209.9471,351.903,219.9471,355.903,209.9471,351.903,213.9471" style="stroke:#181818;stroke-width:1.0;"/><line style="stroke:#181818;stroke-width:1.0;" x1="204.6699" x2="193.533" y1="292.6283" y2="292.6283"/><line style="stroke:#181818;stroke-width:1.0;" x1="193.533" x2="193.533" y1="292.6283" y2="314.6283"/><polygon fill="#181818" points="189.533,304.6283,193.533,314.6283,197.533,304.6283,193.533,308.6283" style="stroke:#181818;stroke-width:1.0;"/><line style="stroke:#181818;stroke-width:1.0;" x1="499.136" x2="510.273" y1="292.6283" y2="292.6283"/><line style="stroke:#181818;stroke-width:1.0;" x1="510.273" x2="510.273" y1="292.6283" y2="314.6283"/><polygon fill="#181818" points="506.273,304.6283,510.273,314.6283,514.273,304.6283,510.273,308.6283" style="stroke:#181818;stroke-width:1.0;"/><line style="stroke:#181818;stroke-width:1.0;" x1="193.533" x2="193.533" y1="350.9724" y2="368.9724"/><line style="stroke:#181818;stroke-width:1.0;" x1="193.533" x2="339.903" y1="368.9724" y2="368.9724"/><polygon fill="#181818" points="329.903,364.9724,339.903,368.9724,329.903,372.9724,333.903,368.9724" style="stroke:#181818;stroke-width:1.0;"/><line style="stroke:#181818;stroke-width:1.0;" x1="510.273" x2="510.273" y1="350.9724" y2="368.9724"/><line style="stroke:#181818;stroke-width:1.0;" x1="510.273" x2="363.903" y1="368.9724" y2="368.9724"/><polygon fill="#181818" points="373.903,364.9724,363.903,368.9724,373.903,372.9724,369.903,368.9724" style="stroke:#181818;stroke-width:1.0;"/><line style="stroke:#181818;stroke-width:1.0;" x1="351.903" x2="351.903" y1="256.2913" y2="280.6283"/><polygon fill="#181818" points="347.903,270.6283,351.903,280.6283,355.903,270.6283,351.903,274.6283" style="stroke:#181818;stroke-width:1.0;"/><line style="stroke:#181818;stroke-width:1.0;" x1="351.903" x2="351.903" y1="130.3441" y2="163.603"/><polygon fill="#181818" points="347.903,153.603,351.903,163.603,355.903,153.603,351.903,157.603" style="stroke:#181818;stroke-width:1.0;"/><line style="stroke:#181818;stroke-width:1.0;" x1="351.903" x2="351.903" y1="380.9724" y2="390.9724"/><line style="stroke:#181818;stroke-width:1.0;" x1="351.903" x2="681.48" y1="390.9724" y2="390.9724"/><polygon fill="#181818" points="677.48,260.6283,681.48,250.6283,685.48,260.6283,681.48,256.6283" style="stroke:#181818;stroke-width:1.0;"/><line style="stroke:#181818;stroke-width:1.0;" x1="681.48" x2="681.48" y1="118.3441" y2="390.9724"/><line style="stroke:#181818;stroke-width:1.0;" x1="681.48" x2="436.871" y1="118.3441" y2="118.3441"/><polygon fill="#181818" points="446.871,114.3441,436.871,118.3441,446.871,122.3441,442.871,118.3441" style="stroke:#181818;stroke-width:1.0;"/><line style="stroke:#181818;stroke-width:1.0;" x1="266.935" x2="24" y1="118.3441" y2="118.3441"/><polygon fill="#181818" points="20,246.6283,24,256.6283,28,246.6283,24,250.6283" style="stroke:#181818;stroke-width:1.0;"/><line style="stroke:#181818;stroke-width:1.0;" x1="24" x2="24" y1="118.3441" y2="402.9724"/><line style="stroke:#181818;stroke-width:1.0;" x1="24" x2="351.903" y1="402.9724" y2="402.9724"/><line style="stroke:#181818;stroke-width:1.0;" x1="351.903" x2="351.903" y1="402.9724" y2="422.9724"/><polygon fill="#181818" points="347.903,412.9724,351.903,422.9724,355.903,412.9724,351.903,416.9724" style="stroke:#181818;stroke-width:1.0;"/><line style="stroke:#181818;stroke-width:1.0;" x1="351.903" x2="351.903" y1="86.3441" y2="106.3441"/><polygon fill="#181818" points="347.903,96.3441,351.903,106.3441,355.903,96.3441,351.903,100.3441" style="stroke:#181818;stroke-width:1.0;"/><line style="stroke:#181818;stroke-width:1.0;" x1="101.8133" x2="101.8133" y1="544.2803" y2="564.2803"/><polygon fill="#181818" points="97.8133,554.2803,101.8133,564.2803,105.8133,554.2803,101.8133,558.2803" style="stroke:#181818;stroke-width:1.0;"/><line style="stroke:#181818;stroke-width:1.0;" x1="292.6964" x2="292.6964" y1="544.2803" y2="564.2803"/><polygon fill="#181818" points="288.6964,554.2803,292.6964,564.2803,296.6964,554.2803,292.6964,558.2803" style="stroke:#181818;stroke-width:1.0;"/><line style="stroke:#181818;stroke-width:1.0;" x1="495.7295" x2="495.7295" y1="544.2803" y2="564.2803"/><polygon fill="#181818" points="491.7295,554.2803,495.7295,564.2803,499.7295,554.2803,495.7295,558.2803" style="stroke:#181818;stroke-width:1.0;"/><line style="stroke:#181818;stroke-width:1.0;" x1="495.7295" x2="495.7295" y1="616.9685" y2="636.9685"/><polygon fill="#181818" points="491.7295,626.9685,495.7295,636.9685,499.7295,626.9685,495.7295,630.9685" style="stroke:#181818;stroke-width:1.0;"/><line style="stroke:#181818;stroke-width:1.0;" x1="211.9189" x2="101.8133" y1="434.9724" y2="434.9724"/><line style="stroke:#181818;stroke-width:1.0;" x1="101.8133" x2="101.8133" y1="434.9724" y2="507.9361"/><polygon fill="#181818" points="97.8133,497.9361,101.8133,507.9361,105.8133,497.9361,101.8133,501.9361" style="stroke:#181818;stroke-width:1.0;"/><text fill="#000000" font-family="sans-serif" font-size="11" lengthAdjust="spacing" textLength="2.86" x="101.8133" y="470.4543">&#160;</text><text fill="#000000" font-family="sans-serif" font-size="11" lengthAdjust="spacing" textLength="28.3578" x="104.6732" y="485.4361">Open</text><line style="stroke:#181818;stroke-width:1.0;" x1="491.8871" x2="495.7295" y1="434.9724" y2="434.9724"/><line style="stroke:#181818;stroke-width:1.0;" x1="495.7295" x2="495.7295" y1="434.9724" y2="507.9361"/><polygon fill="#181818" points="491.7295,497.9361,495.7295,507.9361,499.7295,497.9361,495.7295,501.9361" style="stroke:#181818;stroke-width:1.0;"/><text fill="#000000" font-family="sans-serif" font-size="11" lengthAdjust="spacing" textLength="2.86" x="495.7295" y="470.4543">&#160;</text><text fill="#000000" font-family="sans-serif" font-size="11" lengthAdjust="spacing" textLength="184.1497" x="498.5895" y="485.4361">Other (more in specific user stories)</text><line style="stroke:#181818;stroke-width:1.0;" x1="351.903" x2="351.903" y1="446.9724" y2="468.0226"/><line style="stroke:#181818;stroke-width:1.0;" x1="351.903" x2="292.6964" y1="468.0226" y2="468.0226"/><line style="stroke:#181818;stroke-width:1.0;" x1="292.6964" x2="292.6964" y1="468.0226" y2="507.9361"/><polygon fill="#181818" points="288.6964,497.9361,292.6964,507.9361,296.6964,497.9361,292.6964,501.9361" style="stroke:#181818;stroke-width:1.0;"/><text fill="#000000" font-family="sans-serif" font-size="11" lengthAdjust="spacing" textLength="2.86" x="292.6964" y="471.4543">&#160;</text><text fill="#000000" font-family="sans-serif" font-size="11" lengthAdjust="spacing" textLength="73.0065" x="295.5563" y="486.4361">Show the tags</text><line style="stroke:#181818;stroke-width:1.0;" x1="101.8133" x2="101.8133" y1="600.6244" y2="705.3126"/><line style="stroke:#181818;stroke-width:1.0;" x1="101.8133" x2="339.903" y1="705.3126" y2="705.3126"/><polygon fill="#181818" points="329.903,701.3126,339.903,705.3126,329.903,709.3126,333.903,705.3126" style="stroke:#181818;stroke-width:1.0;"/><line style="stroke:#181818;stroke-width:1.0;" x1="495.7295" x2="495.7295" y1="673.3126" y2="705.3126"/><line style="stroke:#181818;stroke-width:1.0;" x1="495.7295" x2="363.903" y1="705.3126" y2="705.3126"/><polygon fill="#181818" points="373.903,701.3126,363.903,705.3126,373.903,709.3126,369.903,705.3126" style="stroke:#181818;stroke-width:1.0;"/><line style="stroke:#181818;stroke-width:1.0;" x1="292.6964" x2="292.6964" y1="600.6244" y2="678.3126"/><line style="stroke:#181818;stroke-width:1.0;" x1="292.6964" x2="351.903" y1="678.3126" y2="678.3126"/><line style="stroke:#181818;stroke-width:1.0;" x1="351.903" x2="351.903" y1="678.3126" y2="693.3126"/><polygon fill="#181818" points="347.903,683.3126,351.903,693.3126,355.903,683.3126,351.903,687.3126" style="stroke:#181818;stroke-width:1.0;"/><line style="stroke:#181818;stroke-width:1.0;" x1="351.903" x2="351.903" y1="717.3126" y2="737.3126"/><polygon fill="#181818" points="347.903,727.3126,351.903,737.3126,355.903,727.3126,351.903,731.3126" style="stroke:#181818;stroke-width:1.0;"/><line style="stroke:#181818;stroke-width:1.0;" x1="351.903" x2="351.903" y1="773.6567" y2="793.6567"/><polygon fill="#181818" points="347.903,783.6567,351.903,793.6567,355.903,783.6567,351.903,787.6567" style="stroke:#181818;stroke-width:1.0;"/><!--SRC=[XLBDZjGm3BxtANoZymhJ0q8W0H9Y3ijgXSGbapeJQzkuYZDJxTjZ9yjCDQoWXqfEdC_VZwMuNBhzZuXm5ip02oQ1ecMW2U6OUTNZeLkZbVr7JeNI6K7GPHyfdI1m1bUxTq02FVn4WLs3t6BOfQ7Z29Jg11luJc34G7OQUKQOsBj2d8Pk_s5P9ceLI5IC-kYKtHA10omiGaV5JqYdUEGi43BFjScVSyPKDcWKeF_2AuoCSXqEgzEcmageO7Q-m4ebrcjvaOBp-vqLIKLzVlogea2_crTUwJshgARc3mqhNgx85n8gGuUJg7lmwU7RNoXeiqKjz3pFBetsghdRh4r0oaGXqaZ1_gzHm7TMB576sja_HLVCtjpyUblco4RsDQpEE-FqAy51K_cFE7int3fghdLLXXlCWsPKcuixoJrSv8kfjFzRWCtkJSo6iS4-w5c6VkQCjZsoeAT0lc5BuKmek_kP5y96QCPq_jSmkzSXDNmrEM1TdgkRmnsku8I-Y4MpwT5aMXZT_d3DGNT-vAHAbUFo6m00]--></g></svg>